<?xml version="1.0" encoding="utf-8"?>
<!-- Generator: Adobe Illustrator 14.0.0, SVG Export Plug-In . SVG Version: 6.00 Build 43363)  -->
<!DOCTYPE svg PUBLIC "-//W3C//DTD SVG 1.1//EN" "http://www.w3.org/Graphics/SVG/1.1/DTD/svg11.dtd">
<svg version="1.1" id="Layer_2" xmlns="http://www.w3.org/2000/svg" xmlns:xlink="http://www.w3.org/1999/xlink" x="0px" y="0px"
	 width="231.364px" height="358.235px" viewBox="4.319 6.355 231.364 358.235" enable-background="new 4.319 6.355 231.364 358.235"
	 xml:space="preserve">
<g>
	<defs>
		<rect id="SVGID_1_" x="-143.999" y="-20.777" width="528" height="396"/>
	</defs>
	<clipPath id="SVGID_2_">
		<use xlink:href="#SVGID_1_"  overflow="visible"/>
	</clipPath>
	<g clip-path="url(#SVGID_2_)">
		<path fill-opacity="0" d="M-143.999-20.777h528v396h-528V-20.777z"/>
		<path fill="#F3F3F3" d="M4.319,58.565v153.013l0,0c0,84.506,51.792,153.013,115.683,153.013
			c63.889,0,115.682-68.507,115.682-153.013V58.565H4.319z"/>
		<path fill="#C9360E" d="M35.981,22.657L7.974,13.501c18.671-1.191,37.342-2.084,56.014-2.68V7.249
			c37.342-1.191,74.685-1.191,112.027,0v3.573c18.672,0.596,37.343,1.489,56.014,2.68l-28.007,9.156l28.007,12.281
			c-28.007-1.786-56.014-2.903-84.021-3.349l28.007-2.904c-37.342-1.19-74.685-1.19-112.027,0l28.007,2.904
			c-28.007,0.446-56.014,1.563-84.021,3.349L35.981,22.657z"/>
		<path fill="#A02B0B" d="M91.995,28.016v3.573l-28.007-2.904c37.342-1.19,74.685-1.19,112.027,0l-28.007,2.904v-3.573
			C129.336,27.717,110.665,27.717,91.995,28.016z"/>
		<path fill-opacity="0" d="M7.974,34.938l28.007-12.281L7.974,13.501c18.671-1.191,37.342-2.084,56.014-2.68V7.249
			c37.342-1.191,74.685-1.191,112.027,0v3.573c18.672,0.596,37.343,1.489,56.014,2.68l-28.007,9.156l28.007,12.281
			c-28.007-1.786-56.014-2.903-84.021-3.349l28.007-2.904c-37.342-1.19-74.685-1.19-112.027,0l28.007,2.904
			C63.988,32.035,35.981,33.152,7.974,34.938z M63.988,28.685V10.821 M176.015,10.821v17.864 M91.995,28.016v3.573 M148.008,31.589
			v-3.573"/>
		<path fill-opacity="0" d="M55.36,1.334h129.281v28.583H55.36V1.334z"/>
		<path fill="#F3F3F3" d="M95.35,14.482v2.587c0,1.047,0.052,1.675,0.156,1.881c0.034,0.086,0.094,0.16,0.18,0.224
			c0.086,0.062,0.177,0.1,0.275,0.111c0.104,0.012,0.238,0.017,0.404,0.017l0.026,0.129h-2.828l0.026-0.129
			c0.172,0,0.307-0.005,0.404-0.017c0.103-0.011,0.197-0.049,0.284-0.111c0.092-0.063,0.153-0.135,0.189-0.215
			c0.039-0.08,0.073-0.215,0.103-0.404c0.034-0.246,0.051-0.742,0.051-1.485v-1.152h-4.228v1.152c0,0.744,0.02,1.254,0.06,1.529
			c0.045,0.27,0.111,0.438,0.198,0.507c0.161,0.132,0.415,0.198,0.765,0.198l0.016,0.129h-2.817l0.017-0.129
			c0.178,0,0.315-0.005,0.413-0.017c0.098-0.011,0.188-0.049,0.275-0.111c0.085-0.063,0.146-0.135,0.18-0.215
			c0.04-0.08,0.075-0.215,0.103-0.404c0.034-0.246,0.052-0.742,0.052-1.485v-2.587c0-0.728-0.02-1.235-0.06-1.521
			c-0.04-0.287-0.103-0.464-0.189-0.533c-0.166-0.132-0.423-0.199-0.773-0.199l-0.017-0.111h2.817l-0.016,0.111
			c-0.35,0-0.604,0.066-0.765,0.199c-0.172,0.148-0.257,0.833-0.257,2.054v1.168h4.228v-1.168c0-1.042-0.051-1.673-0.154-1.891
			c-0.036-0.085-0.098-0.16-0.189-0.224c-0.087-0.062-0.181-0.1-0.284-0.111c-0.097-0.018-0.231-0.026-0.404-0.026l-0.026-0.111
			h2.828l-0.026,0.111c-0.166,0-0.3,0.009-0.404,0.026c-0.098,0.012-0.188,0.049-0.275,0.111c-0.085,0.063-0.148,0.139-0.188,0.224
			c-0.035,0.081-0.066,0.215-0.095,0.404C95.369,13.298,95.35,13.794,95.35,14.482z M97.17,16.957c0-0.727,0.209-1.337,0.628-1.83
			c0.417-0.493,0.984-0.739,1.701-0.739c0.716,0,1.292,0.246,1.727,0.739c0.442,0.493,0.662,1.105,0.662,1.839
			c0,0.733-0.212,1.346-0.636,1.838c-0.418,0.487-0.985,0.73-1.702,0.73c-0.716,0-1.292-0.246-1.726-0.739
			C97.389,18.298,97.17,17.684,97.17,16.957z M98.374,18.658c0.275,0.447,0.667,0.67,1.177,0.67c0.51,0,0.894-0.218,1.152-0.653
			c0.263-0.441,0.395-1.008,0.395-1.702c0-0.693-0.141-1.263-0.421-1.71c-0.275-0.447-0.667-0.67-1.177-0.67
			c-0.505,0-0.888,0.221-1.151,0.662c-0.258,0.44-0.388,1.008-0.388,1.701C97.961,17.644,98.099,18.211,98.374,18.658z
			 M106.402,18.289c0.115-0.27,0.198-0.542,0.249-0.816c0.058-0.281,0.087-0.582,0.087-0.903s-0.009-0.59-0.026-0.808
			c-0.012-0.218-0.035-0.41-0.069-0.576c-0.034-0.172-0.094-0.294-0.18-0.369c-0.155-0.138-0.41-0.207-0.766-0.207l-0.017-0.111
			c0.606-0.075,1.202-0.112,1.787-0.112v2.724c0,0.773,0.022,1.281,0.069,1.521c0.051,0.24,0.171,0.36,0.36,0.36
			c0.115,0,0.27-0.048,0.465-0.146l0.051,0.103c-0.051,0.04-0.124,0.091-0.215,0.154c-0.092,0.057-0.278,0.135-0.559,0.233
			c-0.275,0.096-0.542,0.146-0.799,0.146c-0.069-0.401-0.103-0.867-0.103-1.401c-0.322,0.968-0.876,1.452-1.667,1.452
			c-1.066,0-1.6-0.555-1.6-1.667v-1.015c0-1.048-0.051-1.679-0.154-1.891c-0.035-0.08-0.097-0.151-0.188-0.214
			c-0.086-0.063-0.181-0.101-0.284-0.112c-0.097-0.017-0.231-0.026-0.405-0.026l-0.026-0.111c0.608-0.075,1.204-0.112,1.788-0.112
			v3.368c0,0.481,0.075,0.845,0.224,1.092c0.155,0.24,0.39,0.36,0.705,0.36c0.315,0,0.578-0.085,0.789-0.257
			C106.132,18.778,106.294,18.558,106.402,18.289z M109.316,17.876c0,0.453,0.12,0.793,0.36,1.022
			c0.247,0.224,0.539,0.335,0.877,0.335s0.61-0.078,0.816-0.232c0.212-0.155,0.317-0.361,0.317-0.619
			c0-0.263-0.088-0.478-0.266-0.645c-0.177-0.166-0.393-0.3-0.644-0.404c-0.253-0.109-0.508-0.218-0.766-0.327
			c-0.253-0.115-0.467-0.278-0.645-0.489c-0.178-0.218-0.267-0.508-0.267-0.869s0.16-0.662,0.48-0.902
			c0.327-0.241,0.702-0.361,1.127-0.361c0.607,0,1.082,0.097,1.426,0.292c0,0.321-0.042,0.766-0.129,1.332l-0.12-0.025
			c0-0.463-0.106-0.8-0.318-1.005c-0.206-0.206-0.458-0.31-0.756-0.31s-0.536,0.078-0.714,0.232
			c-0.178,0.149-0.267,0.355-0.267,0.62c0,0.257,0.089,0.466,0.267,0.626c0.178,0.156,0.394,0.284,0.645,0.387
			c0.253,0.103,0.505,0.215,0.757,0.335c0.258,0.115,0.476,0.277,0.653,0.489c0.179,0.212,0.267,0.471,0.267,0.774
			c0,0.446-0.175,0.793-0.524,1.04c-0.35,0.241-0.808,0.36-1.375,0.36c-0.566,0-1.046-0.149-1.436-0.447
			c0-0.35,0.034-0.762,0.104-1.237L109.316,17.876z M117.418,16.785h-3.43v0.181c0,0.738,0.155,1.303,0.465,1.692
			c0.315,0.384,0.707,0.576,1.177,0.576c0.699,0,1.201-0.278,1.505-0.833l0.153,0.077c-0.36,0.705-0.965,1.057-1.812,1.057
			c-0.631,0-1.169-0.226-1.616-0.679c-0.44-0.453-0.661-1.062-0.661-1.83c0-0.774,0.194-1.407,0.584-1.899
			c0.396-0.493,0.922-0.739,1.582-0.739c0.659,0,1.166,0.226,1.521,0.679C117.24,15.513,117.418,16.086,117.418,16.785z
			 M115.39,14.594c-0.407,0-0.728,0.171-0.963,0.516c-0.229,0.344-0.369,0.802-0.421,1.375h2.604
			C116.563,15.224,116.157,14.594,115.39,14.594z M120.833,16.957c0-0.727,0.208-1.337,0.626-1.83s0.985-0.739,1.701-0.739
			c0.719,0,1.294,0.246,1.728,0.739c0.441,0.493,0.663,1.105,0.663,1.839c0,0.733-0.213,1.346-0.637,1.838
			c-0.418,0.487-0.984,0.73-1.702,0.73c-0.715,0-1.291-0.246-1.727-0.739C121.05,18.298,120.833,17.684,120.833,16.957z
			 M122.035,18.658c0.275,0.447,0.668,0.67,1.177,0.67c0.512,0,0.895-0.218,1.151-0.653c0.266-0.441,0.396-1.008,0.396-1.702
			c0-0.693-0.14-1.263-0.421-1.71c-0.274-0.447-0.666-0.67-1.178-0.67c-0.503,0-0.887,0.221-1.15,0.662
			c-0.257,0.44-0.386,1.008-0.386,1.701C121.624,17.644,121.761,18.211,122.035,18.658z M128.001,14.723v2.347
			c0,0.744,0.023,1.254,0.068,1.529c0.047,0.27,0.108,0.438,0.19,0.507c0.159,0.132,0.414,0.198,0.766,0.198l0.024,0.129h-2.81
			l0.017-0.129c0.166,0,0.296-0.005,0.395-0.017c0.104-0.011,0.199-0.049,0.284-0.111c0.085-0.063,0.146-0.135,0.181-0.215
			c0.039-0.08,0.075-0.215,0.104-0.404c0.034-0.246,0.052-0.742,0.052-1.485v-2.347h-0.963V14.49h0.963
			c0-1.318,0.247-2.168,0.748-2.552c0.27-0.195,0.586-0.293,0.954-0.293c0.371,0,0.723,0.098,1.056,0.293
			c0.333,0.194,0.499,0.418,0.499,0.67c0,0.103-0.04,0.195-0.12,0.275c-0.081,0.074-0.188,0.112-0.319,0.112
			c-0.131,0-0.245-0.055-0.344-0.163c-0.099-0.114-0.168-0.235-0.214-0.361c-0.047-0.132-0.127-0.252-0.24-0.361
			c-0.108-0.114-0.248-0.171-0.413-0.171c-0.355,0-0.589,0.166-0.705,0.498c-0.113,0.333-0.172,0.854-0.172,1.564v0.489h1.384v0.232
			H128.001z M140.515,19.432c-0.172,0-0.345-0.089-0.516-0.266c-0.172-0.178-0.327-0.398-0.463-0.662
			c-0.133-0.263-0.29-0.55-0.474-0.859c-0.178-0.315-0.358-0.607-0.542-0.876c-0.184-0.275-0.415-0.504-0.695-0.688
			c-0.275-0.189-0.57-0.292-0.885-0.309v1.298c0,0.755,0.021,1.269,0.067,1.538c0.046,0.263,0.112,0.43,0.198,0.498
			c0.165,0.132,0.424,0.198,0.772,0.198l0.018,0.129h-2.802l0.026-0.129c0.338,0,0.587-0.061,0.748-0.18
			c0.132-0.109,0.21-0.453,0.231-1.031c0.012-0.229,0.017-0.571,0.017-1.022V14.43c0-0.773-0.02-1.286-0.059-1.538
			c-0.042-0.252-0.104-0.41-0.189-0.473c-0.161-0.121-0.41-0.181-0.748-0.181l-0.026-0.12h2.424c1.76,0,2.638,0.593,2.638,1.779
			c0,0.504-0.18,0.931-0.539,1.28c-0.356,0.345-0.79,0.542-1.3,0.594c0.51,0.303,0.98,0.856,1.41,1.658
			c0.165,0.309,0.343,0.607,0.532,0.894c0.413,0.653,0.942,0.979,1.591,0.979l0.017,0.129H140.515z M136.94,12.359v3.205h0.661
			c0.526,0,0.965-0.134,1.313-0.403c0.351-0.276,0.525-0.679,0.525-1.212c0-1.06-0.607-1.59-1.822-1.59H136.94z M141.743,16.957
			c0-0.727,0.209-1.337,0.627-1.83c0.42-0.493,0.987-0.739,1.703-0.739s1.291,0.246,1.727,0.739
			c0.442,0.493,0.662,1.105,0.662,1.839c0,0.733-0.213,1.346-0.636,1.838c-0.418,0.487-0.986,0.73-1.701,0.73
			c-0.716,0-1.292-0.246-1.729-0.739C141.961,18.298,141.743,17.684,141.743,16.957z M142.946,18.658
			c0.276,0.447,0.67,0.67,1.179,0.67c0.51,0,0.894-0.218,1.151-0.653c0.263-0.441,0.395-1.008,0.395-1.702
			c0-0.693-0.14-1.263-0.421-1.71c-0.272-0.447-0.667-0.67-1.177-0.67c-0.504,0-0.89,0.221-1.152,0.662
			c-0.258,0.44-0.386,1.008-0.386,1.701C142.535,17.644,142.673,18.211,142.946,18.658z M147.797,21.623
			c0.349,0,0.638-0.134,0.867-0.403c0.235-0.264,0.476-0.696,0.723-1.298l-1.557-3.928c-0.234-0.584-0.443-0.96-0.628-1.125
			c-0.183-0.171-0.402-0.258-0.66-0.258l-0.019-0.12h2.588l-0.019,0.12c-0.245,0-0.418,0.041-0.516,0.121
			c-0.092,0.074-0.136,0.192-0.136,0.353c0,0.321,0.162,0.894,0.489,1.719l0.808,2.02l0.816-2.5c0.16-0.505,0.24-0.886,0.24-1.144
			c0-0.377-0.243-0.567-0.73-0.567l-0.026-0.12h1.968l-0.015,0.12c-0.287,0-0.488,0.095-0.603,0.284
			c-0.116,0.183-0.33,0.75-0.646,1.701l-0.945,2.871c-0.303,0.939-0.66,1.661-1.074,2.166c-0.411,0.509-0.839,0.764-1.281,0.764
			c-0.206,0-0.374-0.04-0.505-0.12c-0.133-0.08-0.198-0.192-0.198-0.335c0-0.138,0.043-0.247,0.129-0.327
			c0.092-0.08,0.186-0.12,0.283-0.12c0.103,0,0.218,0.02,0.344,0.06C147.621,21.601,147.722,21.623,147.797,21.623z"/>
		<path fill="#C9360E" d="M4.319,58.564h231.365l-115.683,65.869L4.319,58.564z"/>
		<path fill="#C9360E" d="M29.706,89.033h2.706v195.611h-2.706V89.033z"/>
		<path fill="#3E6617" d="M31.059,89.033l11.572,14.638h-7.715l-3.857-4.879l-3.857,4.879h-7.715L31.059,89.033z"/>
		<path fill="#3E6617" d="M31.059,128.497l11.572,14.638h-7.715l-3.857-4.879l-3.857,4.879h-7.715L31.059,128.497z"/>
		<path fill="#3E6617" d="M31.059,105.257l11.572,14.638h-7.715l-3.857-4.879l-3.857,4.879h-7.715L31.059,105.257z"/>
		<path fill="#3E6617" d="M31.059,98.282l11.572,14.638h-7.715l-3.857-4.879l-3.857,4.879h-7.715L31.059,98.282z"/>
		<path fill="#3E6617" d="M31.059,82.058L42.623,96.69h-7.709l-3.855-4.878l-3.855,4.878h-7.709L31.059,82.058z"/>
		<path fill="#3E6617" d="M31.059,121.482l11.572,14.638h-7.715l-3.857-4.88l-3.857,4.88h-7.715L31.059,121.482z"/>
		<path fill="#3E6617" d="M31.059,176.058l11.572,14.638h-7.715l-3.857-4.878l-3.857,4.878h-7.715L31.059,176.058z"/>
		<path fill="#3E6617" d="M31.059,147.633l11.572,14.637h-7.715l-3.857-4.878l-3.857,4.878h-7.715L31.059,147.633z"/>
		<path fill="#3E6617" d="M31.059,140.657l11.572,14.638h-7.715l-3.857-4.879l-3.857,4.879h-7.715L31.059,140.657z"/>
		<path fill="#3E6617" d="M31.059,156.884l11.572,14.637h-7.715l-3.857-4.879l-3.857,4.879h-7.715L31.059,156.884z"/>
		<path fill="#3E6617" d="M31.059,163.858l11.572,14.638h-7.715l-3.857-4.879l-3.857,4.879h-7.715L31.059,163.858z"/>
		<path fill="#C9360E" d="M74.181,137.983h2.702v195.609h-2.702V137.983z"/>
		<path fill="#3E6617" d="M75.534,137.983l11.572,14.638h-7.714l-3.857-4.879l-3.857,4.879h-7.714L75.534,137.983z"/>
		<path fill="#3E6617" d="M75.534,177.447l11.572,14.638h-7.714l-3.857-4.88l-3.857,4.88h-7.714L75.534,177.447z"/>
		<path fill="#3E6617" d="M75.534,154.207l11.572,14.637h-7.714l-3.857-4.878l-3.857,4.878h-7.714L75.534,154.207z"/>
		<path fill="#3E6617" d="M75.534,147.232l11.572,14.637h-7.714l-3.857-4.879l-3.857,4.879h-7.714L75.534,147.232z"/>
		<path fill="#3E6617" d="M75.534,131.007l11.572,14.638h-7.714l-3.857-4.88l-3.857,4.88h-7.714L75.534,131.007z"/>
		<path fill="#3E6617" d="M75.534,170.433l11.572,14.639h-7.714l-3.857-4.88l-3.857,4.88h-7.714L75.534,170.433z"/>
		<path fill="#3E6617" d="M75.534,225.008l11.572,14.638h-7.714l-3.857-4.879l-3.857,4.879h-7.714L75.534,225.008z"/>
		<path fill="#3E6617" d="M75.534,196.583l11.572,14.637h-7.714l-3.857-4.878l-3.857,4.878h-7.714L75.534,196.583z"/>
		<path fill="#3E6617" d="M75.534,189.608l11.572,14.637h-7.714l-3.857-4.878l-3.857,4.878h-7.714L75.534,189.608z"/>
		<path fill="#3E6617" d="M75.534,205.834l11.572,14.637h-7.714l-3.857-4.878l-3.857,4.878h-7.714L75.534,205.834z"/>
		<path fill="#3E6617" d="M75.534,212.809l11.572,14.637h-7.714l-3.857-4.878l-3.857,4.878h-7.714L75.534,212.809z"/>
		<path fill="#C9360E" d="M118.655,160.532h2.702v195.61h-2.702V160.532z"/>
		<path fill="#3E6617" d="M120.009,160.532l11.571,14.638h-7.715l-3.856-4.878l-3.857,4.878h-7.715L120.009,160.532z"/>
		<path fill="#3E6617" d="M120.009,199.997l11.571,14.637h-7.715l-3.856-4.878l-3.857,4.878h-7.715L120.009,199.997z"/>
		<path fill="#3E6617" d="M120.009,176.758l11.571,14.637h-7.715l-3.856-4.879l-3.857,4.879h-7.715L120.009,176.758z"/>
		<path fill="#3E6617" d="M120.009,169.782l11.571,14.638h-7.715l-3.856-4.88l-3.857,4.88h-7.715L120.009,169.782z"/>
		<path fill="#3E6617" d="M120.009,153.557l11.571,14.638h-7.715l-3.856-4.879l-3.857,4.879h-7.715L120.009,153.557z"/>
		<path fill="#3E6617" d="M120.009,192.983l11.571,14.637h-7.715l-3.856-4.879l-3.857,4.879h-7.715L120.009,192.983z"/>
		<path fill="#3E6617" d="M120.009,247.558l11.571,14.639h-7.715l-3.856-4.88l-3.857,4.88h-7.715L120.009,247.558z"/>
		<path fill="#3E6617" d="M120.009,219.133l11.571,14.637h-7.715l-3.856-4.878l-3.857,4.878h-7.715L120.009,219.133z"/>
		<path fill="#3E6617" d="M120.009,212.157l11.571,14.638h-7.715l-3.856-4.878l-3.857,4.878h-7.715L120.009,212.157z"/>
		<path fill="#3E6617" d="M120.009,228.384l11.571,14.637h-7.715l-3.856-4.878l-3.857,4.878h-7.715L120.009,228.384z"/>
		<path fill="#3E6617" d="M120.009,235.358l11.571,14.637h-7.715l-3.856-4.878l-3.857,4.878h-7.715L120.009,235.358z"/>
		<path fill="#C9360E" d="M163.132,137.983h2.7v195.609h-2.7V137.983z"/>
		<path fill="#3E6617" d="M164.483,137.983l11.573,14.638h-7.716l-3.857-4.879l-3.856,4.879h-7.715L164.483,137.983z"/>
		<path fill="#3E6617" d="M164.483,177.447l11.573,14.638h-7.716l-3.857-4.88l-3.856,4.88h-7.715L164.483,177.447z"/>
		<path fill="#3E6617" d="M164.483,154.207l11.573,14.637h-7.716l-3.857-4.878l-3.856,4.878h-7.715L164.483,154.207z"/>
		<path fill="#3E6617" d="M164.483,147.232l11.573,14.637h-7.716l-3.857-4.879l-3.856,4.879h-7.715L164.483,147.232z"/>
		<path fill="#3E6617" d="M164.483,131.007l11.573,14.638h-7.716l-3.857-4.88l-3.856,4.88h-7.715L164.483,131.007z"/>
		<path fill="#3E6617" d="M164.483,170.433l11.573,14.639h-7.716l-3.857-4.88l-3.856,4.88h-7.715L164.483,170.433z"/>
		<path fill="#3E6617" d="M164.483,225.008l11.573,14.638h-7.716l-3.857-4.879l-3.856,4.879h-7.715L164.483,225.008z"/>
		<path fill="#3E6617" d="M164.483,196.583l11.573,14.637h-7.716l-3.857-4.878l-3.856,4.878h-7.715L164.483,196.583z"/>
		<path fill="#3E6617" d="M164.483,189.608l11.573,14.637h-7.716l-3.857-4.878l-3.856,4.878h-7.715L164.483,189.608z"/>
		<path fill="#3E6617" d="M164.483,205.834l11.573,14.637h-7.716l-3.857-4.878l-3.856,4.878h-7.715L164.483,205.834z"/>
		<path fill="#3E6617" d="M164.483,212.809l11.573,14.637h-7.716l-3.857-4.878l-3.856,4.878h-7.715L164.483,212.809z"/>
		<path fill="#C9360E" d="M207.605,89.033h2.703v195.609h-2.703V89.033z"/>
		<path fill="#3E6617" d="M208.958,89.033l11.573,14.638h-7.716l-3.857-4.879l-3.857,4.879h-7.714L208.958,89.033z"/>
		<path fill="#3E6617" d="M208.958,128.497l11.573,14.638h-7.716l-3.857-4.879l-3.857,4.879h-7.714L208.958,128.497z"/>
		<path fill="#3E6617" d="M208.958,105.257l11.573,14.638h-7.716l-3.857-4.879l-3.857,4.879h-7.714L208.958,105.257z"/>
		<path fill="#3E6617" d="M208.958,98.282l11.573,14.638h-7.716l-3.857-4.879l-3.857,4.879h-7.714L208.958,98.282z"/>
		<path fill="#3E6617" d="M208.958,82.058l11.573,14.637h-7.716l-3.857-4.879l-3.857,4.879h-7.714L208.958,82.058z"/>
		<path fill="#3E6617" d="M208.958,121.482l11.573,14.638h-7.716l-3.857-4.88l-3.857,4.88h-7.714L208.958,121.482z"/>
		<path fill="#3E6617" d="M208.958,176.058l11.573,14.638h-7.716l-3.857-4.878l-3.857,4.878h-7.714L208.958,176.058z"/>
		<path fill="#3E6617" d="M208.958,147.633l11.573,14.637h-7.716l-3.857-4.878l-3.857,4.878h-7.714L208.958,147.633z"/>
		<path fill="#3E6617" d="M208.958,140.657l11.573,14.638h-7.716l-3.857-4.879l-3.857,4.879h-7.714L208.958,140.657z"/>
		<path fill="#3E6617" d="M208.958,156.884l11.573,14.637h-7.716l-3.857-4.879l-3.857,4.879h-7.714L208.958,156.884z"/>
		<path fill="#3E6617" d="M208.958,163.858l11.573,14.638h-7.716l-3.857-4.879l-3.857,4.879h-7.714L208.958,163.858z"/>
	</g>
</g>
</svg>
