<?xml version="1.0" encoding="utf-8"?>
<!-- Generator: Adobe Illustrator 14.0.0, SVG Export Plug-In . SVG Version: 6.00 Build 43363)  -->
<!DOCTYPE svg PUBLIC "-//W3C//DTD SVG 1.1//EN" "http://www.w3.org/Graphics/SVG/1.1/DTD/svg11.dtd">
<svg version="1.1" id="Layer_1" xmlns="http://www.w3.org/2000/svg" xmlns:xlink="http://www.w3.org/1999/xlink" x="0px" y="0px"
	 width="68px" height="150px" viewBox="0 0 68 150" enable-background="new 0 0 68 150" xml:space="preserve">
<path fill="#000099" stroke="#000099" d="M6.254,60.907c0-17.397,12.423-31.5,27.746-31.5c15.322,0,27.746,14.103,27.746,31.5
	C61.746,78.303,34,128.25,34,128.25S6.254,78.303,6.254,60.907z"/>
<circle fill="#000099" stroke="#FFCC00" stroke-width="2" stroke-miterlimit="1" cx="34" cy="55.852" r="18.125"/>
<g>
	<path fill="#FFCC00" d="M34.169,48.806c0.035,0,0.08,0,0.123,0c0.465,1.551,0.92,3.112,1.403,4.649c1.549,0,3.096,0,4.645,0
		c0,0.039,0,0.082,0,0.123c-1.297,0.909-2.525,1.874-3.736,2.872c0.432,1.552,0.971,2.994,1.354,4.586c-0.043,0-0.086,0-0.129,0
		c-1.146-0.959-2.354-1.837-3.542-2.753c-1.301,0.839-2.462,1.82-3.666,2.753c-0.037,0-0.08,0-0.12,0
		c0.43-1.566,0.914-3.08,1.401-4.586c-1.232-1.005-2.526-1.957-3.788-2.937c0-0.021,0-0.039,0-0.058c1.55,0,3.1,0,4.645,0
		C33.254,51.931,33.749,50.407,34.169,48.806z"/>
</g>
</svg>
