<?xml version="1.0" encoding="utf-8"?>
<!-- Generator: Adobe Illustrator 14.0.0, SVG Export Plug-In . SVG Version: 6.00 Build 43363)  -->
<!DOCTYPE svg PUBLIC "-//W3C//DTD SVG 1.1//EN" "http://www.w3.org/Graphics/SVG/1.1/DTD/svg11.dtd">
<svg version="1.1" id="Layer_1" xmlns="http://www.w3.org/2000/svg" xmlns:xlink="http://www.w3.org/1999/xlink" x="0px" y="0px"
	 width="68px" height="150px" viewBox="0 0 68 150" enable-background="new 0 0 68 150" xml:space="preserve">
<g>
	<defs>
		<path id="SVGID_1_" d="M6.75,57.25c0-17.396,12.423-31.5,27.746-31.5c15.322,0,27.746,14.104,27.746,31.5
			s-27.746,67.344-27.746,67.344S6.75,74.646,6.75,57.25z"/>
	</defs>
	<clipPath id="SVGID_2_">
		<use xlink:href="#SVGID_1_"  overflow="visible"/>
	</clipPath>
	<rect x="1.75" y="20.75" clip-path="url(#SVGID_2_)" fill="#6E2A1F" width="65.492" height="108.844"/>
</g>
<g>
	<defs>
		<rect id="SVGID_3_" x="6" y="25" width="56.992" height="101.138"/>
	</defs>
	<clipPath id="SVGID_4_">
		<use xlink:href="#SVGID_3_"  overflow="visible"/>
	</clipPath>
	<g clip-path="url(#SVGID_4_)" enable-background="new    ">
		<g>
			<defs>
				<rect id="SVGID_5_" x="22" y="34" width="25" height="73"/>
			</defs>
			<clipPath id="SVGID_6_">
				<use xlink:href="#SVGID_5_"  overflow="visible"/>
			</clipPath>
			<g clip-path="url(#SVGID_6_)">
				<defs>
					<rect id="SVGID_7_" x="33.358" y="41.536" width="2.275" height="65.14"/>
				</defs>
				<clipPath id="SVGID_8_">
					<use xlink:href="#SVGID_7_"  overflow="visible"/>
				</clipPath>
				<g clip-path="url(#SVGID_8_)">
					<defs>
						<rect id="SVGID_9_" x="6" y="25" width="57" height="100"/>
					</defs>
					<clipPath id="SVGID_10_">
						<use xlink:href="#SVGID_9_"  overflow="visible"/>
					</clipPath>
					<rect x="28.358" y="36.536" clip-path="url(#SVGID_10_)" fill="#FFFFFF" width="12.275" height="75.14"/>
				</g>
			</g>
			<g clip-path="url(#SVGID_6_)">
				<defs>
					<polygon id="SVGID_11_" points="30.473,63.573 25.446,63.573 31.554,54.194 26.852,54.194 31.57,46.952 28.262,46.952 
						32.479,40.476 30.464,40.476 34.495,34.289 38.527,40.476 36.509,40.476 40.729,46.952 37.419,46.952 42.139,54.195 
						37.438,54.195 43.547,63.573 38.52,63.573 46.109,75.224 38.367,75.224 34.495,69.282 30.621,75.226 22.882,75.226 "/>
				</defs>
				<clipPath id="SVGID_12_">
					<use xlink:href="#SVGID_11_"  overflow="visible"/>
				</clipPath>
				<g clip-path="url(#SVGID_12_)">
					<defs>
						<rect id="SVGID_13_" x="6" y="25" width="57" height="100"/>
					</defs>
					<clipPath id="SVGID_14_">
						<use xlink:href="#SVGID_13_"  overflow="visible"/>
					</clipPath>
					<rect x="17.882" y="29.289" clip-path="url(#SVGID_14_)" fill="#FFFFFF" width="33.227" height="50.937"/>
				</g>
			</g>
		</g>
	</g>
</g>
</svg>
