<?xml version="1.0" encoding="utf-8"?>
<!-- Generator: Adobe Illustrator 14.0.0, SVG Export Plug-In . SVG Version: 6.00 Build 43363)  -->
<!DOCTYPE svg PUBLIC "-//W3C//DTD SVG 1.1//EN" "http://www.w3.org/Graphics/SVG/1.1/DTD/svg11.dtd">
<svg version="1.1" id="Layer_1" xmlns="http://www.w3.org/2000/svg" xmlns:xlink="http://www.w3.org/1999/xlink" x="0px" y="0px"
	 width="181px" height="150px" viewBox="0 0 181 150" enable-background="new 0 0 181 150" xml:space="preserve">
<g id="Layer_1_1_">
	<g>
		<path fill="#C5B358" d="M128.757,52.844c0.438,1.008-0.103,1.833-1.2,1.833h-74.14c-1.1,0-1.62-0.816-1.155-1.812L64.451,26.7
			c0.465-0.997,1.745-1.813,2.845-1.813h47.283c1.101,0,2.358,0.825,2.799,1.833L128.757,52.844z"/>
	</g>
	<g>
		<path fill="#C5B358" d="M6.66,43.691c0-2.15,1.821-3.909,4.046-3.909h159.588c2.226,0,4.046,1.759,4.046,3.909v79.566
			c0,2.149-1.82,3.909-4.046,3.909H10.706c-2.225,0-4.046-1.76-4.046-3.909V43.691z"/>
	</g>
	<circle fill="#222222" cx="90.5" cy="84.02" r="39.535"/>
	<rect x="6.66" y="52.833" fill="#1A1A1A" width="167.68" height="59.062"/>
	<g>
		<g>
			<circle cx="90.5" cy="84.02" r="36.406"/>
		</g>
	</g>
	<g>
		<g>
			<circle cx="90.5" cy="84.02" r="32.239"/>
		</g>
	</g>
	<g>
		<g>
			<circle fill="#C5B358" cx="90.5" cy="83.476" r="1.585"/>
		</g>
	</g>
</g>
</svg>
