<?xml version="1.0" encoding="utf-8"?>
<!-- Generator: Adobe Illustrator 14.0.0, SVG Export Plug-In . SVG Version: 6.00 Build 43363)  -->
<!DOCTYPE svg PUBLIC "-//W3C//DTD SVG 1.1//EN" "http://www.w3.org/Graphics/SVG/1.1/DTD/svg11.dtd">
<svg version="1.1" id="Layer_1" xmlns="http://www.w3.org/2000/svg" xmlns:xlink="http://www.w3.org/1999/xlink" x="0px" y="0px"
	 width="68px" height="150px" viewBox="0 0 68 150" enable-background="new 0 0 68 150" xml:space="preserve">
<path fill="#E5F3CE" stroke="#000000" stroke-width="1.5" d="M6.254,60.907c0-17.397,12.423-31.5,27.746-31.5
	c15.322,0,27.746,14.103,27.746,31.5C61.746,78.303,34,128.25,34,128.25S6.254,78.303,6.254,60.907z"/>
<g>
	<g>
		<path d="M36.795,74.333c1.1,0,2.128,0.891,2.285,1.979l2.395,16.636c0.157,1.089-0.184,2.747-0.756,3.688l-5.678,9.312
			c-0.573,0.938-1.509,0.938-2.082,0l-5.677-9.312c-0.573-0.938-0.913-2.599-0.756-3.688l2.394-16.636
			c0.157-1.088,1.185-1.979,2.285-1.979H36.795z"/>
	</g>
	<g>
		<path fill="#333333" d="M33.832,76.471c0-1.1-0.9-2-2-2h-0.628c-1.1,0-2.128,0.891-2.285,1.98l-2.394,16.635
			c-0.156,1.089,0.184,2.748,0.756,3.688l5.509,9.037c0.573,0.939,1.041,0.809,1.041-0.291L33.832,76.471L33.832,76.471z"/>
	</g>
	<circle cx="34" cy="107.741" r="1.088"/>
	<circle fill="#E5F3CE" cx="34" cy="90.67" r="1.629"/>
	<line fill="none" stroke="#E5F3CE" stroke-width="0.5" x1="34" y1="90.67" x2="34" y2="111.559"/>
	<g>
		<path d="M37.102,52.276c1.1,0,2.104,0.894,2.229,1.987l2.693,23.366c0.125,1.094-0.672,1.987-1.771,1.987H27.747
			c-1.1,0-1.897-0.896-1.771-1.987l2.694-23.366c0.126-1.093,1.129-1.987,2.229-1.987H37.102z"/>
	</g>
	<polygon points="39.883,58.903 28.118,58.903 28.118,30.407 34,29.407 39.883,30.407 	"/>
</g>
</svg>
