<?xml version="1.0" encoding="utf-8"?>
<!-- Generator: Adobe Illustrator 14.0.0, SVG Export Plug-In . SVG Version: 6.00 Build 43363)  -->
<!DOCTYPE svg PUBLIC "-//W3C//DTD SVG 1.1//EN" "http://www.w3.org/Graphics/SVG/1.1/DTD/svg11.dtd">
<svg version="1.1" id="Layer_1" xmlns="http://www.w3.org/2000/svg" xmlns:xlink="http://www.w3.org/1999/xlink" x="0px" y="0px"
	 width="68px" height="150px" viewBox="0 0 68 150" enable-background="new 0 0 68 150" xml:space="preserve">
<path fill="#1B1464" stroke="#1B1464" d="M6.254,60.907c0-17.397,12.423-31.5,27.746-31.5c15.322,0,27.746,14.103,27.746,31.5
	C61.746,78.303,34,128.25,34,128.25S6.254,78.303,6.254,60.907z"/>
<g>
	<g>
		<g>
			<circle fill="#1B1464" cx="34.044" cy="56.748" r="11.632"/>
			<circle fill="#1B1464" cx="34.044" cy="56.749" r="5.236"/>
			<path fill="#1B1464" d="M22.92,70.804"/>
			<circle fill="#1B1464" cx="34.18" cy="56.687" r="11.632"/>
			<circle fill="#1B1464" cx="34.044" cy="56.749" r="9.794"/>
			<path fill="#1B1464" d="M23.059,42.631"/>
		</g>
	</g>
	<g>
		<path fill="#FFFFFF" d="M33.94,49.519c0.035,0,0.081,0,0.125,0c0.474,1.581,0.938,3.173,1.431,4.74c1.578,0,3.154,0,4.736,0
			c0,0.039,0,0.083,0,0.125c-1.322,0.927-2.576,1.91-3.81,2.927c0.438,1.582,0.986,3.052,1.377,4.675c-0.045,0-0.088,0-0.131,0
			c-1.168-0.977-2.401-1.873-3.611-2.806c-1.326,0.855-2.51,1.855-3.736,2.806c-0.039,0-0.082,0-0.123,0
			c0.438-1.596,0.932-3.139,1.429-4.675c-1.256-1.024-2.575-1.994-3.862-2.993c0-0.021,0-0.039,0-0.059c1.58,0,3.16,0,4.735,0
			C33.007,52.704,33.509,51.151,33.94,49.519z"/>
	</g>
	<circle fill="none" stroke="#FF0000" stroke-width="2.75" cx="34" cy="56.776" r="15.15"/>
	<circle fill="none" stroke="#FFFFFF" stroke-width="2.55" cx="34" cy="56.885" r="12.55"/>
	<circle fill="none" stroke="#FFFFFF" stroke-width="2.55" cx="34" cy="56.775" r="17.604"/>
</g>
</svg>
