<?xml version="1.0" encoding="UTF-8"?>
<svg width="2080px" height="1916px" viewBox="0 0 2080 1916" version="1.1" xmlns="http://www.w3.org/2000/svg" xmlns:xlink="http://www.w3.org/1999/xlink">
    <!-- Generator: Sketch 46.2 (44496) - http://www.bohemiancoding.com/sketch -->
    <title>acura</title>
    <desc>Created with Sketch.</desc>
    <defs></defs>
    <g id="Page-1" stroke="none" stroke-width="1" fill="none" fill-rule="evenodd">
        <g id="acura" fill-rule="nonzero">
            <path d="M278.117,735.113 C278.117,63.175 775.845,0.972 1049.585,0.972 C1323.338,0.972 1821.078,63.188 1821.078,735.113 C1821.078,1390.463 1315.05,1473.417 1049.585,1473.417 C788.296,1473.417 278.117,1390.463 278.117,735.113 Z M1339.938,710.225 L1422.893,1332.384 C1468.521,1307.495 1717.372,1187.227 1713.247,735.101 C1713.247,204.183 1389.717,63.163 1111.826,63.163 L1339.938,710.225 L1339.938,710.225 Z M1049.585,585.792 L1086.925,585.792 L1086.925,63.176 L1016.421,63.176 L1016.421,585.792 L1049.585,585.792 Z M1049.585,1411.201 C1203.068,1411.201 1339.939,1369.723 1398.018,1340.684 L1095.2,681.198 L1003.971,681.198 L701.179,1340.684 C759.256,1369.711 896.126,1411.201 1049.585,1411.201 Z M987.382,63.176 C709.479,63.176 385.947,204.196 385.947,735.114 C381.797,1187.227 630.674,1307.509 676.301,1332.397 L763.405,710.238 L987.382,63.176 L987.382,63.176 Z" id="Shape" fill="#A6A8AA"></path>
            <path d="M184.41,1610.909 L266.003,1610.909 L449.552,1914.804 L362.875,1914.804 L224.188,1685.357 L151.778,1806.702 L270.076,1806.702 L304.744,1863.807 L117.11,1863.807 L86.514,1914.805 L0.862,1914.805 L184.41,1610.909 L184.41,1610.909 Z M1813.996,1610.909 L1896.601,1610.909 L2079.137,1914.804 L1992.447,1914.804 L1854.799,1685.357 L1781.364,1806.702 L1899.662,1806.702 L1934.343,1863.807 L1747.721,1863.807 L1716.101,1914.805 L1630.436,1914.805 L1813.996,1610.909 L1813.996,1610.909 Z M1013.477,1915.815 L1081.802,1915.815 C1161.345,1914.803 1192.952,1870.953 1192.952,1799.568 L1192.952,1610.909 L1118.506,1610.909 L1118.506,1812.809 C1118.506,1850.551 1092.009,1855.648 1067.509,1856.66 L960.444,1856.66 C935.97,1855.648 909.46,1850.552 909.46,1812.809 L909.46,1610.909 L834.002,1610.909 L834.002,1799.568 C834.002,1870.953 866.634,1914.803 946.178,1915.815 L1013.477,1915.815 L1013.477,1915.815 Z M519.912,1762.851 L519.912,1725.122 C520.936,1699.637 526.034,1673.113 561.726,1674.138 L791.174,1674.138 L791.174,1610.91 L560.702,1610.91 C489.33,1610.91 445.466,1643.542 444.441,1723.073 L444.441,1803.641 C445.465,1883.184 489.316,1914.791 560.702,1914.791 L791.175,1914.791 L791.175,1852.575 L561.727,1852.575 C526.035,1852.575 520.938,1827.09 519.913,1801.578 L519.913,1762.851 L519.912,1762.851 Z M1316.359,1914.804 L1241.913,1914.804 L1241.913,1610.909 L1520.335,1610.909 C1617.206,1610.909 1641.667,1739.401 1574.367,1784.263 C1603.926,1795.482 1608.037,1832.186 1610.06,1844.429 L1612.109,1914.803 L1538.673,1914.803 L1536.65,1852.587 C1534.601,1826.077 1517.274,1807.725 1490.751,1807.725 L1348.991,1807.725 L1334.724,1744.497 L1498.896,1744.497 C1524.408,1744.497 1538.661,1733.278 1538.661,1710.841 C1538.661,1689.428 1524.394,1676.173 1498.896,1676.173 L1316.359,1676.173 L1316.359,1914.804 L1316.359,1914.804 Z" id="Shape" fill="#072F5E"></path>
        </g>
    </g>
</svg>