<?xml version="1.0" encoding="utf-8"?>
<!-- Generator: Adobe Illustrator 14.0.0, SVG Export Plug-In . SVG Version: 6.00 Build 43363)  -->
<!DOCTYPE svg PUBLIC "-//W3C//DTD SVG 1.1//EN" "http://www.w3.org/Graphics/SVG/1.1/DTD/svg11.dtd">
<svg version="1.1" id="Layer_1" xmlns="http://www.w3.org/2000/svg" xmlns:xlink="http://www.w3.org/1999/xlink" x="0px" y="0px"
	 width="2500px" height="2500px" viewBox="0 0 2500 2500" enable-background="new 0 0 2500 2500" xml:space="preserve">
<g>
	<path fill="#FFFFFF" d="M0,0h2500v2500H0V0z"/>
	<path fill="#A6A8AA" d="M488.117,989.113c0-671.938,497.728-734.141,771.468-734.141c273.753,0,771.493,62.216,771.493,734.141
		c0,655.35-506.028,738.304-771.493,738.304C998.296,1727.417,488.117,1644.463,488.117,989.113z M1549.938,964.225l82.955,622.159
		c45.628-24.889,294.479-145.157,290.354-597.283c0-530.918-323.53-671.938-601.421-671.938L1549.938,964.225L1549.938,964.225z
		 M1259.585,839.792h37.34V317.176h-70.504v522.616H1259.585z M1259.585,1665.201c153.483,0,290.354-41.478,348.433-70.517
		l-302.818-659.486h-91.229l-302.792,659.486C969.256,1623.711,1106.126,1665.201,1259.585,1665.201z M1197.382,317.176
		c-277.903,0-601.435,141.02-601.435,671.938c-4.15,452.113,244.727,572.395,290.354,597.283l87.104-622.159L1197.382,317.176
		L1197.382,317.176z"/>
	<path fill="#072F5E" d="M394.41,1864.909h81.593l183.549,303.895h-86.677l-138.687-229.447l-72.41,121.345h118.298l34.668,57.105
		H327.11l-30.596,50.998h-85.652L394.41,1864.909L394.41,1864.909z M2023.996,1864.909h82.605l182.536,303.895h-86.69
		l-137.648-229.447l-73.435,121.345h118.298l34.681,57.105h-186.622l-31.62,50.998h-85.665L2023.996,1864.909L2023.996,1864.909z
		 M1223.477,2169.815h68.325c79.543-1.012,111.15-44.862,111.15-116.247v-188.659h-74.446v201.9
		c0,37.742-26.497,42.839-50.997,43.851h-107.065c-24.474-1.012-50.984-6.108-50.984-43.851v-201.9h-75.458v188.659
		c0,71.385,32.632,115.235,112.176,116.247H1223.477L1223.477,2169.815z M729.912,2016.851v-37.729
		c1.024-25.485,6.122-52.009,41.814-50.984h229.448v-63.228H770.702c-71.372,0-115.236,32.632-116.261,112.163v80.568
		c1.024,79.543,44.875,111.15,116.261,111.15h230.473v-62.216H771.727c-35.692,0-40.789-25.485-41.814-50.997V2016.851z
		 M1526.359,2168.804h-74.446v-303.895h278.422c96.871,0,121.332,128.492,54.032,173.354c29.559,11.219,33.67,47.923,35.693,60.166
		l2.049,70.374h-73.436l-2.023-62.216c-2.049-26.51-19.376-44.862-45.899-44.862h-141.76l-14.267-63.228h164.172
		c25.512,0,39.765-11.219,39.765-33.656c0-21.413-14.267-34.668-39.765-34.668h-182.537V2168.804L1526.359,2168.804z"/>
</g>
</svg>
