<?xml version="1.0" encoding="UTF-8"?>
<svg width="100px" height="100px" viewBox="0 0 100 100" version="1.1" xmlns="http://www.w3.org/2000/svg" xmlns:xlink="http://www.w3.org/1999/xlink">
    <!-- Generator: Sketch 46.2 (44496) - http://www.bohemiancoding.com/sketch -->
    <title>apple</title>
    <desc>Created with Sketch.</desc>
    <defs></defs>
    <g id="Page-1" stroke="none" stroke-width="1" fill="none" fill-rule="evenodd">
        <g id="apple" fill-rule="nonzero" fill="#000000">
            <g id="apple-black" transform="translate(11.000000, 5.000000)">
                <path d="M61.8025419,46.7516332 C61.9302546,60.0689717 73.8677435,64.5005946 74,64.5570053 C73.8990631,64.8693858 72.0925852,70.8723389 67.7107567,77.0729654 C63.922703,82.433873 59.9915203,87.7748246 53.7985077,87.8854463 C47.7132478,87.9940252 45.7565005,84.3914363 38.7993212,84.3914363 C31.8442516,84.3914363 29.6702142,87.7749818 23.9098346,87.9941824 C17.9320026,88.2133829 13.3797822,82.1973878 9.56057124,76.8561218 C1.75613891,65.9306623 -4.20806173,45.9834098 3.80035395,32.5186805 C7.7787596,25.8320415 14.8884801,21.5977778 22.6054447,21.4891989 C28.4755241,21.3807771 34.0160171,25.3131883 37.6046311,25.3131883 C41.1909733,25.3131883 47.9238845,20.5841126 55.0021231,21.2786406 C57.9653181,21.3980617 66.2831977,22.4376538 71.6240889,30.0076947 C71.1937278,30.2660214 61.6993332,35.6179724 61.8025419,46.7516332 M50.366005,14.0505212 C53.5396744,10.330711 55.6757388,5.15239204 55.0929988,0 C50.518384,0.178031723 44.986654,2.95174396 41.7053944,6.66951144 C38.764756,9.96176268 36.1894053,15.2312188 36.8842794,20.2816315 C41.9832142,20.6636219 47.1921733,17.7726885 50.366005,14.0505212" id="Shape"></path>
            </g>
        </g>
    </g>
</svg>