<?xml version="1.0" encoding="UTF-8"?>
<svg width="443px" height="689px" viewBox="0 0 443 689" version="1.1" xmlns="http://www.w3.org/2000/svg" xmlns:xlink="http://www.w3.org/1999/xlink">
    <!-- Generator: Sketch 42 (36781) - http://www.bohemiancoding.com/sketch -->
    <title>crest2</title>
    <desc>Created with Sketch.</desc>
    <defs></defs>
    <g id="Page-1" stroke="none" stroke-width="1" fill="none" fill-rule="evenodd">
        <g id="crest2" transform="translate(0.000000, -15.000000)">
            <g id="Page-1">
                <g id="Clipped">
                    <g id="Group">
                        <polygon id="Shape" fill-opacity="0" fill="#000000" fill-rule="nonzero" points="0 0 441.041633 0 441.041633 720 0 720"></polygon>
                        <path d="M17.9054224,85.20273 L17.9054224,363.40743 L17.9054224,363.40743 C17.9054224,517.05565 108.368749,641.61217 219.960972,641.61217 C331.553165,641.61217 422.016552,517.05565 422.016552,363.40743 L422.016552,85.20273 L17.9054224,85.20273 Z" id="Shape" fill="#F3F3F3" fill-rule="nonzero"></path>
                        <polygon id="Shape" fill="#993333" fill-rule="nonzero" points="17.9044502 85.2021 422.014597 85.2021 219.959504 204.96312"></polygon>
                        <polygon id="Shape" fill="#993333" fill-rule="nonzero" points="62.2467411 148.59827 66.9668239 148.59827 66.9668239 504.2518 62.2467411 504.2518"></polygon>
                        <polygon id="Shape" fill="#036338" fill-rule="nonzero" points="64.6097248 148.59848 84.821241 175.212646 71.347018 175.212646 64.6097248 166.341079 57.8724016 175.212646 44.3981786 175.212646"></polygon>
                        <polygon id="Shape" fill="#036338" fill-rule="nonzero" points="64.6097248 220.35176 84.821241 246.965926 71.347018 246.965926 64.6097248 238.094359 57.8724016 246.965926 44.3981786 246.965926"></polygon>
                        <polygon id="Shape" fill="#036338" fill-rule="nonzero" points="64.6097248 178.09717 84.821241 204.711336 71.347018 204.711336 64.6097248 195.839769 57.8724016 204.711336 44.3981786 204.711336"></polygon>
                        <polygon id="Shape" fill="#036338" fill-rule="nonzero" points="64.6097248 165.41475 84.821241 192.028916 71.347018 192.028916 64.6097248 183.157349 57.8724016 192.028916 44.3981786 192.028916"></polygon>
                        <polygon id="Shape" fill="#036338" fill-rule="nonzero" points="64.6097248 135.91605 84.80895 162.52219 71.342931 162.52219 64.6097253 153.653309 57.8765193 162.52219 44.4104705 162.52219"></polygon>
                        <polygon id="Shape" fill="#036338" fill-rule="nonzero" points="64.6097248 207.59848 84.821241 234.212646 71.347018 234.212646 64.6097248 225.341079 57.8724016 234.212646 44.3981786 234.212646"></polygon>
                        <polygon id="Shape" fill="#036338" fill-rule="nonzero" points="64.6097248 306.8268 84.821241 333.440997 71.347018 333.440997 64.6097248 324.569415 57.8724016 333.440997 44.3981786 333.440997"></polygon>
                        <polygon id="Shape" fill="#036338" fill-rule="nonzero" points="64.6097248 255.14441 84.821241 281.758576 71.347018 281.758576 64.6097248 272.887024 57.8724016 281.758576 44.3981786 281.758576"></polygon>
                        <polygon id="Shape" fill="#036338" fill-rule="nonzero" points="64.6097248 242.46199 84.821241 269.076172 71.347018 269.076172 64.6097248 260.20459 57.8724016 269.076172 44.3981786 269.076172"></polygon>
                        <polygon id="Shape" fill="#036338" fill-rule="nonzero" points="64.6097248 271.96332 84.821241 298.577486 71.347018 298.577486 64.6097248 289.705904 57.8724016 298.577486 44.3981786 298.577486"></polygon>
                        <polygon id="Shape" fill="#036338" fill-rule="nonzero" points="64.6097248 284.64572 84.821241 311.259886 71.347018 311.259886 64.6097248 302.388334 57.8724016 311.259886 44.3981786 311.259886"></polygon>
                        <polygon id="Shape" fill="#993333" fill-rule="nonzero" points="139.928614 205.94987 144.648667 205.94987 144.648667 561.60337 139.928614 561.60337"></polygon>
                        <polygon id="Shape" fill="#036338" fill-rule="nonzero" points="142.291618 205.95009 162.503134 232.564256 149.028911 232.564256 142.291618 223.692689 135.554295 232.564256 122.080072 232.564256"></polygon>
                        <polygon id="Shape" fill="#036338" fill-rule="nonzero" points="142.291618 277.70337 162.503134 304.317536 149.028911 304.317536 142.291618 295.445954 135.554295 304.317536 122.080072 304.317536"></polygon>
                        <polygon id="Shape" fill="#036338" fill-rule="nonzero" points="142.291618 235.44878 162.503134 262.062962 149.028911 262.062962 142.291618 253.19138 135.554295 262.062962 122.080072 262.062962"></polygon>
                        <polygon id="Shape" fill="#036338" fill-rule="nonzero" points="142.291618 222.76636 162.503134 249.380526 149.028911 249.380526 142.291618 240.508959 135.554295 249.380526 122.080072 249.380526"></polygon>
                        <polygon id="Shape" fill="#036338" fill-rule="nonzero" points="142.291618 193.26765 162.503134 219.881832 149.028911 219.881832 142.291618 211.010265 135.554295 219.881832 122.080072 219.881832"></polygon>
                        <polygon id="Shape" fill="#036338" fill-rule="nonzero" points="142.291618 264.95007 162.503134 291.564267 149.028911 291.564267 142.291618 282.692685 135.554295 291.564267 122.080072 291.564267"></polygon>
                        <polygon id="Shape" fill="#036338" fill-rule="nonzero" points="142.291618 364.17844 162.503134 390.792606 149.028911 390.792606 142.291618 381.921024 135.554295 390.792606 122.080072 390.792606"></polygon>
                        <polygon id="Shape" fill="#036338" fill-rule="nonzero" points="142.291618 312.496 162.503134 339.110197 149.028911 339.110197 142.291618 330.238615 135.554295 339.110197 122.080072 339.110197"></polygon>
                        <polygon id="Shape" fill="#036338" fill-rule="nonzero" points="142.291618 299.8136 162.503134 326.427766 149.028911 326.427766 142.291618 317.556215 135.554295 326.427766 122.080072 326.427766"></polygon>
                        <polygon id="Shape" fill="#036338" fill-rule="nonzero" points="142.291618 329.3149 162.503134 355.929066 149.028911 355.929066 142.291618 347.057515 135.554295 355.929066 122.080072 355.929066"></polygon>
                        <polygon id="Shape" fill="#036338" fill-rule="nonzero" points="142.291618 341.9973 162.503134 368.611497 149.028911 368.611497 142.291618 359.739915 135.554295 368.611497 122.080072 368.611497"></polygon>
                        <polygon id="Shape" fill="#993333" fill-rule="nonzero" points="217.610508 269.24643 222.33056 269.24643 222.33056 624.89996 217.610508 624.89996"></polygon>
                        <polygon id="Shape" fill="#036338" fill-rule="nonzero" points="219.973471 269.2466 240.185017 295.860797 226.710794 295.860797 219.973471 286.989215 213.236178 295.860797 199.761955 295.860797"></polygon>
                        <polygon id="Shape" fill="#036338" fill-rule="nonzero" points="219.973471 340.9999 240.185017 367.614066 226.710794 367.614066 219.973471 358.742515 213.236178 367.614066 199.761955 367.614066"></polygon>
                        <polygon id="Shape" fill="#036338" fill-rule="nonzero" points="219.973471 298.7453 240.185017 325.359497 226.710794 325.359497 219.973471 316.487915 213.236178 325.359497 199.761955 325.359497"></polygon>
                        <polygon id="Shape" fill="#036338" fill-rule="nonzero" points="219.973471 286.0629 240.185017 312.677066 226.710794 312.677066 219.973471 303.805515 213.236178 312.677066 199.761955 312.677066"></polygon>
                        <polygon id="Shape" fill="#036338" fill-rule="nonzero" points="219.973471 256.5642 240.185017 283.178366 226.710794 283.178366 219.973471 274.306784 213.236178 283.178366 199.761955 283.178366"></polygon>
                        <polygon id="Shape" fill="#036338" fill-rule="nonzero" points="219.973471 328.2466 240.185017 354.860797 226.710794 354.860797 219.973471 345.989215 213.236178 354.860797 199.761955 354.860797"></polygon>
                        <polygon id="Shape" fill="#036338" fill-rule="nonzero" points="219.973471 427.47498 240.185017 454.089146 226.710794 454.089146 219.973471 445.217595 213.236178 454.089146 199.761955 454.089146"></polygon>
                        <polygon id="Shape" fill="#036338" fill-rule="nonzero" points="219.973471 375.79254 240.185017 402.406737 226.710794 402.406737 219.973471 393.535155 213.236178 402.406737 199.761955 402.406737"></polygon>
                        <polygon id="Shape" fill="#036338" fill-rule="nonzero" points="219.973471 363.11014 240.185017 389.724306 226.710794 389.724306 219.973471 380.852755 213.236178 389.724306 199.761955 389.724306"></polygon>
                        <polygon id="Shape" fill="#036338" fill-rule="nonzero" points="219.973471 392.61145 240.185017 419.225616 226.710794 419.225616 219.973471 410.354064 213.236178 419.225616 199.761955 419.225616"></polygon>
                        <polygon id="Shape" fill="#036338" fill-rule="nonzero" points="219.973471 405.29385 240.185017 431.908047 226.710794 431.908047 219.973471 423.036465 213.236178 431.908047 199.761955 431.908047"></polygon>
                        <polygon id="Shape" fill="#993333" fill-rule="nonzero" points="300.85517 217.64542 305.575222 217.64542 305.575222 573.29895 300.85517 573.29895"></polygon>
                        <polygon id="Shape" fill="#036338" fill-rule="nonzero" points="303.218133 217.64561 323.429649 244.259792 309.955426 244.259792 303.218133 235.388225 296.48078 244.259792 283.006557 244.259792"></polygon>
                        <polygon id="Shape" fill="#036338" fill-rule="nonzero" points="303.218133 289.3989 323.429649 316.013066 309.955426 316.013066 303.218133 307.141515 296.48078 316.013066 283.006557 316.013066"></polygon>
                        <polygon id="Shape" fill="#036338" fill-rule="nonzero" points="303.218133 247.1443 323.429649 273.758482 309.955426 273.758482 303.218133 264.8869 296.48078 273.758482 283.006557 273.758482"></polygon>
                        <polygon id="Shape" fill="#036338" fill-rule="nonzero" points="303.218133 234.4619 323.429649 261.076082 309.955426 261.076082 303.218133 252.2045 296.48078 261.076082 283.006557 261.076082"></polygon>
                        <polygon id="Shape" fill="#036338" fill-rule="nonzero" points="303.218133 204.9632 323.429649 231.577366 309.955426 231.577366 303.218133 222.705799 296.48078 231.577366 283.006557 231.577366"></polygon>
                        <polygon id="Shape" fill="#036338" fill-rule="nonzero" points="303.218133 276.64563 323.429649 303.259796 309.955426 303.259796 303.218133 294.388214 296.48078 303.259796 283.006557 303.259796"></polygon>
                        <polygon id="Shape" fill="#036338" fill-rule="nonzero" points="303.218133 375.87396 323.429649 402.488126 309.955426 402.488126 303.218133 393.616575 296.48078 402.488126 283.006557 402.488126"></polygon>
                        <polygon id="Shape" fill="#036338" fill-rule="nonzero" points="303.218133 324.19156 323.429649 350.805726 309.955426 350.805726 303.218133 341.934144 296.48078 350.805726 283.006557 350.805726"></polygon>
                        <polygon id="Shape" fill="#036338" fill-rule="nonzero" points="303.218133 311.50912 323.429649 338.123317 309.955426 338.123317 303.218133 329.251735 296.48078 338.123317 283.006557 338.123317"></polygon>
                        <polygon id="Shape" fill="#036338" fill-rule="nonzero" points="303.218133 341.01044 323.429649 367.624637 309.955426 367.624637 303.218133 358.753055 296.48078 367.624637 283.006557 367.624637"></polygon>
                        <polygon id="Shape" fill="#036338" fill-rule="nonzero" points="303.218133 353.69287 323.429649 380.307036 309.955426 380.307036 303.218133 371.435454 296.48078 380.307036 283.006557 380.307036"></polygon>
                        <polygon id="Shape" fill="#993333" fill-rule="nonzero" points="372.974214 148.59827 377.694267 148.59827 377.694267 504.2518 372.974214 504.2518"></polygon>
                        <polygon id="Shape" fill="#036338" fill-rule="nonzero" points="375.337208 148.59848 395.548784 175.212646 382.074562 175.212646 375.337208 166.341079 368.599915 175.212646 355.125692 175.212646"></polygon>
                        <polygon id="Shape" fill="#036338" fill-rule="nonzero" points="375.337208 220.35176 395.548784 246.965926 382.074562 246.965926 375.337208 238.094359 368.599915 246.965926 355.125692 246.965926"></polygon>
                        <polygon id="Shape" fill="#036338" fill-rule="nonzero" points="375.337208 178.09717 395.548784 204.711336 382.074562 204.711336 375.337208 195.839769 368.599915 204.711336 355.125692 204.711336"></polygon>
                        <polygon id="Shape" fill="#036338" fill-rule="nonzero" points="375.337208 165.41475 395.548784 192.028916 382.074562 192.028916 375.337208 183.157349 368.599915 192.028916 355.125692 192.028916"></polygon>
                        <polygon id="Shape" fill="#036338" fill-rule="nonzero" points="375.337208 135.91605 395.548784 162.530232 382.074562 162.530232 375.337208 153.658665 368.599915 162.530232 355.125692 162.530232"></polygon>
                        <polygon id="Shape" fill="#036338" fill-rule="nonzero" points="375.337208 207.59848 395.548784 234.212646 382.074562 234.212646 375.337208 225.341079 368.599915 234.212646 355.125692 234.212646"></polygon>
                        <polygon id="Shape" fill="#036338" fill-rule="nonzero" points="375.337208 306.8268 395.548784 333.440997 382.074562 333.440997 375.337208 324.569415 368.599915 333.440997 355.125692 333.440997"></polygon>
                        <polygon id="Shape" fill="#036338" fill-rule="nonzero" points="375.337208 255.14441 395.548784 281.758576 382.074562 281.758576 375.337208 272.887024 368.599915 281.758576 355.125692 281.758576"></polygon>
                        <polygon id="Shape" fill="#036338" fill-rule="nonzero" points="375.337208 242.46199 395.548784 269.076172 382.074562 269.076172 375.337208 260.20459 368.599915 269.076172 355.125692 269.076172"></polygon>
                        <polygon id="Shape" fill="#036338" fill-rule="nonzero" points="375.337208 271.96332 395.548784 298.577486 382.074562 298.577486 375.337208 289.705904 368.599915 298.577486 355.125692 298.577486"></polygon>
                        <polygon id="Shape" fill="#036338" fill-rule="nonzero" points="375.337208 284.64572 395.548784 311.259886 382.074562 311.259886 375.337208 302.388334 368.599915 311.259886 355.125692 311.259886"></polygon>
                        <path d="M1.8772122,16 C57.0074204,18.572834 112.137622,20.1808554 167.267817,20.8240643 L112.137615,25.004921 C185.644571,26.7201437 259.151513,26.7201437 332.658442,25.004921 L277.52821,20.8240643 C332.658438,20.1808555 387.78865,18.572834 442.918845,16 L387.788613,33.68824 L442.918845,46.874016 C406.165357,48.5892387 369.411889,49.8756563 332.658442,50.733269 L332.658442,55.878937 C259.151506,57.5941597 185.644564,57.5941597 112.137615,55.878937 L112.137615,50.733269 C75.384148,49.8756564 38.6306799,48.5892387 1.8772122,46.874016 L57.0074138,33.68824 L1.8772122,16 Z" id="Shape" fill="#993333" fill-rule="nonzero"></path>
                        <path d="M167.267807,25.969734 C204.021295,26.3985403 240.774762,26.3985403 277.52821,25.969734 L277.52821,20.824064 L332.658442,25.0049207 C259.151506,26.7201434 185.644564,26.7201434 112.137615,25.0049207 L167.267817,20.824064 L167.267807,25.969734 Z" id="Shape" fill="#7A2828" fill-rule="nonzero"></path>
                        <path d="M1.8772122,16 C57.0074204,18.572834 112.137622,20.1808554 167.267817,20.8240643 L112.137615,25.004921 C185.644571,26.7201437 259.151513,26.7201437 332.658442,25.004921 L277.52821,20.8240643 C332.658438,20.1808555 387.78865,18.572834 442.918845,16 L387.788613,33.68824 L442.918845,46.874016 C406.165357,48.5892387 369.411889,49.8756563 332.658442,50.733269 L332.658442,55.878937 C259.151506,57.5941597 185.644564,57.5941597 112.137615,55.878937 L112.137615,50.733269 C75.384148,49.8756564 38.6306799,48.5892387 1.8772122,46.874016 L57.0074138,33.68824 L1.8772122,16 Z M112.137615,50.73327 L112.137615,25.004922 L112.137615,50.73327 Z M332.658442,25.004922 L332.658442,50.73327 L332.658442,25.004922 Z M167.267807,20.824066 L167.267807,25.969736 L167.267807,20.824066 Z M277.52821,25.969736 L277.52821,20.824066 L277.52821,25.969736 Z" id="Shape" fill-opacity="0" fill="#000000" fill-rule="nonzero"></path>
                        <path d="M1.8772122,16 C57.0074204,18.572834 112.137622,20.1808554 167.267817,20.8240643 L112.137615,25.004921 C185.644571,26.7201437 259.151513,26.7201437 332.658442,25.004921 L277.52821,20.8240643 C332.658438,20.1808555 387.78865,18.572834 442.918845,16 L387.788613,33.68824 L442.918845,46.874016 C406.165357,48.5892387 369.411889,49.8756563 332.658442,50.733269 L332.658442,55.878937 C259.151506,57.5941597 185.644564,57.5941597 112.137615,55.878937 L112.137615,50.733269 C75.384148,49.8756564 38.6306799,48.5892387 1.8772122,46.874016 L57.0074138,33.68824 L1.8772122,16 Z M112.137615,50.73327 L112.137615,25.004922 L112.137615,50.73327 Z M332.658442,25.004922 L332.658442,50.73327 L332.658442,25.004922 Z M167.267807,20.824066 L167.267807,25.969736 L167.267807,20.824066 Z M277.52821,25.969736 L277.52821,20.824066 L277.52821,25.969736 Z" id="Shape" stroke="#993333" stroke-linejoin="round"></path>
                        <path d="M0.4233568,702.72705 C55.553565,700.154215 110.683777,698.546182 165.813991,697.902953 L110.68379,693.722106 C184.190725,692.006896 257.697661,692.006896 331.204596,693.722106 L276.074426,697.902953 C331.204615,698.546182 386.334806,700.154215 441.465001,702.72705 L386.334831,685.038818 L441.465001,671.853027 C404.711555,670.137817 367.958087,668.851399 331.204598,667.993774 L331.204598,662.848083 C257.697663,661.132873 184.190727,661.132873 110.683792,662.848083 L110.683792,667.993774 C73.930324,668.851399 37.1768464,670.137817 0.4233588,671.853027 L55.5535901,685.038818 L0.4233568,702.72705 Z" id="Shape" fill="#993333" fill-rule="nonzero"></path>
                        <path d="M165.813991,692.7573 C202.567459,692.328467 239.320937,692.328467 276.074424,692.7573 L276.074424,697.90293 L331.204594,693.722083 C257.697659,692.006873 184.190723,692.006873 110.683788,693.722083 L165.813989,697.90293 L165.813991,692.7573 Z" id="Shape" fill="#7A2828" fill-rule="nonzero"></path>
                        <path d="M0.4233568,702.72705 C55.553565,700.154215 110.683777,698.546182 165.813991,697.902953 L110.68379,693.722106 C184.190725,692.006896 257.697661,692.006896 331.204596,693.722106 L276.074426,697.902953 C331.204615,698.546182 386.334806,700.154215 441.465001,702.72705 L386.334831,685.038818 L441.465001,671.853027 C404.711555,670.137817 367.958087,668.851399 331.204598,667.993774 L331.204598,662.848083 C257.697663,661.132873 184.190727,661.132873 110.683792,662.848083 L110.683792,667.993774 C73.930324,668.851399 37.1768464,670.137817 0.4233588,671.853027 L55.5535901,685.038818 L0.4233568,702.72705 Z M110.68379,667.993774 L110.68379,693.722107 L110.68379,667.993774 Z M331.204596,693.722107 L331.204596,667.993774 L331.204596,693.722107 Z M165.813991,697.902954 L165.813991,692.757324 L165.813991,697.902954 Z M276.074424,692.757324 L276.074424,697.902954 L276.074424,692.757324 Z" id="Shape" fill-opacity="0" fill="#000000" fill-rule="nonzero"></path>
                        <path d="M0.4233568,702.72705 C55.553565,700.154215 110.683777,698.546182 165.813991,697.902953 L110.68379,693.722106 C184.190725,692.006896 257.697661,692.006896 331.204596,693.722106 L276.074426,697.902953 C331.204615,698.546182 386.334806,700.154215 441.465001,702.72705 L386.334831,685.038818 L441.465001,671.853027 C404.711555,670.137817 367.958087,668.851399 331.204598,667.993774 L331.204598,662.848083 C257.697663,661.132873 184.190727,661.132873 110.683792,662.848083 L110.683792,667.993774 C73.930324,668.851399 37.1768464,670.137817 0.4233588,671.853027 L55.5535901,685.038818 L0.4233568,702.72705 Z M110.68379,667.993774 L110.68379,693.722107 L110.68379,667.993774 Z M331.204596,693.722107 L331.204596,667.993774 L331.204596,693.722107 Z M165.813991,697.902954 L165.813991,692.757324 L165.813991,697.902954 Z M276.074424,692.757324 L276.074424,697.902954 L276.074424,692.757324 Z" id="Shape" stroke="#993333" stroke-linejoin="round"></path>
                        <polygon id="Shape" fill-opacity="0" fill="#000000" fill-rule="nonzero" points="114.35166 653.37915 330.435826 653.37915 330.435826 701.53662 114.35166 701.53662"></polygon>
                        <path d="M200.027813,684.37787 L190.526313,684.37787 L190.557313,684.143495 C191.187647,684.143495 191.64748,684.023703 191.936813,683.78412 C192.246813,683.523703 192.401813,682.289328 192.401813,680.080995 L192.401813,675.37787 C192.401813,674.023703 192.36048,673.09662 192.277813,672.59662 C192.20548,672.086203 192.091813,671.768495 191.936813,671.643495 C191.64748,671.403912 191.187647,671.28412 190.557313,671.28412 L190.526313,671.080995 L199.330313,671.080995 L199.330313,673.81537 L199.097813,673.768495 C199.097813,672.924745 198.65348,672.341412 197.764813,672.018495 C196.88648,671.685162 195.532813,671.518495 193.703813,671.518495 L193.703813,677.50287 C194.912813,677.50287 195.780813,677.44037 196.307813,677.31537 C196.834813,677.179953 197.170647,676.987245 197.315313,676.737245 C197.470313,676.476828 197.547813,676.039328 197.547813,675.424745 L197.764813,675.393495 L197.764813,680.00287 L197.547813,679.97162 C197.547813,679.34662 197.470313,678.90912 197.315313,678.65912 C197.170647,678.40912 196.834813,678.226828 196.307813,678.112245 C195.780813,677.987245 194.912813,677.924745 193.703813,677.924745 L193.703813,680.362245 C193.703813,681.705995 193.750313,682.601828 193.843313,683.049745 C193.946647,683.487245 194.15848,683.78412 194.478813,683.94037 C198.023147,683.94037 199.795313,683.179953 199.795313,681.65912 L200.027813,681.62787 L200.027813,684.37787 Z M202.345124,681.549745 C202.345124,682.372662 202.562124,682.992453 202.996124,683.40912 C203.440457,683.81537 203.967457,684.018495 204.577124,684.018495 C205.186791,684.018495 205.677624,683.87787 206.049624,683.59662 C206.431957,683.31537 206.623124,682.94037 206.623124,682.47162 C206.623124,681.992453 206.462957,681.601828 206.142624,681.299745 C205.822291,680.997662 205.434791,680.75287 204.980124,680.56537 C204.525457,680.367453 204.065624,680.169537 203.600624,679.97162 C203.145957,679.763287 202.758457,679.466412 202.438124,679.080995 C202.117791,678.685162 201.957624,678.15912 201.957624,677.50287 C201.957624,676.84662 202.246957,676.299745 202.825624,675.862245 C203.414624,675.424745 204.091457,675.205995 204.856124,675.205995 C205.951457,675.205995 206.809124,675.383078 207.429124,675.737245 C207.429124,676.320578 207.351624,677.12787 207.196624,678.15912 L206.979624,678.112245 C206.979624,677.268495 206.788457,676.65912 206.406124,676.28412 C206.034124,675.90912 205.579457,675.72162 205.042124,675.72162 C204.504791,675.72162 204.075957,675.862245 203.755624,676.143495 C203.435291,676.414328 203.275124,676.789328 203.275124,677.268495 C203.275124,677.737245 203.435291,678.117453 203.755624,678.40912 C204.075957,678.69037 204.463457,678.924745 204.918124,679.112245 C205.372791,679.299745 205.827457,679.50287 206.282124,679.72162 C206.747124,679.929953 207.139791,680.226828 207.460124,680.612245 C207.780457,680.997662 207.940624,681.466412 207.940624,682.018495 C207.940624,682.830995 207.625457,683.461203 206.995124,683.90912 C206.364791,684.34662 205.538124,684.56537 204.515124,684.56537 C203.492124,684.56537 202.629291,684.294537 201.926624,683.75287 C201.926624,683.117453 201.988624,682.367453 202.112624,681.50287 L202.345124,681.549745 Z M211.904507,675.393495 L214.229507,675.393495 L214.229507,675.81537 L211.904507,675.81537 L211.904507,683.049745 C211.904507,683.310162 211.966507,683.523703 212.090507,683.69037 C212.214507,683.84662 212.37984,683.924745 212.586507,683.924745 C213.041174,683.924745 213.57334,683.789328 214.183007,683.518495 L214.229507,683.737245 C213.34084,684.289328 212.560674,684.56537 211.889007,684.56537 C211.444674,684.56537 211.114007,684.461203 210.897007,684.25287 C210.69034,684.03412 210.587007,683.65912 210.587007,683.12787 L210.587007,675.81537 L209.455507,675.81537 L209.455507,675.393495 C210.137507,675.393495 210.61284,675.200787 210.881507,674.81537 C211.150174,674.429953 211.351674,673.857037 211.486007,673.09662 L211.904507,673.049745 L211.904507,675.393495 Z M230.006722,680.080995 C230.006722,681.851828 230.079055,682.903912 230.223722,683.237245 C230.306388,683.403912 230.394222,683.560162 230.487222,683.705995 C230.580222,683.851828 230.714555,683.950787 230.890222,684.00287 C231.241555,684.09662 231.685888,684.143495 232.223222,684.143495 L232.269722,684.37787 L226.426222,684.37787 L226.457222,684.143495 C226.839555,684.143495 227.139222,684.133078 227.356222,684.112245 C227.573222,684.091412 227.769555,684.023703 227.945222,683.90912 C228.131222,683.794537 228.265555,683.664328 228.348222,683.518495 C228.430888,683.372662 228.503222,683.122662 228.565222,682.768495 C228.647888,682.258078 228.689222,681.362245 228.689222,680.080995 L228.689222,675.06537 C228.689222,674.200787 228.410222,673.768495 227.852222,673.768495 C227.449222,673.768495 226.741388,673.997662 225.728722,674.455995 L225.573722,674.09662 C227.743722,673.107037 229.149055,672.393495 229.789722,671.955995 L230.006722,672.049745 L230.006722,680.080995 Z M235.59759,682.72162 C236.320923,683.482037 237.214757,683.862245 238.27909,683.862245 C239.343423,683.862245 240.20109,683.31537 240.85209,682.22162 C241.513423,681.12787 241.84409,679.643495 241.84409,677.768495 C241.84409,675.893495 241.58059,674.549745 241.05359,673.737245 C240.52659,672.924745 239.854923,672.518495 239.03859,672.518495 C238.23259,672.518495 237.61259,672.804953 237.17859,673.37787 C236.74459,673.950787 236.52759,674.716412 236.52759,675.674745 C236.52759,676.622662 236.74459,677.325787 237.17859,677.78412 C237.622923,678.242453 238.15509,678.47162 238.77509,678.47162 C239.39509,678.47162 239.98409,678.367453 240.54209,678.15912 L240.71259,678.72162 C239.96859,678.992453 239.24009,679.12787 238.52709,679.12787 C237.50409,679.12787 236.672257,678.830995 236.03159,678.237245 C235.390923,677.643495 235.07059,676.789328 235.07059,675.674745 C235.07059,674.549745 235.463257,673.653912 236.24859,672.987245 C237.044257,672.310162 238.020757,671.97162 239.17809,671.97162 C240.345757,671.97162 241.306757,672.461203 242.06109,673.44037 C242.815423,674.419537 243.19259,675.914328 243.19259,677.924745 C243.19259,679.924745 242.737923,681.53412 241.82859,682.75287 C240.92959,683.961203 239.803257,684.56537 238.44959,684.56537 C237.095923,684.56537 236.021257,684.070578 235.22559,683.080995 L235.59759,682.72162 Z M249.356928,681.799745 C249.356928,682.008078 249.393094,682.341412 249.465428,682.799745 C249.548094,683.247662 249.589428,683.575787 249.589428,683.78412 C249.589428,683.992453 249.501594,684.174745 249.325928,684.330995 C249.150261,684.487245 248.943594,684.56537 248.705928,684.56537 C248.468261,684.56537 248.261594,684.47162 248.085928,684.28412 C247.910261,684.09662 247.822428,683.830995 247.822428,683.487245 C247.822428,682.247662 248.308094,680.570578 249.279428,678.455995 C250.261094,676.341412 251.397771,674.497662 252.689458,672.924745 C250.178438,672.924745 248.468261,673.060162 247.558928,673.330995 C246.659928,673.591412 246.210428,674.12787 246.210428,674.94037 L245.993428,674.90912 L245.993428,672.15912 L253.727958,672.15912 L253.727958,672.40912 C252.384624,674.03412 251.320281,675.711203 250.534928,677.44037 C249.749594,679.169537 249.356928,680.622662 249.356928,681.799745 L249.356928,681.799745 Z M255.149296,678.31537 C255.149296,676.336203 255.552296,674.78412 256.358296,673.65912 C257.174629,672.53412 258.213129,671.97162 259.473796,671.97162 C260.744796,671.97162 261.778129,672.53412 262.573796,673.65912 C263.379796,674.78412 263.782796,676.336203 263.782796,678.31537 C263.782796,680.28412 263.384963,681.820578 262.589296,682.924745 C261.803963,684.018495 260.770629,684.56537 259.489296,684.56537 C258.218296,684.56537 257.174629,684.018495 256.358296,682.924745 C255.552296,681.820578 255.149296,680.28412 255.149296,678.31537 Z M256.497796,678.299745 C256.497796,679.997662 256.781963,681.37787 257.350296,682.44037 C257.928963,683.492453 258.641963,684.018495 259.489296,684.018495 C260.336629,684.018495 261.034129,683.492453 261.581796,682.44037 C262.139796,681.388287 262.418796,680.013287 262.418796,678.31537 C262.418796,676.607037 262.139796,675.205995 261.581796,674.112245 C261.034129,673.018495 260.336629,672.47162 259.489296,672.47162 C258.641963,672.47162 257.928963,673.018495 257.350296,674.112245 C256.781963,675.205995 256.497796,676.601828 256.497796,678.299745 Z" id="Shape" fill="#EFEFEF" fill-rule="nonzero"></path>
                        <polygon id="Shape" fill-opacity="0" fill="#000000" fill-rule="nonzero" points="109.589882 28.014631 325.674047 28.014631 325.674047 57.179985 109.589882 57.179985"></polygon>
                        <path d="M177.799454,40.517307 L177.799454,45.220432 C177.799454,47.126682 177.892454,48.267307 178.078454,48.642307 C178.140454,48.798557 178.248954,48.9339737 178.403954,49.048557 C178.558954,49.1631403 178.724288,49.2308487 178.899954,49.251682 C179.085954,49.2725153 179.328788,49.282932 179.628454,49.282932 L179.674954,49.517307 L174.575454,49.517307 L174.621954,49.282932 C174.931954,49.282932 175.174788,49.2725153 175.350454,49.251682 C175.536454,49.2308487 175.706954,49.1631403 175.861954,49.048557 C176.027288,48.9339737 176.140954,48.8037653 176.202954,48.657932 C176.275288,48.5120987 176.337288,48.267307 176.388954,47.923557 C176.450954,47.4756403 176.481954,46.5745987 176.481954,45.220432 L176.481954,43.126682 L168.855954,43.126682 L168.855954,45.220432 C168.855954,46.5745987 168.892121,47.501682 168.964454,48.001682 C169.047121,48.4912653 169.165954,48.798557 169.320954,48.923557 C169.610288,49.1631403 170.070121,49.282932 170.700454,49.282932 L170.731454,49.517307 L165.647454,49.517307 L165.678454,49.282932 C165.998788,49.282932 166.246788,49.2725153 166.422454,49.251682 C166.598121,49.2308487 166.763454,49.1631403 166.918454,49.048557 C167.073454,48.9339737 167.181954,48.8037653 167.243954,48.657932 C167.316288,48.5120987 167.378288,48.267307 167.429954,47.923557 C167.491954,47.4756403 167.522954,46.5745987 167.522954,45.220432 L167.522954,40.517307 C167.522954,39.1943903 167.486788,38.2725153 167.414454,37.751682 C167.342121,37.2308487 167.228454,36.907932 167.073454,36.782932 C166.773788,36.5433487 166.308788,36.423557 165.678454,36.423557 L165.647454,36.220432 L170.731454,36.220432 L170.700454,36.423557 C170.070121,36.423557 169.610288,36.5433487 169.320954,36.782932 C169.010954,37.0537653 168.855954,38.298557 168.855954,40.517307 L168.855954,42.642307 L176.481954,42.642307 L176.481954,40.517307 C176.481954,38.6214737 176.388954,37.4756403 176.202954,37.079807 C176.140954,36.923557 176.027288,36.7881403 175.861954,36.673557 C175.706954,36.5589737 175.536454,36.4912653 175.350454,36.470432 C175.174788,36.439182 174.931954,36.423557 174.621954,36.423557 L174.575454,36.220432 L179.674954,36.220432 L179.628454,36.423557 C179.328788,36.423557 179.085954,36.439182 178.899954,36.470432 C178.724288,36.4912653 178.558954,36.5589737 178.403954,36.673557 C178.248954,36.7881403 178.135288,36.923557 178.062954,37.079807 C178.000954,37.2256403 177.944121,37.470432 177.892454,37.814182 C177.830454,38.3662653 177.799454,39.267307 177.799454,40.517307 Z M181.081367,45.017307 C181.081367,43.6943903 181.458534,42.5850153 182.212867,41.689182 C182.967201,40.7933487 183.990201,40.345432 185.281867,40.345432 C186.573534,40.345432 187.612034,40.7933487 188.397367,41.689182 C189.193034,42.5850153 189.590867,43.6995987 189.590867,45.032932 C189.590867,46.3662653 189.208534,47.4808487 188.443867,48.376682 C187.689534,49.2620987 186.666534,49.704807 185.374867,49.704807 C184.083201,49.704807 183.044701,49.2568903 182.259367,48.361057 C181.474034,47.454807 181.081367,46.3402237 181.081367,45.017307 Z M183.251367,48.111057 C183.747367,48.923557 184.455201,49.329807 185.374867,49.329807 C186.294534,49.329807 186.986867,48.9339737 187.451867,48.142307 C187.927201,47.3402237 188.164867,46.3089737 188.164867,45.048557 C188.164867,43.7881403 187.911701,42.751682 187.405367,41.939182 C186.909367,41.126682 186.201534,40.720432 185.281867,40.720432 C184.372534,40.720432 183.680201,41.1214737 183.204867,41.923557 C182.739867,42.7256403 182.507367,43.7568903 182.507367,45.017307 C182.507367,46.267307 182.755367,47.298557 183.251367,48.111057 Z M197.731577,47.439182 C197.938243,46.9495987 198.088077,46.454807 198.181077,45.954807 C198.28441,45.4443903 198.336077,44.8975153 198.336077,44.314182 C198.336077,43.7308487 198.320577,43.2412653 198.289577,42.845432 C198.26891,42.4495987 198.227577,42.1006403 198.165577,41.798557 C198.103577,41.486057 197.995077,41.2620987 197.840077,41.126682 C197.561077,40.876682 197.101243,40.751682 196.460577,40.751682 L196.429577,40.548557 C197.52491,40.4131403 198.599577,40.345432 199.653577,40.345432 L199.653577,45.298557 C199.653577,46.704807 199.69491,47.626682 199.777577,48.064182 C199.870577,48.501682 200.087577,48.720432 200.428577,48.720432 C200.635243,48.720432 200.914243,48.6318903 201.265577,48.454807 L201.358577,48.642307 C201.265577,48.7152237 201.13641,48.8089737 200.971077,48.923557 C200.805743,49.0277237 200.46991,49.1683487 199.963577,49.345432 C199.467577,49.5225153 198.987077,49.611057 198.522077,49.611057 C198.398077,48.8818903 198.336077,48.032932 198.336077,47.064182 C197.75741,48.8245987 196.755077,49.704807 195.329077,49.704807 C193.407077,49.704807 192.446077,48.6943903 192.446077,46.673557 L192.446077,44.829807 C192.446077,42.923557 192.353077,41.7777237 192.167077,41.392307 C192.105077,41.2464737 191.99141,41.1162653 191.826077,41.001682 C191.671077,40.8870987 191.500577,40.8193903 191.314577,40.798557 C191.13891,40.767307 190.896077,40.751682 190.586077,40.751682 L190.539577,40.548557 C191.63491,40.4131403 192.709577,40.345432 193.763577,40.345432 L193.763577,46.470432 C193.763577,47.345432 193.89791,48.0068903 194.166577,48.454807 C194.445577,48.892307 194.869243,49.111057 195.437577,49.111057 C196.00591,49.111057 196.481243,48.954807 196.863577,48.642307 C197.24591,48.329807 197.535243,47.9287653 197.731577,47.439182 Z M202.987409,46.689182 C202.987409,47.5120987 203.204409,48.1318903 203.638409,48.548557 C204.082742,48.954807 204.609742,49.157932 205.219409,49.157932 C205.829076,49.157932 206.319909,49.017307 206.691909,48.736057 C207.074242,48.454807 207.265409,48.079807 207.265409,47.611057 C207.265409,47.1318903 207.105242,46.7412653 206.784909,46.439182 C206.464576,46.1370987 206.077076,45.892307 205.622409,45.704807 C205.167742,45.5068903 204.707909,45.3089737 204.242909,45.111057 C203.788242,44.9027237 203.400742,44.6058487 203.080409,44.220432 C202.760076,43.8245987 202.599909,43.298557 202.599909,42.642307 C202.599909,41.986057 202.889242,41.439182 203.467909,41.001682 C204.056909,40.564182 204.733742,40.345432 205.498409,40.345432 C206.593742,40.345432 207.451409,40.5225153 208.071409,40.876682 C208.071409,41.4600153 207.993909,42.267307 207.838909,43.298557 L207.621909,43.251682 C207.621909,42.407932 207.430742,41.798557 207.048409,41.423557 C206.676409,41.048557 206.221742,40.861057 205.684409,40.861057 C205.147076,40.861057 204.718242,41.001682 204.397909,41.282932 C204.077576,41.5537653 203.917409,41.9287653 203.917409,42.407932 C203.917409,42.876682 204.077576,43.2568903 204.397909,43.548557 C204.718242,43.829807 205.105742,44.064182 205.560409,44.251682 C206.015076,44.439182 206.469742,44.642307 206.924409,44.861057 C207.389409,45.0693903 207.782076,45.3662653 208.102409,45.751682 C208.422742,46.1370987 208.582909,46.6058487 208.582909,47.157932 C208.582909,47.970432 208.267742,48.6006403 207.637409,49.048557 C207.007076,49.486057 206.180409,49.704807 205.157409,49.704807 C204.134409,49.704807 203.271576,49.4339737 202.568909,48.892307 C202.568909,48.2568903 202.630909,47.5068903 202.754909,46.642307 L202.987409,46.689182 Z M217.599792,44.704807 L211.415292,44.704807 L211.415292,45.032932 C211.415292,46.376682 211.694292,47.4027237 212.252292,48.111057 C212.820625,48.8089737 213.528459,49.157932 214.375792,49.157932 C215.636459,49.157932 216.540625,48.6527237 217.088292,47.642307 L217.367292,47.782932 C216.716292,49.064182 215.626125,49.704807 214.096792,49.704807 C212.960125,49.704807 211.988792,49.2933487 211.182792,48.470432 C210.387125,47.6475153 209.989292,46.5381403 209.989292,45.142307 C209.989292,43.736057 210.340625,42.5850153 211.043292,41.689182 C211.756292,40.7933487 212.706959,40.345432 213.895292,40.345432 C215.083625,40.345432 215.998125,40.7568903 216.638792,41.579807 C217.279459,42.392307 217.599792,43.4339737 217.599792,44.704807 Z M213.941792,40.720432 C213.208125,40.720432 212.629459,41.032932 212.205792,41.657932 C211.792459,42.282932 211.539292,43.1162653 211.446292,44.157932 L216.142792,44.157932 C216.060125,41.8662653 215.326459,40.720432 213.941792,40.720432 Z M223.758499,45.017307 C223.758499,43.6943903 224.135666,42.5850153 224.889999,41.689182 C225.644332,40.7933487 226.667332,40.345432 227.958999,40.345432 C229.250666,40.345432 230.289166,40.7933487 231.074499,41.689182 C231.870166,42.5850153 232.267999,43.6995987 232.267999,45.032932 C232.267999,46.3662653 231.885666,47.4808487 231.120999,48.376682 C230.366666,49.2620987 229.343666,49.704807 228.051999,49.704807 C226.760332,49.704807 225.721832,49.2568903 224.936499,48.361057 C224.151166,47.454807 223.758499,46.3402237 223.758499,45.017307 Z M225.928499,48.111057 C226.424499,48.923557 227.132332,49.329807 228.051999,49.329807 C228.971666,49.329807 229.663999,48.9339737 230.128999,48.142307 C230.604332,47.3402237 230.841999,46.3089737 230.841999,45.048557 C230.841999,43.7881403 230.588832,42.751682 230.082499,41.939182 C229.586499,41.126682 228.878666,40.720432 227.958999,40.720432 C227.049666,40.720432 226.357332,41.1214737 225.881999,41.923557 C225.416999,42.7256403 225.184499,43.7568903 225.184499,45.017307 C225.184499,46.267307 225.432499,47.298557 225.928499,48.111057 Z M236.688708,40.954807 L236.688708,45.220432 C236.688708,46.5745987 236.730041,47.501682 236.812708,48.001682 C236.895375,48.4912653 237.009041,48.798557 237.153708,48.923557 C237.443041,49.1631403 237.902875,49.282932 238.533208,49.282932 L238.579708,49.517307 L233.511238,49.517307 L233.542238,49.282932 C233.841905,49.282932 234.079572,49.2725153 234.255238,49.251682 C234.441238,49.2308487 234.611738,49.1631403 234.766738,49.048557 C234.921738,48.9339737 235.030238,48.8037653 235.092238,48.657932 C235.164572,48.5120987 235.226572,48.267307 235.278238,47.923557 C235.340238,47.4756403 235.371238,46.5745987 235.371238,45.220432 L235.371238,40.954807 L233.635238,40.954807 L233.635238,40.532932 L235.371238,40.532932 C235.371238,38.1370987 235.820728,36.5902237 236.719708,35.892307 C237.205375,35.5381403 237.778875,35.361057 238.440208,35.361057 C239.111875,35.361057 239.747375,35.5381403 240.346708,35.892307 C240.946041,36.2464737 241.245708,36.6527237 241.245708,37.111057 C241.245708,37.298557 241.173375,37.4652237 241.028708,37.611057 C240.884041,37.7464737 240.692875,37.814182 240.455208,37.814182 C240.217541,37.814182 240.010875,37.7152237 239.835208,37.517307 C239.659541,37.3089737 239.530375,37.0902237 239.447708,36.861057 C239.365041,36.6214737 239.220375,36.4027237 239.013708,36.204807 C238.817375,35.9964737 238.569375,35.892307 238.269708,35.892307 C237.629041,35.892307 237.205375,36.1943903 236.998708,36.798557 C236.792041,37.4027237 236.688708,38.3506403 236.688708,39.642307 L236.688708,40.532932 L239.184208,40.532932 L239.184208,40.954807 L236.688708,40.954807 Z M254.630958,49.517307 C254.320958,49.517307 254.010958,49.3558487 253.700958,49.032932 C253.390958,48.7100153 253.111958,48.3089737 252.863958,47.829807 C252.626291,47.3506403 252.342124,46.829807 252.011458,46.267307 C251.691124,45.6943903 251.365624,45.1631403 251.034958,44.673557 C250.704291,44.173557 250.285791,43.7568903 249.779458,43.423557 C249.283458,43.079807 248.751291,42.892307 248.182958,42.861057 L248.182958,45.220432 C248.182958,46.595432 248.224291,47.5277237 248.306958,48.017307 C248.389624,48.4964737 248.508458,48.798557 248.663458,48.923557 C248.963124,49.1631403 249.428124,49.282932 250.058458,49.282932 L250.089458,49.517307 L245.036458,49.517307 L245.082958,49.282932 C245.692624,49.282932 246.142124,49.173557 246.431458,48.954807 C246.669124,48.7568903 246.808624,48.1318903 246.849958,47.079807 C246.870624,46.6631403 246.880958,46.0433487 246.880958,45.220432 L246.880958,40.423557 C246.880958,39.017307 246.844791,38.0850153 246.772458,37.626682 C246.700124,37.1683487 246.586458,36.8818903 246.431458,36.767307 C246.142124,36.548557 245.692624,36.439182 245.082958,36.439182 L245.036458,36.220432 L249.407458,36.220432 C252.579791,36.220432 254.165958,37.298557 254.165958,39.454807 C254.165958,40.3714737 253.840458,41.1475153 253.189458,41.782932 C252.548791,42.407932 251.768624,42.767307 250.848958,42.861057 C251.768624,43.4131403 252.615958,44.4183487 253.390958,45.876682 C253.690624,46.439182 254.010958,46.9808487 254.351958,47.501682 C255.095958,48.689182 256.051791,49.282932 257.219458,49.282932 L257.250458,49.517307 L254.630958,49.517307 Z M248.182958,36.657932 L248.182958,42.486057 L249.376458,42.486057 C250.327124,42.486057 251.117624,42.2412653 251.747958,41.751682 C252.378291,41.251682 252.693458,40.517307 252.693458,39.548557 C252.693458,37.6214737 251.598124,36.657932 249.407458,36.657932 L248.182958,36.657932 Z M256.849032,45.017307 C256.849032,43.6943903 257.226199,42.5850153 257.980532,41.689182 C258.734865,40.7933487 259.757865,40.345432 261.049532,40.345432 C262.341199,40.345432 263.379699,40.7933487 264.165032,41.689182 C264.960699,42.5850153 265.358532,43.6995987 265.358532,45.032932 C265.358532,46.3662653 264.976199,47.4808487 264.211532,48.376682 C263.457199,49.2620987 262.434199,49.704807 261.142532,49.704807 C259.850865,49.704807 258.812365,49.2568903 258.027032,48.361057 C257.241699,47.454807 256.849032,46.3402237 256.849032,45.017307 Z M259.019032,48.111057 C259.515032,48.923557 260.222865,49.329807 261.142532,49.329807 C262.062199,49.329807 262.754532,48.9339737 263.219532,48.142307 C263.694865,47.3402237 263.932532,46.3089737 263.932532,45.048557 C263.932532,43.7881403 263.679365,42.751682 263.173032,41.939182 C262.677032,41.126682 261.969199,40.720432 261.049532,40.720432 C260.140199,40.720432 259.447865,41.1214737 258.972532,41.923557 C258.507532,42.7256403 258.275032,43.7568903 258.275032,45.017307 C258.275032,46.267307 258.523032,47.298557 259.019032,48.111057 Z M267.764241,53.501682 C268.394574,53.501682 268.916408,53.2568903 269.329741,52.767307 C269.753408,52.2881403 270.187408,51.501682 270.631741,50.407932 L267.826241,43.267307 C267.402574,42.204807 267.025408,41.5225153 266.694741,41.220432 C266.364074,40.907932 265.966241,40.751682 265.501241,40.751682 L265.470241,40.532932 L270.135741,40.532932 L270.104741,40.751682 C269.660408,40.751682 269.350408,40.8245987 269.174741,40.970432 C269.009408,41.1058487 268.926741,41.3193903 268.926741,41.611057 C268.926741,42.1943903 269.221241,43.236057 269.810241,44.736057 L271.267241,48.407932 L272.739741,43.861057 C273.029074,42.9443903 273.173741,42.251682 273.173741,41.782932 C273.173741,41.095432 272.734574,40.751682 271.856241,40.751682 L271.809741,40.532932 L275.359241,40.532932 L275.328241,40.751682 C274.811574,40.751682 274.449908,40.923557 274.243241,41.267307 C274.036574,41.6006403 273.649074,42.6318903 273.080741,44.361057 L271.375741,49.579807 C270.828074,51.2881403 270.182241,52.6006403 269.438241,53.517307 C268.694241,54.4443903 267.924408,54.907932 267.128741,54.907932 C266.756741,54.907932 266.451908,54.8350153 266.214241,54.689182 C265.976574,54.5433487 265.857741,54.3402237 265.857741,54.079807 C265.857741,53.829807 265.935241,53.6318903 266.090241,53.486057 C266.255574,53.3402237 266.426074,53.267307 266.601741,53.267307 C266.787741,53.267307 266.994408,53.3037653 267.221741,53.376682 C267.449074,53.4600153 267.629908,53.501682 267.764241,53.501682 Z" id="Shape" fill="#EFEFEF" fill-rule="nonzero"></path>
                    </g>
                </g>
            </g>
        </g>
    </g>
</svg>