<?xml version="1.0" encoding="UTF-8"?>
<svg width="454px" height="720px" viewBox="0 0 454 720" version="1.1" xmlns="http://www.w3.org/2000/svg" xmlns:xlink="http://www.w3.org/1999/xlink">
    <!-- Generator: Sketch 42 (36781) - http://www.bohemiancoding.com/sketch -->
    <title>Untitled</title>
    <desc>Created with Sketch.</desc>
    <defs></defs>
    <g id="Page-1" stroke="none" stroke-width="1" fill="none" fill-rule="evenodd">
        <g id="Clipped" transform="translate(-25.000000, 0.000000)">
            <g id="Group">
                <polygon id="Shape" fill-opacity="0" fill="#000000" points="0 0 496 0 496 720 0 720"></polygon>
                <path d="M50.9054224,85.20273 L50.9054224,363.40743 L50.9054224,363.40743 C50.9054224,517.05565 141.368749,641.61217 252.960972,641.61217 C364.553165,641.61217 455.016552,517.05565 455.016552,363.40743 L455.016552,85.20273 L50.9054224,85.20273 Z" id="Shape" fill="#F3F3F3"></path>
                <polygon id="Shape" fill="#993333" points="50.9044502 85.2021 455.014597 85.2021 252.959504 204.96312"></polygon>
                <polygon id="Shape" fill="#993333" points="95.2467411 148.59827 99.9668239 148.59827 99.9668239 504.2518 95.2467411 504.2518"></polygon>
                <polygon id="Shape" fill="#036338" points="97.6097248 148.59848 117.821241 175.212646 104.347018 175.212646 97.6097248 166.341079 90.8724016 175.212646 77.3981786 175.212646"></polygon>
                <polygon id="Shape" fill="#036338" points="97.6097248 220.35176 117.821241 246.965926 104.347018 246.965926 97.6097248 238.094359 90.8724016 246.965926 77.3981786 246.965926"></polygon>
                <polygon id="Shape" fill="#036338" points="97.6097248 178.09717 117.821241 204.711336 104.347018 204.711336 97.6097248 195.839769 90.8724016 204.711336 77.3981786 204.711336"></polygon>
                <polygon id="Shape" fill="#036338" points="97.6097248 165.41475 117.821241 192.028916 104.347018 192.028916 97.6097248 183.157349 90.8724016 192.028916 77.3981786 192.028916"></polygon>
                <polygon id="Shape" fill="#036338" points="97.6097248 135.91605 117.80895 162.52219 104.342931 162.52219 97.6097253 153.653309 90.8765193 162.52219 77.4104705 162.52219"></polygon>
                <polygon id="Shape" fill="#036338" points="97.6097248 207.59848 117.821241 234.212646 104.347018 234.212646 97.6097248 225.341079 90.8724016 234.212646 77.3981786 234.212646"></polygon>
                <polygon id="Shape" fill="#036338" points="97.6097248 306.8268 117.821241 333.440997 104.347018 333.440997 97.6097248 324.569415 90.8724016 333.440997 77.3981786 333.440997"></polygon>
                <polygon id="Shape" fill="#036338" points="97.6097248 255.14441 117.821241 281.758576 104.347018 281.758576 97.6097248 272.887024 90.8724016 281.758576 77.3981786 281.758576"></polygon>
                <polygon id="Shape" fill="#036338" points="97.6097248 242.46199 117.821241 269.076172 104.347018 269.076172 97.6097248 260.20459 90.8724016 269.076172 77.3981786 269.076172"></polygon>
                <polygon id="Shape" fill="#036338" points="97.6097248 271.96332 117.821241 298.577486 104.347018 298.577486 97.6097248 289.705904 90.8724016 298.577486 77.3981786 298.577486"></polygon>
                <polygon id="Shape" fill="#036338" points="97.6097248 284.64572 117.821241 311.259886 104.347018 311.259886 97.6097248 302.388334 90.8724016 311.259886 77.3981786 311.259886"></polygon>
                <polygon id="Shape" fill="#993333" points="172.928614 205.94987 177.648667 205.94987 177.648667 561.60337 172.928614 561.60337"></polygon>
                <polygon id="Shape" fill="#036338" points="175.291618 205.95009 195.503134 232.564256 182.028911 232.564256 175.291618 223.692689 168.554295 232.564256 155.080072 232.564256"></polygon>
                <polygon id="Shape" fill="#036338" points="175.291618 277.70337 195.503134 304.317536 182.028911 304.317536 175.291618 295.445954 168.554295 304.317536 155.080072 304.317536"></polygon>
                <polygon id="Shape" fill="#036338" points="175.291618 235.44878 195.503134 262.062962 182.028911 262.062962 175.291618 253.19138 168.554295 262.062962 155.080072 262.062962"></polygon>
                <polygon id="Shape" fill="#036338" points="175.291618 222.76636 195.503134 249.380526 182.028911 249.380526 175.291618 240.508959 168.554295 249.380526 155.080072 249.380526"></polygon>
                <polygon id="Shape" fill="#036338" points="175.291618 193.26765 195.503134 219.881832 182.028911 219.881832 175.291618 211.010265 168.554295 219.881832 155.080072 219.881832"></polygon>
                <polygon id="Shape" fill="#036338" points="175.291618 264.95007 195.503134 291.564267 182.028911 291.564267 175.291618 282.692685 168.554295 291.564267 155.080072 291.564267"></polygon>
                <polygon id="Shape" fill="#036338" points="175.291618 364.17844 195.503134 390.792606 182.028911 390.792606 175.291618 381.921024 168.554295 390.792606 155.080072 390.792606"></polygon>
                <polygon id="Shape" fill="#036338" points="175.291618 312.496 195.503134 339.110197 182.028911 339.110197 175.291618 330.238615 168.554295 339.110197 155.080072 339.110197"></polygon>
                <polygon id="Shape" fill="#036338" points="175.291618 299.8136 195.503134 326.427766 182.028911 326.427766 175.291618 317.556215 168.554295 326.427766 155.080072 326.427766"></polygon>
                <polygon id="Shape" fill="#036338" points="175.291618 329.3149 195.503134 355.929066 182.028911 355.929066 175.291618 347.057515 168.554295 355.929066 155.080072 355.929066"></polygon>
                <polygon id="Shape" fill="#036338" points="175.291618 341.9973 195.503134 368.611497 182.028911 368.611497 175.291618 359.739915 168.554295 368.611497 155.080072 368.611497"></polygon>
                <polygon id="Shape" fill="#993333" points="250.610508 269.24643 255.33056 269.24643 255.33056 624.89996 250.610508 624.89996"></polygon>
                <polygon id="Shape" fill="#036338" points="252.973471 269.2466 273.185017 295.860797 259.710794 295.860797 252.973471 286.989215 246.236178 295.860797 232.761955 295.860797"></polygon>
                <polygon id="Shape" fill="#036338" points="252.973471 340.9999 273.185017 367.614066 259.710794 367.614066 252.973471 358.742515 246.236178 367.614066 232.761955 367.614066"></polygon>
                <polygon id="Shape" fill="#036338" points="252.973471 298.7453 273.185017 325.359497 259.710794 325.359497 252.973471 316.487915 246.236178 325.359497 232.761955 325.359497"></polygon>
                <polygon id="Shape" fill="#036338" points="252.973471 286.0629 273.185017 312.677066 259.710794 312.677066 252.973471 303.805515 246.236178 312.677066 232.761955 312.677066"></polygon>
                <polygon id="Shape" fill="#036338" points="252.973471 256.5642 273.185017 283.178366 259.710794 283.178366 252.973471 274.306784 246.236178 283.178366 232.761955 283.178366"></polygon>
                <polygon id="Shape" fill="#036338" points="252.973471 328.2466 273.185017 354.860797 259.710794 354.860797 252.973471 345.989215 246.236178 354.860797 232.761955 354.860797"></polygon>
                <polygon id="Shape" fill="#036338" points="252.973471 427.47498 273.185017 454.089146 259.710794 454.089146 252.973471 445.217595 246.236178 454.089146 232.761955 454.089146"></polygon>
                <polygon id="Shape" fill="#036338" points="252.973471 375.79254 273.185017 402.406737 259.710794 402.406737 252.973471 393.535155 246.236178 402.406737 232.761955 402.406737"></polygon>
                <polygon id="Shape" fill="#036338" points="252.973471 363.11014 273.185017 389.724306 259.710794 389.724306 252.973471 380.852755 246.236178 389.724306 232.761955 389.724306"></polygon>
                <polygon id="Shape" fill="#036338" points="252.973471 392.61145 273.185017 419.225616 259.710794 419.225616 252.973471 410.354064 246.236178 419.225616 232.761955 419.225616"></polygon>
                <polygon id="Shape" fill="#036338" points="252.973471 405.29385 273.185017 431.908047 259.710794 431.908047 252.973471 423.036465 246.236178 431.908047 232.761955 431.908047"></polygon>
                <polygon id="Shape" fill="#993333" points="333.85517 217.64542 338.575222 217.64542 338.575222 573.29895 333.85517 573.29895"></polygon>
                <polygon id="Shape" fill="#036338" points="336.218133 217.64561 356.429649 244.259792 342.955426 244.259792 336.218133 235.388225 329.48078 244.259792 316.006557 244.259792"></polygon>
                <polygon id="Shape" fill="#036338" points="336.218133 289.3989 356.429649 316.013066 342.955426 316.013066 336.218133 307.141515 329.48078 316.013066 316.006557 316.013066"></polygon>
                <polygon id="Shape" fill="#036338" points="336.218133 247.1443 356.429649 273.758482 342.955426 273.758482 336.218133 264.8869 329.48078 273.758482 316.006557 273.758482"></polygon>
                <polygon id="Shape" fill="#036338" points="336.218133 234.4619 356.429649 261.076082 342.955426 261.076082 336.218133 252.2045 329.48078 261.076082 316.006557 261.076082"></polygon>
                <polygon id="Shape" fill="#036338" points="336.218133 204.9632 356.429649 231.577366 342.955426 231.577366 336.218133 222.705799 329.48078 231.577366 316.006557 231.577366"></polygon>
                <polygon id="Shape" fill="#036338" points="336.218133 276.64563 356.429649 303.259796 342.955426 303.259796 336.218133 294.388214 329.48078 303.259796 316.006557 303.259796"></polygon>
                <polygon id="Shape" fill="#036338" points="336.218133 375.87396 356.429649 402.488126 342.955426 402.488126 336.218133 393.616575 329.48078 402.488126 316.006557 402.488126"></polygon>
                <polygon id="Shape" fill="#036338" points="336.218133 324.19156 356.429649 350.805726 342.955426 350.805726 336.218133 341.934144 329.48078 350.805726 316.006557 350.805726"></polygon>
                <polygon id="Shape" fill="#036338" points="336.218133 311.50912 356.429649 338.123317 342.955426 338.123317 336.218133 329.251735 329.48078 338.123317 316.006557 338.123317"></polygon>
                <polygon id="Shape" fill="#036338" points="336.218133 341.01044 356.429649 367.624637 342.955426 367.624637 336.218133 358.753055 329.48078 367.624637 316.006557 367.624637"></polygon>
                <polygon id="Shape" fill="#036338" points="336.218133 353.69287 356.429649 380.307036 342.955426 380.307036 336.218133 371.435454 329.48078 380.307036 316.006557 380.307036"></polygon>
                <polygon id="Shape" fill="#993333" points="405.974214 148.59827 410.694267 148.59827 410.694267 504.2518 405.974214 504.2518"></polygon>
                <polygon id="Shape" fill="#036338" points="408.337208 148.59848 428.548784 175.212646 415.074562 175.212646 408.337208 166.341079 401.599915 175.212646 388.125692 175.212646"></polygon>
                <polygon id="Shape" fill="#036338" points="408.337208 220.35176 428.548784 246.965926 415.074562 246.965926 408.337208 238.094359 401.599915 246.965926 388.125692 246.965926"></polygon>
                <polygon id="Shape" fill="#036338" points="408.337208 178.09717 428.548784 204.711336 415.074562 204.711336 408.337208 195.839769 401.599915 204.711336 388.125692 204.711336"></polygon>
                <polygon id="Shape" fill="#036338" points="408.337208 165.41475 428.548784 192.028916 415.074562 192.028916 408.337208 183.157349 401.599915 192.028916 388.125692 192.028916"></polygon>
                <polygon id="Shape" fill="#036338" points="408.337208 135.91605 428.548784 162.530232 415.074562 162.530232 408.337208 153.658665 401.599915 162.530232 388.125692 162.530232"></polygon>
                <polygon id="Shape" fill="#036338" points="408.337208 207.59848 428.548784 234.212646 415.074562 234.212646 408.337208 225.341079 401.599915 234.212646 388.125692 234.212646"></polygon>
                <polygon id="Shape" fill="#036338" points="408.337208 306.8268 428.548784 333.440997 415.074562 333.440997 408.337208 324.569415 401.599915 333.440997 388.125692 333.440997"></polygon>
                <polygon id="Shape" fill="#036338" points="408.337208 255.14441 428.548784 281.758576 415.074562 281.758576 408.337208 272.887024 401.599915 281.758576 388.125692 281.758576"></polygon>
                <polygon id="Shape" fill="#036338" points="408.337208 242.46199 428.548784 269.076172 415.074562 269.076172 408.337208 260.20459 401.599915 269.076172 388.125692 269.076172"></polygon>
                <polygon id="Shape" fill="#036338" points="408.337208 271.96332 428.548784 298.577486 415.074562 298.577486 408.337208 289.705904 401.599915 298.577486 388.125692 298.577486"></polygon>
                <polygon id="Shape" fill="#036338" points="408.337208 284.64572 428.548784 311.259886 415.074562 311.259886 408.337208 302.388334 401.599915 311.259886 388.125692 311.259886"></polygon>
                <path d="M34.8772122,16 C90.0074204,18.572834 145.137622,20.1808554 200.267817,20.8240643 L145.137615,25.004921 C218.644571,26.7201437 292.151513,26.7201437 365.658442,25.004921 L310.52821,20.8240643 C365.658438,20.1808555 420.78865,18.572834 475.918845,16 L420.788613,33.68824 L475.918845,46.874016 C439.165357,48.5892387 402.411889,49.8756563 365.658442,50.733269 L365.658442,55.878937 C292.151506,57.5941597 218.644564,57.5941597 145.137615,55.878937 L145.137615,50.733269 C108.384148,49.8756564 71.6306799,48.5892387 34.8772122,46.874016 L90.0074138,33.68824 L34.8772122,16 Z" id="Shape" fill="#993333"></path>
                <path d="M200.267807,25.969734 C237.021295,26.3985403 273.774762,26.3985403 310.52821,25.969734 L310.52821,20.824064 L365.658442,25.0049207 C292.151506,26.7201434 218.644564,26.7201434 145.137615,25.0049207 L200.267817,20.824064 L200.267807,25.969734 Z" id="Shape" fill="#7A2828"></path>
                <path d="M34.8772122,16 C90.0074204,18.572834 145.137622,20.1808554 200.267817,20.8240643 L145.137615,25.004921 C218.644571,26.7201437 292.151513,26.7201437 365.658442,25.004921 L310.52821,20.8240643 C365.658438,20.1808555 420.78865,18.572834 475.918845,16 L420.788613,33.68824 L475.918845,46.874016 C439.165357,48.5892387 402.411889,49.8756563 365.658442,50.733269 L365.658442,55.878937 C292.151506,57.5941597 218.644564,57.5941597 145.137615,55.878937 L145.137615,50.733269 C108.384148,49.8756564 71.6306799,48.5892387 34.8772122,46.874016 L90.0074138,33.68824 L34.8772122,16 Z M145.137615,50.73327 L145.137615,25.004922 L145.137615,50.73327 Z M365.658442,25.004922 L365.658442,50.73327 L365.658442,25.004922 Z M200.267807,20.824066 L200.267807,25.969736 L200.267807,20.824066 Z M310.52821,25.969736 L310.52821,20.824066 L310.52821,25.969736 Z" id="Shape" fill-opacity="0" fill="#000000"></path>
                <path d="M34.8772122,16 C90.0074204,18.572834 145.137622,20.1808554 200.267817,20.8240643 L145.137615,25.004921 C218.644571,26.7201437 292.151513,26.7201437 365.658442,25.004921 L310.52821,20.8240643 C365.658438,20.1808555 420.78865,18.572834 475.918845,16 L420.788613,33.68824 L475.918845,46.874016 C439.165357,48.5892387 402.411889,49.8756563 365.658442,50.733269 L365.658442,55.878937 C292.151506,57.5941597 218.644564,57.5941597 145.137615,55.878937 L145.137615,50.733269 C108.384148,49.8756564 71.6306799,48.5892387 34.8772122,46.874016 L90.0074138,33.68824 L34.8772122,16 Z M145.137615,50.73327 L145.137615,25.004922 L145.137615,50.73327 Z M365.658442,25.004922 L365.658442,50.73327 L365.658442,25.004922 Z M200.267807,20.824066 L200.267807,25.969736 L200.267807,20.824066 Z M310.52821,25.969736 L310.52821,20.824066 L310.52821,25.969736 Z" id="Shape" stroke="#993333" stroke-linejoin="round"></path>
                <path d="M33.4233568,702.72705 C88.553565,700.154215 143.683777,698.546182 198.813991,697.902953 L143.68379,693.722106 C217.190725,692.006896 290.697661,692.006896 364.204596,693.722106 L309.074426,697.902953 C364.204615,698.546182 419.334806,700.154215 474.465001,702.72705 L419.334831,685.038818 L474.465001,671.853027 C437.711555,670.137817 400.958087,668.851399 364.204598,667.993774 L364.204598,662.848083 C290.697663,661.132873 217.190727,661.132873 143.683792,662.848083 L143.683792,667.993774 C106.930324,668.851399 70.1768464,670.137817 33.4233588,671.853027 L88.5535901,685.038818 L33.4233568,702.72705 Z" id="Shape" fill="#993333"></path>
                <path d="M198.813991,692.7573 C235.567459,692.328467 272.320937,692.328467 309.074424,692.7573 L309.074424,697.90293 L364.204594,693.722083 C290.697659,692.006873 217.190723,692.006873 143.683788,693.722083 L198.813989,697.90293 L198.813991,692.7573 Z" id="Shape" fill="#7A2828"></path>
                <path d="M33.4233568,702.72705 C88.553565,700.154215 143.683777,698.546182 198.813991,697.902953 L143.68379,693.722106 C217.190725,692.006896 290.697661,692.006896 364.204596,693.722106 L309.074426,697.902953 C364.204615,698.546182 419.334806,700.154215 474.465001,702.72705 L419.334831,685.038818 L474.465001,671.853027 C437.711555,670.137817 400.958087,668.851399 364.204598,667.993774 L364.204598,662.848083 C290.697663,661.132873 217.190727,661.132873 143.683792,662.848083 L143.683792,667.993774 C106.930324,668.851399 70.1768464,670.137817 33.4233588,671.853027 L88.5535901,685.038818 L33.4233568,702.72705 Z M143.68379,667.993774 L143.68379,693.722107 L143.68379,667.993774 Z M364.204596,693.722107 L364.204596,667.993774 L364.204596,693.722107 Z M198.813991,697.902954 L198.813991,692.757324 L198.813991,697.902954 Z M309.074424,692.757324 L309.074424,697.902954 L309.074424,692.757324 Z" id="Shape" fill-opacity="0" fill="#000000"></path>
                <path d="M33.4233568,702.72705 C88.553565,700.154215 143.683777,698.546182 198.813991,697.902953 L143.68379,693.722106 C217.190725,692.006896 290.697661,692.006896 364.204596,693.722106 L309.074426,697.902953 C364.204615,698.546182 419.334806,700.154215 474.465001,702.72705 L419.334831,685.038818 L474.465001,671.853027 C437.711555,670.137817 400.958087,668.851399 364.204598,667.993774 L364.204598,662.848083 C290.697663,661.132873 217.190727,661.132873 143.683792,662.848083 L143.683792,667.993774 C106.930324,668.851399 70.1768464,670.137817 33.4233588,671.853027 L88.5535901,685.038818 L33.4233568,702.72705 Z M143.68379,667.993774 L143.68379,693.722107 L143.68379,667.993774 Z M364.204596,693.722107 L364.204596,667.993774 L364.204596,693.722107 Z M198.813991,697.902954 L198.813991,692.757324 L198.813991,697.902954 Z M309.074424,692.757324 L309.074424,697.902954 L309.074424,692.757324 Z" id="Shape" stroke="#993333" stroke-linejoin="round"></path>
                <polygon id="Shape" fill-opacity="0" fill="#000000" points="147.35166 653.37915 363.435826 653.37915 363.435826 701.53662 147.35166 701.53662"></polygon>
                <path d="M233.027813,684.37787 L223.526313,684.37787 L223.557313,684.143495 C224.187647,684.143495 224.64748,684.023703 224.936813,683.78412 C225.246813,683.523703 225.401813,682.289328 225.401813,680.080995 L225.401813,675.37787 C225.401813,674.023703 225.36048,673.09662 225.277813,672.59662 C225.20548,672.086203 225.091813,671.768495 224.936813,671.643495 C224.64748,671.403912 224.187647,671.28412 223.557313,671.28412 L223.526313,671.080995 L232.330313,671.080995 L232.330313,673.81537 L232.097813,673.768495 C232.097813,672.924745 231.65348,672.341412 230.764813,672.018495 C229.88648,671.685162 228.532813,671.518495 226.703813,671.518495 L226.703813,677.50287 C227.912813,677.50287 228.780813,677.44037 229.307813,677.31537 C229.834813,677.179953 230.170647,676.987245 230.315313,676.737245 C230.470313,676.476828 230.547813,676.039328 230.547813,675.424745 L230.764813,675.393495 L230.764813,680.00287 L230.547813,679.97162 C230.547813,679.34662 230.470313,678.90912 230.315313,678.65912 C230.170647,678.40912 229.834813,678.226828 229.307813,678.112245 C228.780813,677.987245 227.912813,677.924745 226.703813,677.924745 L226.703813,680.362245 C226.703813,681.705995 226.750313,682.601828 226.843313,683.049745 C226.946647,683.487245 227.15848,683.78412 227.478813,683.94037 C231.023147,683.94037 232.795313,683.179953 232.795313,681.65912 L233.027813,681.62787 L233.027813,684.37787 Z M235.345124,681.549745 C235.345124,682.372662 235.562124,682.992453 235.996124,683.40912 C236.440457,683.81537 236.967457,684.018495 237.577124,684.018495 C238.186791,684.018495 238.677624,683.87787 239.049624,683.59662 C239.431957,683.31537 239.623124,682.94037 239.623124,682.47162 C239.623124,681.992453 239.462957,681.601828 239.142624,681.299745 C238.822291,680.997662 238.434791,680.75287 237.980124,680.56537 C237.525457,680.367453 237.065624,680.169537 236.600624,679.97162 C236.145957,679.763287 235.758457,679.466412 235.438124,679.080995 C235.117791,678.685162 234.957624,678.15912 234.957624,677.50287 C234.957624,676.84662 235.246957,676.299745 235.825624,675.862245 C236.414624,675.424745 237.091457,675.205995 237.856124,675.205995 C238.951457,675.205995 239.809124,675.383078 240.429124,675.737245 C240.429124,676.320578 240.351624,677.12787 240.196624,678.15912 L239.979624,678.112245 C239.979624,677.268495 239.788457,676.65912 239.406124,676.28412 C239.034124,675.90912 238.579457,675.72162 238.042124,675.72162 C237.504791,675.72162 237.075957,675.862245 236.755624,676.143495 C236.435291,676.414328 236.275124,676.789328 236.275124,677.268495 C236.275124,677.737245 236.435291,678.117453 236.755624,678.40912 C237.075957,678.69037 237.463457,678.924745 237.918124,679.112245 C238.372791,679.299745 238.827457,679.50287 239.282124,679.72162 C239.747124,679.929953 240.139791,680.226828 240.460124,680.612245 C240.780457,680.997662 240.940624,681.466412 240.940624,682.018495 C240.940624,682.830995 240.625457,683.461203 239.995124,683.90912 C239.364791,684.34662 238.538124,684.56537 237.515124,684.56537 C236.492124,684.56537 235.629291,684.294537 234.926624,683.75287 C234.926624,683.117453 234.988624,682.367453 235.112624,681.50287 L235.345124,681.549745 Z M244.904507,675.393495 L247.229507,675.393495 L247.229507,675.81537 L244.904507,675.81537 L244.904507,683.049745 C244.904507,683.310162 244.966507,683.523703 245.090507,683.69037 C245.214507,683.84662 245.37984,683.924745 245.586507,683.924745 C246.041174,683.924745 246.57334,683.789328 247.183007,683.518495 L247.229507,683.737245 C246.34084,684.289328 245.560674,684.56537 244.889007,684.56537 C244.444674,684.56537 244.114007,684.461203 243.897007,684.25287 C243.69034,684.03412 243.587007,683.65912 243.587007,683.12787 L243.587007,675.81537 L242.455507,675.81537 L242.455507,675.393495 C243.137507,675.393495 243.61284,675.200787 243.881507,674.81537 C244.150174,674.429953 244.351674,673.857037 244.486007,673.09662 L244.904507,673.049745 L244.904507,675.393495 Z M263.006722,680.080995 C263.006722,681.851828 263.079055,682.903912 263.223722,683.237245 C263.306388,683.403912 263.394222,683.560162 263.487222,683.705995 C263.580222,683.851828 263.714555,683.950787 263.890222,684.00287 C264.241555,684.09662 264.685888,684.143495 265.223222,684.143495 L265.269722,684.37787 L259.426222,684.37787 L259.457222,684.143495 C259.839555,684.143495 260.139222,684.133078 260.356222,684.112245 C260.573222,684.091412 260.769555,684.023703 260.945222,683.90912 C261.131222,683.794537 261.265555,683.664328 261.348222,683.518495 C261.430888,683.372662 261.503222,683.122662 261.565222,682.768495 C261.647888,682.258078 261.689222,681.362245 261.689222,680.080995 L261.689222,675.06537 C261.689222,674.200787 261.410222,673.768495 260.852222,673.768495 C260.449222,673.768495 259.741388,673.997662 258.728722,674.455995 L258.573722,674.09662 C260.743722,673.107037 262.149055,672.393495 262.789722,671.955995 L263.006722,672.049745 L263.006722,680.080995 Z M268.59759,682.72162 C269.320923,683.482037 270.214757,683.862245 271.27909,683.862245 C272.343423,683.862245 273.20109,683.31537 273.85209,682.22162 C274.513423,681.12787 274.84409,679.643495 274.84409,677.768495 C274.84409,675.893495 274.58059,674.549745 274.05359,673.737245 C273.52659,672.924745 272.854923,672.518495 272.03859,672.518495 C271.23259,672.518495 270.61259,672.804953 270.17859,673.37787 C269.74459,673.950787 269.52759,674.716412 269.52759,675.674745 C269.52759,676.622662 269.74459,677.325787 270.17859,677.78412 C270.622923,678.242453 271.15509,678.47162 271.77509,678.47162 C272.39509,678.47162 272.98409,678.367453 273.54209,678.15912 L273.71259,678.72162 C272.96859,678.992453 272.24009,679.12787 271.52709,679.12787 C270.50409,679.12787 269.672257,678.830995 269.03159,678.237245 C268.390923,677.643495 268.07059,676.789328 268.07059,675.674745 C268.07059,674.549745 268.463257,673.653912 269.24859,672.987245 C270.044257,672.310162 271.020757,671.97162 272.17809,671.97162 C273.345757,671.97162 274.306757,672.461203 275.06109,673.44037 C275.815423,674.419537 276.19259,675.914328 276.19259,677.924745 C276.19259,679.924745 275.737923,681.53412 274.82859,682.75287 C273.92959,683.961203 272.803257,684.56537 271.44959,684.56537 C270.095923,684.56537 269.021257,684.070578 268.22559,683.080995 L268.59759,682.72162 Z M282.356928,681.799745 C282.356928,682.008078 282.393094,682.341412 282.465428,682.799745 C282.548094,683.247662 282.589428,683.575787 282.589428,683.78412 C282.589428,683.992453 282.501594,684.174745 282.325928,684.330995 C282.150261,684.487245 281.943594,684.56537 281.705928,684.56537 C281.468261,684.56537 281.261594,684.47162 281.085928,684.28412 C280.910261,684.09662 280.822428,683.830995 280.822428,683.487245 C280.822428,682.247662 281.308094,680.570578 282.279428,678.455995 C283.261094,676.341412 284.397771,674.497662 285.689458,672.924745 C283.178438,672.924745 281.468261,673.060162 280.558928,673.330995 C279.659928,673.591412 279.210428,674.12787 279.210428,674.94037 L278.993428,674.90912 L278.993428,672.15912 L286.727958,672.15912 L286.727958,672.40912 C285.384624,674.03412 284.320281,675.711203 283.534928,677.44037 C282.749594,679.169537 282.356928,680.622662 282.356928,681.799745 L282.356928,681.799745 Z M288.149296,678.31537 C288.149296,676.336203 288.552296,674.78412 289.358296,673.65912 C290.174629,672.53412 291.213129,671.97162 292.473796,671.97162 C293.744796,671.97162 294.778129,672.53412 295.573796,673.65912 C296.379796,674.78412 296.782796,676.336203 296.782796,678.31537 C296.782796,680.28412 296.384963,681.820578 295.589296,682.924745 C294.803963,684.018495 293.770629,684.56537 292.489296,684.56537 C291.218296,684.56537 290.174629,684.018495 289.358296,682.924745 C288.552296,681.820578 288.149296,680.28412 288.149296,678.31537 Z M289.497796,678.299745 C289.497796,679.997662 289.781963,681.37787 290.350296,682.44037 C290.928963,683.492453 291.641963,684.018495 292.489296,684.018495 C293.336629,684.018495 294.034129,683.492453 294.581796,682.44037 C295.139796,681.388287 295.418796,680.013287 295.418796,678.31537 C295.418796,676.607037 295.139796,675.205995 294.581796,674.112245 C294.034129,673.018495 293.336629,672.47162 292.489296,672.47162 C291.641963,672.47162 290.928963,673.018495 290.350296,674.112245 C289.781963,675.205995 289.497796,676.601828 289.497796,678.299745 Z" id="Shape" fill="#EFEFEF" fill-rule="nonzero"></path>
                <polygon id="Shape" fill-opacity="0" fill="#000000" points="142.589882 28.014631 358.674047 28.014631 358.674047 57.179985 142.589882 57.179985"></polygon>
                <path d="M210.799454,40.517307 L210.799454,45.220432 C210.799454,47.126682 210.892454,48.267307 211.078454,48.642307 C211.140454,48.798557 211.248954,48.9339737 211.403954,49.048557 C211.558954,49.1631403 211.724288,49.2308487 211.899954,49.251682 C212.085954,49.2725153 212.328788,49.282932 212.628454,49.282932 L212.674954,49.517307 L207.575454,49.517307 L207.621954,49.282932 C207.931954,49.282932 208.174788,49.2725153 208.350454,49.251682 C208.536454,49.2308487 208.706954,49.1631403 208.861954,49.048557 C209.027288,48.9339737 209.140954,48.8037653 209.202954,48.657932 C209.275288,48.5120987 209.337288,48.267307 209.388954,47.923557 C209.450954,47.4756403 209.481954,46.5745987 209.481954,45.220432 L209.481954,43.126682 L201.855954,43.126682 L201.855954,45.220432 C201.855954,46.5745987 201.892121,47.501682 201.964454,48.001682 C202.047121,48.4912653 202.165954,48.798557 202.320954,48.923557 C202.610288,49.1631403 203.070121,49.282932 203.700454,49.282932 L203.731454,49.517307 L198.647454,49.517307 L198.678454,49.282932 C198.998788,49.282932 199.246788,49.2725153 199.422454,49.251682 C199.598121,49.2308487 199.763454,49.1631403 199.918454,49.048557 C200.073454,48.9339737 200.181954,48.8037653 200.243954,48.657932 C200.316288,48.5120987 200.378288,48.267307 200.429954,47.923557 C200.491954,47.4756403 200.522954,46.5745987 200.522954,45.220432 L200.522954,40.517307 C200.522954,39.1943903 200.486788,38.2725153 200.414454,37.751682 C200.342121,37.2308487 200.228454,36.907932 200.073454,36.782932 C199.773788,36.5433487 199.308788,36.423557 198.678454,36.423557 L198.647454,36.220432 L203.731454,36.220432 L203.700454,36.423557 C203.070121,36.423557 202.610288,36.5433487 202.320954,36.782932 C202.010954,37.0537653 201.855954,38.298557 201.855954,40.517307 L201.855954,42.642307 L209.481954,42.642307 L209.481954,40.517307 C209.481954,38.6214737 209.388954,37.4756403 209.202954,37.079807 C209.140954,36.923557 209.027288,36.7881403 208.861954,36.673557 C208.706954,36.5589737 208.536454,36.4912653 208.350454,36.470432 C208.174788,36.439182 207.931954,36.423557 207.621954,36.423557 L207.575454,36.220432 L212.674954,36.220432 L212.628454,36.423557 C212.328788,36.423557 212.085954,36.439182 211.899954,36.470432 C211.724288,36.4912653 211.558954,36.5589737 211.403954,36.673557 C211.248954,36.7881403 211.135288,36.923557 211.062954,37.079807 C211.000954,37.2256403 210.944121,37.470432 210.892454,37.814182 C210.830454,38.3662653 210.799454,39.267307 210.799454,40.517307 Z M214.081367,45.017307 C214.081367,43.6943903 214.458534,42.5850153 215.212867,41.689182 C215.967201,40.7933487 216.990201,40.345432 218.281867,40.345432 C219.573534,40.345432 220.612034,40.7933487 221.397367,41.689182 C222.193034,42.5850153 222.590867,43.6995987 222.590867,45.032932 C222.590867,46.3662653 222.208534,47.4808487 221.443867,48.376682 C220.689534,49.2620987 219.666534,49.704807 218.374867,49.704807 C217.083201,49.704807 216.044701,49.2568903 215.259367,48.361057 C214.474034,47.454807 214.081367,46.3402237 214.081367,45.017307 Z M216.251367,48.111057 C216.747367,48.923557 217.455201,49.329807 218.374867,49.329807 C219.294534,49.329807 219.986867,48.9339737 220.451867,48.142307 C220.927201,47.3402237 221.164867,46.3089737 221.164867,45.048557 C221.164867,43.7881403 220.911701,42.751682 220.405367,41.939182 C219.909367,41.126682 219.201534,40.720432 218.281867,40.720432 C217.372534,40.720432 216.680201,41.1214737 216.204867,41.923557 C215.739867,42.7256403 215.507367,43.7568903 215.507367,45.017307 C215.507367,46.267307 215.755367,47.298557 216.251367,48.111057 Z M230.731577,47.439182 C230.938243,46.9495987 231.088077,46.454807 231.181077,45.954807 C231.28441,45.4443903 231.336077,44.8975153 231.336077,44.314182 C231.336077,43.7308487 231.320577,43.2412653 231.289577,42.845432 C231.26891,42.4495987 231.227577,42.1006403 231.165577,41.798557 C231.103577,41.486057 230.995077,41.2620987 230.840077,41.126682 C230.561077,40.876682 230.101243,40.751682 229.460577,40.751682 L229.429577,40.548557 C230.52491,40.4131403 231.599577,40.345432 232.653577,40.345432 L232.653577,45.298557 C232.653577,46.704807 232.69491,47.626682 232.777577,48.064182 C232.870577,48.501682 233.087577,48.720432 233.428577,48.720432 C233.635243,48.720432 233.914243,48.6318903 234.265577,48.454807 L234.358577,48.642307 C234.265577,48.7152237 234.13641,48.8089737 233.971077,48.923557 C233.805743,49.0277237 233.46991,49.1683487 232.963577,49.345432 C232.467577,49.5225153 231.987077,49.611057 231.522077,49.611057 C231.398077,48.8818903 231.336077,48.032932 231.336077,47.064182 C230.75741,48.8245987 229.755077,49.704807 228.329077,49.704807 C226.407077,49.704807 225.446077,48.6943903 225.446077,46.673557 L225.446077,44.829807 C225.446077,42.923557 225.353077,41.7777237 225.167077,41.392307 C225.105077,41.2464737 224.99141,41.1162653 224.826077,41.001682 C224.671077,40.8870987 224.500577,40.8193903 224.314577,40.798557 C224.13891,40.767307 223.896077,40.751682 223.586077,40.751682 L223.539577,40.548557 C224.63491,40.4131403 225.709577,40.345432 226.763577,40.345432 L226.763577,46.470432 C226.763577,47.345432 226.89791,48.0068903 227.166577,48.454807 C227.445577,48.892307 227.869243,49.111057 228.437577,49.111057 C229.00591,49.111057 229.481243,48.954807 229.863577,48.642307 C230.24591,48.329807 230.535243,47.9287653 230.731577,47.439182 Z M235.987409,46.689182 C235.987409,47.5120987 236.204409,48.1318903 236.638409,48.548557 C237.082742,48.954807 237.609742,49.157932 238.219409,49.157932 C238.829076,49.157932 239.319909,49.017307 239.691909,48.736057 C240.074242,48.454807 240.265409,48.079807 240.265409,47.611057 C240.265409,47.1318903 240.105242,46.7412653 239.784909,46.439182 C239.464576,46.1370987 239.077076,45.892307 238.622409,45.704807 C238.167742,45.5068903 237.707909,45.3089737 237.242909,45.111057 C236.788242,44.9027237 236.400742,44.6058487 236.080409,44.220432 C235.760076,43.8245987 235.599909,43.298557 235.599909,42.642307 C235.599909,41.986057 235.889242,41.439182 236.467909,41.001682 C237.056909,40.564182 237.733742,40.345432 238.498409,40.345432 C239.593742,40.345432 240.451409,40.5225153 241.071409,40.876682 C241.071409,41.4600153 240.993909,42.267307 240.838909,43.298557 L240.621909,43.251682 C240.621909,42.407932 240.430742,41.798557 240.048409,41.423557 C239.676409,41.048557 239.221742,40.861057 238.684409,40.861057 C238.147076,40.861057 237.718242,41.001682 237.397909,41.282932 C237.077576,41.5537653 236.917409,41.9287653 236.917409,42.407932 C236.917409,42.876682 237.077576,43.2568903 237.397909,43.548557 C237.718242,43.829807 238.105742,44.064182 238.560409,44.251682 C239.015076,44.439182 239.469742,44.642307 239.924409,44.861057 C240.389409,45.0693903 240.782076,45.3662653 241.102409,45.751682 C241.422742,46.1370987 241.582909,46.6058487 241.582909,47.157932 C241.582909,47.970432 241.267742,48.6006403 240.637409,49.048557 C240.007076,49.486057 239.180409,49.704807 238.157409,49.704807 C237.134409,49.704807 236.271576,49.4339737 235.568909,48.892307 C235.568909,48.2568903 235.630909,47.5068903 235.754909,46.642307 L235.987409,46.689182 Z M250.599792,44.704807 L244.415292,44.704807 L244.415292,45.032932 C244.415292,46.376682 244.694292,47.4027237 245.252292,48.111057 C245.820625,48.8089737 246.528459,49.157932 247.375792,49.157932 C248.636459,49.157932 249.540625,48.6527237 250.088292,47.642307 L250.367292,47.782932 C249.716292,49.064182 248.626125,49.704807 247.096792,49.704807 C245.960125,49.704807 244.988792,49.2933487 244.182792,48.470432 C243.387125,47.6475153 242.989292,46.5381403 242.989292,45.142307 C242.989292,43.736057 243.340625,42.5850153 244.043292,41.689182 C244.756292,40.7933487 245.706959,40.345432 246.895292,40.345432 C248.083625,40.345432 248.998125,40.7568903 249.638792,41.579807 C250.279459,42.392307 250.599792,43.4339737 250.599792,44.704807 Z M246.941792,40.720432 C246.208125,40.720432 245.629459,41.032932 245.205792,41.657932 C244.792459,42.282932 244.539292,43.1162653 244.446292,44.157932 L249.142792,44.157932 C249.060125,41.8662653 248.326459,40.720432 246.941792,40.720432 Z M256.758499,45.017307 C256.758499,43.6943903 257.135666,42.5850153 257.889999,41.689182 C258.644332,40.7933487 259.667332,40.345432 260.958999,40.345432 C262.250666,40.345432 263.289166,40.7933487 264.074499,41.689182 C264.870166,42.5850153 265.267999,43.6995987 265.267999,45.032932 C265.267999,46.3662653 264.885666,47.4808487 264.120999,48.376682 C263.366666,49.2620987 262.343666,49.704807 261.051999,49.704807 C259.760332,49.704807 258.721832,49.2568903 257.936499,48.361057 C257.151166,47.454807 256.758499,46.3402237 256.758499,45.017307 Z M258.928499,48.111057 C259.424499,48.923557 260.132332,49.329807 261.051999,49.329807 C261.971666,49.329807 262.663999,48.9339737 263.128999,48.142307 C263.604332,47.3402237 263.841999,46.3089737 263.841999,45.048557 C263.841999,43.7881403 263.588832,42.751682 263.082499,41.939182 C262.586499,41.126682 261.878666,40.720432 260.958999,40.720432 C260.049666,40.720432 259.357332,41.1214737 258.881999,41.923557 C258.416999,42.7256403 258.184499,43.7568903 258.184499,45.017307 C258.184499,46.267307 258.432499,47.298557 258.928499,48.111057 Z M269.688708,40.954807 L269.688708,45.220432 C269.688708,46.5745987 269.730041,47.501682 269.812708,48.001682 C269.895375,48.4912653 270.009041,48.798557 270.153708,48.923557 C270.443041,49.1631403 270.902875,49.282932 271.533208,49.282932 L271.579708,49.517307 L266.511238,49.517307 L266.542238,49.282932 C266.841905,49.282932 267.079572,49.2725153 267.255238,49.251682 C267.441238,49.2308487 267.611738,49.1631403 267.766738,49.048557 C267.921738,48.9339737 268.030238,48.8037653 268.092238,48.657932 C268.164572,48.5120987 268.226572,48.267307 268.278238,47.923557 C268.340238,47.4756403 268.371238,46.5745987 268.371238,45.220432 L268.371238,40.954807 L266.635238,40.954807 L266.635238,40.532932 L268.371238,40.532932 C268.371238,38.1370987 268.820728,36.5902237 269.719708,35.892307 C270.205375,35.5381403 270.778875,35.361057 271.440208,35.361057 C272.111875,35.361057 272.747375,35.5381403 273.346708,35.892307 C273.946041,36.2464737 274.245708,36.6527237 274.245708,37.111057 C274.245708,37.298557 274.173375,37.4652237 274.028708,37.611057 C273.884041,37.7464737 273.692875,37.814182 273.455208,37.814182 C273.217541,37.814182 273.010875,37.7152237 272.835208,37.517307 C272.659541,37.3089737 272.530375,37.0902237 272.447708,36.861057 C272.365041,36.6214737 272.220375,36.4027237 272.013708,36.204807 C271.817375,35.9964737 271.569375,35.892307 271.269708,35.892307 C270.629041,35.892307 270.205375,36.1943903 269.998708,36.798557 C269.792041,37.4027237 269.688708,38.3506403 269.688708,39.642307 L269.688708,40.532932 L272.184208,40.532932 L272.184208,40.954807 L269.688708,40.954807 Z M287.630958,49.517307 C287.320958,49.517307 287.010958,49.3558487 286.700958,49.032932 C286.390958,48.7100153 286.111958,48.3089737 285.863958,47.829807 C285.626291,47.3506403 285.342124,46.829807 285.011458,46.267307 C284.691124,45.6943903 284.365624,45.1631403 284.034958,44.673557 C283.704291,44.173557 283.285791,43.7568903 282.779458,43.423557 C282.283458,43.079807 281.751291,42.892307 281.182958,42.861057 L281.182958,45.220432 C281.182958,46.595432 281.224291,47.5277237 281.306958,48.017307 C281.389624,48.4964737 281.508458,48.798557 281.663458,48.923557 C281.963124,49.1631403 282.428124,49.282932 283.058458,49.282932 L283.089458,49.517307 L278.036458,49.517307 L278.082958,49.282932 C278.692624,49.282932 279.142124,49.173557 279.431458,48.954807 C279.669124,48.7568903 279.808624,48.1318903 279.849958,47.079807 C279.870624,46.6631403 279.880958,46.0433487 279.880958,45.220432 L279.880958,40.423557 C279.880958,39.017307 279.844791,38.0850153 279.772458,37.626682 C279.700124,37.1683487 279.586458,36.8818903 279.431458,36.767307 C279.142124,36.548557 278.692624,36.439182 278.082958,36.439182 L278.036458,36.220432 L282.407458,36.220432 C285.579791,36.220432 287.165958,37.298557 287.165958,39.454807 C287.165958,40.3714737 286.840458,41.1475153 286.189458,41.782932 C285.548791,42.407932 284.768624,42.767307 283.848958,42.861057 C284.768624,43.4131403 285.615958,44.4183487 286.390958,45.876682 C286.690624,46.439182 287.010958,46.9808487 287.351958,47.501682 C288.095958,48.689182 289.051791,49.282932 290.219458,49.282932 L290.250458,49.517307 L287.630958,49.517307 Z M281.182958,36.657932 L281.182958,42.486057 L282.376458,42.486057 C283.327124,42.486057 284.117624,42.2412653 284.747958,41.751682 C285.378291,41.251682 285.693458,40.517307 285.693458,39.548557 C285.693458,37.6214737 284.598124,36.657932 282.407458,36.657932 L281.182958,36.657932 Z M289.849032,45.017307 C289.849032,43.6943903 290.226199,42.5850153 290.980532,41.689182 C291.734865,40.7933487 292.757865,40.345432 294.049532,40.345432 C295.341199,40.345432 296.379699,40.7933487 297.165032,41.689182 C297.960699,42.5850153 298.358532,43.6995987 298.358532,45.032932 C298.358532,46.3662653 297.976199,47.4808487 297.211532,48.376682 C296.457199,49.2620987 295.434199,49.704807 294.142532,49.704807 C292.850865,49.704807 291.812365,49.2568903 291.027032,48.361057 C290.241699,47.454807 289.849032,46.3402237 289.849032,45.017307 Z M292.019032,48.111057 C292.515032,48.923557 293.222865,49.329807 294.142532,49.329807 C295.062199,49.329807 295.754532,48.9339737 296.219532,48.142307 C296.694865,47.3402237 296.932532,46.3089737 296.932532,45.048557 C296.932532,43.7881403 296.679365,42.751682 296.173032,41.939182 C295.677032,41.126682 294.969199,40.720432 294.049532,40.720432 C293.140199,40.720432 292.447865,41.1214737 291.972532,41.923557 C291.507532,42.7256403 291.275032,43.7568903 291.275032,45.017307 C291.275032,46.267307 291.523032,47.298557 292.019032,48.111057 Z M300.764241,53.501682 C301.394574,53.501682 301.916408,53.2568903 302.329741,52.767307 C302.753408,52.2881403 303.187408,51.501682 303.631741,50.407932 L300.826241,43.267307 C300.402574,42.204807 300.025408,41.5225153 299.694741,41.220432 C299.364074,40.907932 298.966241,40.751682 298.501241,40.751682 L298.470241,40.532932 L303.135741,40.532932 L303.104741,40.751682 C302.660408,40.751682 302.350408,40.8245987 302.174741,40.970432 C302.009408,41.1058487 301.926741,41.3193903 301.926741,41.611057 C301.926741,42.1943903 302.221241,43.236057 302.810241,44.736057 L304.267241,48.407932 L305.739741,43.861057 C306.029074,42.9443903 306.173741,42.251682 306.173741,41.782932 C306.173741,41.095432 305.734574,40.751682 304.856241,40.751682 L304.809741,40.532932 L308.359241,40.532932 L308.328241,40.751682 C307.811574,40.751682 307.449908,40.923557 307.243241,41.267307 C307.036574,41.6006403 306.649074,42.6318903 306.080741,44.361057 L304.375741,49.579807 C303.828074,51.2881403 303.182241,52.6006403 302.438241,53.517307 C301.694241,54.4443903 300.924408,54.907932 300.128741,54.907932 C299.756741,54.907932 299.451908,54.8350153 299.214241,54.689182 C298.976574,54.5433487 298.857741,54.3402237 298.857741,54.079807 C298.857741,53.829807 298.935241,53.6318903 299.090241,53.486057 C299.255574,53.3402237 299.426074,53.267307 299.601741,53.267307 C299.787741,53.267307 299.994408,53.3037653 300.221741,53.376682 C300.449074,53.4600153 300.629908,53.501682 300.764241,53.501682 Z" id="Shape" fill="#EFEFEF" fill-rule="nonzero"></path>
            </g>
        </g>
    </g>
</svg>