<?xml version="1.0" encoding="UTF-8"?>
<svg width="100px" height="100px" viewBox="0 0 100 100" version="1.1" xmlns="http://www.w3.org/2000/svg" xmlns:xlink="http://www.w3.org/1999/xlink">
    <!-- Generator: Sketch 46.2 (44496) - http://www.bohemiancoding.com/sketch -->
    <title>github</title>
    <desc>Created with Sketch.</desc>
    <defs></defs>
    <g id="Page-1" stroke="none" stroke-width="1" fill="none" fill-rule="evenodd">
        <g id="github" fill-rule="nonzero" fill="#161614">
            <g id="github-icon-1" transform="translate(9.000000, 8.000000)">
                <path d="M41.0001608,0 C18.3593128,0 0,18.3616523 0,41.0125685 C0,59.1333015 11.7477736,74.5064609 28.0385084,79.9295573 C30.0874714,80.3091097 30.8399155,79.0398607 30.8399155,77.9565281 C30.8399155,76.9786981 30.8016501,73.7476778 30.784286,70.3207698 C19.3776847,72.8016916 16.9708285,65.4817981 16.9708285,65.4817981 C15.1057963,60.7412528 12.4185421,59.4810101 12.4185421,59.4810101 C8.69876749,56.9354357 12.69894,56.9875437 12.69894,56.9875437 C16.8161594,57.2770328 18.9840986,61.214085 18.9840986,61.214085 C22.640848,67.4840979 28.5755091,65.6712527 30.9151599,64.6236237 C31.2830214,61.9725465 32.3457682,60.1635611 33.518166,59.1394129 C24.4116639,58.1020769 14.8382606,54.5854272 14.8382606,38.8706706 C14.8382606,34.3932387 16.4399374,30.7344177 19.0628801,27.8623639 C18.6371383,26.8292093 17.2338623,22.6579926 19.4600034,17.0087731 C19.4600034,17.0087731 22.9029172,15.9064628 30.7379818,21.2127986 C34.0082193,20.3038027 37.5157661,19.8483398 41.0001608,19.8329004 C44.4845554,19.8483398 47.9946747,20.3038027 51.2713434,21.2127986 C59.0970828,15.9064628 62.5351733,17.0087731 62.5351733,17.0087731 C64.7667808,22.6579926 63.3628617,26.8292093 62.9371199,27.8623639 C65.5658506,30.7344177 67.1565945,34.392917 67.1565945,38.8706706 C67.1565945,54.6227392 57.565184,58.0914623 48.4355297,59.1066041 C49.9060112,60.3793914 51.2163571,62.875431 51.2163571,66.7015123 C51.2163571,72.1889396 51.1687666,76.6055788 51.1687666,77.9565281 C51.1687666,79.0479021 51.9067405,80.3268008 53.9852868,79.9240892 C70.267018,74.4948814 82,59.12719 82,41.0125685 C82,18.3616523 63.6432596,0 41.0001608,0" id="Shape"></path>
                <path d="M16.1184278,58.666014 C16.026728,58.8609995 15.6998835,58.919526 15.4028414,58.7858392 C15.0999044,58.6576971 14.9296047,58.3915557 15.0278545,58.195646 C15.1179169,57.9948078 15.4447614,57.9387456 15.7470434,58.0736645 C16.0506354,58.2014986 16.2235552,58.4701043 16.1184278,58.666014 M18.1725047,60.3897726 C17.973385,60.5635038 17.5839881,60.4827988 17.319696,60.2083405 C17.0465614,59.9344982 16.9954715,59.5685538 17.1975387,59.3920503 C17.4028809,59.2186271 17.7804878,59.29964 18.0542774,59.5737903 C18.327412,59.850713 18.3804669,60.2145012 18.1721772,60.3900806 M19.581735,62.5952964 C19.3256304,62.7625589 18.9070861,62.6057695 18.648689,62.2564589 C18.3929119,61.9074563 18.3929119,61.48853 18.6542565,61.3206515 C18.9136361,61.1527729 19.3256304,61.3037096 19.58763,61.6502479 C19.8430796,62.0054112 19.8430796,62.4243375 19.5814075,62.5956044 M21.9646214,65.1498228 C21.7356992,65.387009 21.24838,65.323554 20.8914055,64.9995022 C20.5265711,64.6828431 20.4247187,64.2334215 20.6542959,63.9959272 C20.885838,63.7581249 21.3761048,63.8249683 21.7356992,64.1462478 C22.0982412,64.4622908 22.208936,64.9151008 21.9649489,65.1498228 M25.0444267,66.0123181 C24.9438843,66.3197361 24.4742501,66.4595836 24.0013408,66.3289771 C23.5290865,66.1943662 23.219927,65.8339664 23.3152293,65.52316 C23.4134792,65.2135858 23.8850785,65.0678857 24.3615902,65.2077332 C24.8331895,65.341728 25.143004,65.6993555 25.0447542,66.0123181 M28.5499813,66.3779545 C28.5617713,66.7020064 28.1605844,66.9706121 27.6640952,66.9764647 C27.1646584,66.9866298 26.7608516,66.7244929 26.7556116,66.4059856 C26.7556116,66.0788535 27.1476285,65.8127121 27.6467377,65.8050112 C28.1432269,65.7957702 28.5499813,66.056059 28.5499813,66.3779545 M31.993311,66.2538168 C32.052916,66.5698598 31.7077315,66.8945276 31.2148447,66.9807772 C30.7301455,67.0639464 30.2814712,66.8689608 30.2195738,66.5556902 C30.1593138,66.2316384 30.5110483,65.9072785 30.9947651,65.8231852 C31.4886343,65.7424803 31.9304311,65.9325373 31.993311,66.2538168" id="Shape"></path>
            </g>
        </g>
    </g>
</svg>