<?xml version="1.0" encoding="UTF-8"?>
<svg width="200px" height="100px" viewBox="0 0 200 100" version="1.1" xmlns="http://www.w3.org/2000/svg" xmlns:xlink="http://www.w3.org/1999/xlink">
    <!-- Generator: Sketch 46.2 (44496) - http://www.bohemiancoding.com/sketch -->
    <title>html_css</title>
    <desc>Created with Sketch.</desc>
    <defs>
        <linearGradient x1="50%" y1="100.001238%" x2="50%" y2="0.00123760845%" id="linearGradient-1">
            <stop stop-color="#D1D3D4" stop-opacity="0" offset="38.7%"></stop>
            <stop stop-color="#D1D3D4" offset="100%"></stop>
        </linearGradient>
        <linearGradient x1="49.9990423%" y1="100.001191%" x2="49.9990423%" y2="0.00119063211%" id="linearGradient-2">
            <stop stop-color="#D1D3D4" stop-opacity="0" offset="38.7%"></stop>
            <stop stop-color="#D1D3D4" offset="100%"></stop>
        </linearGradient>
        <linearGradient x1="5.85818348e-14%" y1="50.0006558%" x2="99.9994847%" y2="50.0006558%" id="linearGradient-3">
            <stop stop-color="#E8E7E5" offset="0%"></stop>
            <stop stop-color="#FFFFFF" offset="100%"></stop>
        </linearGradient>
        <linearGradient x1="1.34896956e-14%" y1="50%" x2="99.9995254%" y2="50%" id="linearGradient-4">
            <stop stop-color="#E8E7E5" offset="0%"></stop>
            <stop stop-color="#FFFFFF" offset="100%"></stop>
        </linearGradient>
    </defs>
    <g id="Page-1" stroke="none" stroke-width="1" fill="none" fill-rule="evenodd">
        <g id="html_css">
            <g id="html5" transform="translate(12.000000, 4.000000)" fill-rule="nonzero">
                <polygon id="Shape" fill="#E44D26" points="7.46237273 84.6713651 0 18.6875 82 18.6875 74.5294273 84.660934 40.9496818 92"></polygon>
                <polygon id="Shape" fill="#F16529" points="41 86.25 68.0942486 80.2297201 74.4693878 23 41 23"></polygon>
                <path d="M41,48.0664224 L27.3121147,48.0664224 L26.3665749,39.7482336 L41,39.7482336 L41,31.625 L15.0612245,31.625 L15.3091118,33.8043106 L17.8514588,56.189361 L41,56.189361 L41,48.0664224 Z M41,69.1628805 L40.954554,69.1726136 L29.4341801,66.7296267 L28.6976544,60.2512727 L18.3138062,60.2512727 L19.7631956,73.0057994 L40.9526761,77.625 L41,77.6145296 L41,69.1628805 Z" id="Shape" fill="#EBEBEB"></path>
                <path d="M7.53061224,0 L12.7514264,0 L12.7514264,4.27223284 L17.5272255,4.27223284 L17.5272255,0 L22.7482262,0 L22.7482262,12.9375 L17.5272255,12.9375 L17.5272255,8.60532985 L12.7514264,8.60532985 L12.7514264,12.9375 L7.53098527,12.9375 L7.53061224,0 Z M29.6142533,4.29046119 L25.0182508,4.29046119 L25.0182508,0 L39.4342407,0 L39.4342407,4.29046119 L34.836,4.29046119 L34.836,12.9375 L29.6144398,12.9375 L29.6144398,4.29046119 L29.6142533,4.29046119 Z M41.7217973,0 L47.1660516,0 L50.5148555,4.54596716 L53.8604887,0 L59.3066081,0 L59.3066081,12.9375 L54.1063101,12.9375 L54.1063101,6.52482537 L50.5142959,11.1248597 L50.4245842,11.1248597 L46.8301454,6.52482537 L46.8301454,12.9375 L41.7216108,12.9375 L41.7216108,0 L41.7217973,0 Z M61.9045189,0 L67.1268252,0 L67.1268252,8.66125075 L74.4693878,8.66125075 L74.4693878,12.9375 L61.9045189,12.9375 L61.9045189,0 Z" id="Shape" fill="#000000"></path>
                <path d="M41,48.0679511 L41,56.191645 L53.7509504,56.191645 L52.5487931,66.7278763 L41,69.173155 L41,77.625 L62.2278981,73.009647 L62.3831728,71.6367217 L64.8168128,50.2495291 L65.0694632,48.0679511 L62.2794057,48.0679511 L41,48.0679511 Z M41,31.625 L41,39.7489889 L66.0118267,39.7489889 L66.219173,37.9228464 L66.6910127,33.8045132 L66.9387755,31.625 L41,31.625 Z" id="Shape" fill="#FFFFFF"></path>
            </g>
            <g id="css3" transform="translate(87.000000, -3.000000)">
                <polygon id="Shape" points="0 0 127 0 127 106 0 106"></polygon>
                <polygon id="Shape" fill="#2062AF" fill-rule="nonzero" points="95.5931462 91.9722756 63.4997644 99.1296296 31.4059113 91.9722756 24 25.5185185 103 25.5185185"></polygon>
                <polygon id="Shape" fill="#3C9CD7" fill-rule="nonzero" points="64 29.4444444 64 93.2240178 64.0724812 93.2407407 90.0125313 87.3315638 96 29.4444444"></polygon>
                <path d="M45.1273458,16.1748098 L45.1273458,11.7319323 L51.963884,11.7319323 L51.963884,6.87037037 L40,6.87037037 L40,20.6111111 L51.963884,20.6111111 L51.963884,16.1748098 L45.1273458,16.1748098 Z M64.2620697,11.7319323 L69.0417048,11.7319323 L69.0417048,6.87037037 L57.0766648,6.87037037 L57.0766648,11.7319323 C58.6774288,13.2497182 59.5122581,13.9761685 61.8274011,16.1713025 C60.4740112,16.1713025 57.0766648,16.1759058 57.0766648,16.1756866 L57.0766648,20.6111111 L69.0417048,20.6111111 L69.0417048,16.1748098 L64.2620697,11.7319323 Z M81.2203649,11.7319323 L85.9997688,11.7319323 L85.9997688,6.87037037 L74.0342665,6.87037037 L74.0342665,11.7319323 C75.6350304,13.2497182 76.4703222,13.9761685 78.7854651,16.1713025 C77.4325376,16.1713025 74.0342665,16.1759058 74.0342665,16.1756866 L74.0342665,20.6111111 L86,20.6111111 L86,16.1748098 L81.2203649,11.7319323 L81.2203649,11.7319323 Z" id="Shape" fill="#000000" fill-rule="nonzero"></path>
                <polygon id="Shape" fill="#FFFFFF" fill-rule="nonzero" points="64.1760371 46.5199764 41 54.214843 41.7685724 61.8333333 64.1760371 54.1955121 88.0117675 46.0711945 89 38.2777778"></polygon>
                <polygon id="Shape" fill="url(#linearGradient-1)" fill-rule="nonzero" points="41 55.0021246 41.7627346 62.8148148 64 54.9823008 64 47.1111111 41 55.0021246"></polygon>
                <polygon id="Shape" fill="url(#linearGradient-2)" fill-rule="nonzero" points="89 38.2777778 64 46.4090613 64 53.9814815 88.0047595 45.9663084"></polygon>
                <polygon id="Shape" fill="url(#linearGradient-3)" fill-rule="nonzero" points="41 55.9444444 41.7665679 63.7073235 76.0476078 63.7963478 75.2808028 74.1467245 64.0003556 76.734029 53.1565249 74.5034009 52.4994667 68.0789759 42.4236261 68.0789759 43.7379795 80.4815459 64.1098653 85.3888889 84.3712931 80.5705701 87 55.9444444 41 55.9444444"></polygon>
                <path d="M64,55.9444444 L41,55.9444444 L41.7627346,63.7072726 L64,63.7653987 L64,55.9444444 Z M64,76.7091745 L63.8910042,76.7340857 L53.0994769,74.5034723 L52.4455021,68.0790895 L42.4171812,68.0790895 L43.7251308,80.481578 L64,85.3888889 L64,76.7091745 Z" id="Shape" fill="#000000" fill-rule="nonzero" opacity="0.05"></path>
                <polygon id="Shape" fill="url(#linearGradient-4)" fill-rule="nonzero" points="37 38.2777778 87 38.2777778 86.0134889 46.1296296 38.2060259 46.1296296 37 38.2777778"></polygon>
                <polygon id="Shape" fill="#000000" fill-rule="nonzero" opacity="0.05" points="62 38.2777778 37 38.2777778 38.1955397 46.1296296 62 46.1296296 62 38.2777778"></polygon>
            </g>
        </g>
    </g>
</svg>