<?xml version="1.0" encoding="UTF-8"?>
<svg width="1102px" height="53px" viewBox="0 0 1102 53" version="1.1" xmlns="http://www.w3.org/2000/svg" xmlns:xlink="http://www.w3.org/1999/xlink">
    <!-- Generator: Sketch 42 (36781) - http://www.bohemiancoding.com/sketch -->
    <title>logo2 copy</title>
    <desc>Created with Sketch.</desc>
    <defs></defs>
    <g id="Page-1" stroke="none" stroke-width="1" fill="none" fill-rule="evenodd">
        <g id="Artboard">
            <g id="logo2-copy">
                <g id="Page-1">
                    <g id="logo">
                        <rect id="Rectangle" fill="#EC1C24" x="0" y="0" width="1102" height="53"></rect>
                        <g id="Group" transform="translate(511.000000, 5.000000)">
                            <g id="logo" transform="translate(0.000000, 0.000000)">
                                <g id="camera">
                                    <path d="M26.1170741,7.75873715 L30.458297,0.516217809 C30.6276082,0.232247305 31.0912362,0 31.4947349,0 L48.8103681,0 C49.2143942,0 49.6759124,0.236811117 49.836257,0.522302891 L53.888372,7.75873715 L68.956136,7.75873715 C69.7710452,7.75873715 70.4382685,8.38702186 70.4382685,9.15424933 L70.4382685,37.5746259 C70.4382685,38.340332 69.7689353,38.9681097 68.956136,38.9681097 L10.5205551,38.9681097 C9.70511846,38.9681097 9.04264217,38.340332 9.04264217,37.5746259 L9.04316959,9.15424933 C9.04316959,8.38600771 9.7067008,7.75873715 10.5210826,7.75873715 L26.1170741,7.75873715 Z" id="Combined-Shape" fill="#FFFFFF" fill-rule="nonzero"></path>
                                    <path d="M0.493147589,11.7554348 L80.653228,11.7554348" id="Line" stroke="#EC1C24" stroke-width="3" stroke-linecap="square"></path>
                                    <path d="M0.660134708,15.673913 L80.8202151,15.673913" id="Line-Copy" stroke="#EC1C24" stroke-width="3" stroke-linecap="square"></path>
                                    <path d="M0.660134708,19.5923913 L80.8202151,19.5923913" id="Line-Copy-2" stroke="#EC1C24" stroke-width="3" stroke-linecap="square"></path>
                                    <path d="M0.660134708,23.5108696 L80.8202151,23.5108696" id="Line-Copy-3" stroke="#EC1C24" stroke-width="3" stroke-linecap="square"></path>
                                    <path d="M0.660134708,27.4293478 L80.8202151,27.4293478" id="Line-Copy-4" stroke="#EC1C24" stroke-width="3" stroke-linecap="square"></path>
                                    <path d="M0.660134708,31.3478261 L80.8202151,31.3478261" id="Line-Copy-5" stroke="#EC1C24" stroke-width="3" stroke-linecap="square"></path>
                                    <path d="M0.660134708,35.2663043 L80.8202151,35.2663043" id="Line-Copy-6" stroke="#EC1C24" stroke-width="3" stroke-linecap="square"></path>
                                    <path d="M39.6713782,37.5915552 C31.6349496,37.5915552 25.1184504,31.0827196 25.1184504,23.0360914 C25.1184504,14.9989488 31.6349496,8.48285956 39.6713782,8.48285956 C47.7140548,8.48341749 54.2271461,15.0000648 54.2271461,23.0360914 C54.2271461,31.0832776 47.7123508,37.5915552 39.6713782,37.5915552 Z" id="red_lens" stroke="#FFFFFF" stroke-width="2" fill="#EC1C24" fill-rule="nonzero"></path>
                                </g>
                            </g>
                        </g>
                    </g>
                </g>
            </g>
        </g>
    </g>
</svg>