<?xml version="1.0" encoding="UTF-8"?>
<svg width="146px" height="70px" viewBox="0 0 146 70" version="1.1" xmlns="http://www.w3.org/2000/svg" xmlns:xlink="http://www.w3.org/1999/xlink">
    <!-- Generator: Sketch 46.2 (44496) - http://www.bohemiancoding.com/sketch -->
    <title>logo_reverse</title>
    <desc>Created with Sketch.</desc>
    <defs></defs>
    <g id="Page-1" stroke="none" stroke-width="1" fill="none" fill-rule="evenodd">
        <g id="logo_reverse" transform="translate(1.000000, 0.000000)">
            <path d="M45.655744,13.8602683 L53.4109383,0.922175503 C53.7133972,0.414888389 54.5416258,0 55.262439,0 L86.1952206,0 C86.9169761,0 87.7414357,0.423041218 88.0278765,0.933045941 L95.2666063,13.8602683 L122.183777,13.8602683 C123.639537,13.8602683 124.83147,14.982641 124.83147,16.3532221 L124.83147,67.1236035 C124.83147,68.4914669 123.635768,69.6129338 122.183777,69.6129338 L17.7940013,69.6129338 C16.337299,69.6129338 15.1538462,68.4914669 15.1538462,67.1236035 L15.1547884,16.3532221 C15.1547884,14.9808293 16.3401257,13.8602683 17.7949436,13.8602683 L45.655744,13.8602683 Z" id="Combined-Shape" fill="#DC1A22" fill-rule="nonzero"></path>
            <path d="M0,23 L143.19859,23" id="Line" stroke="#F4F0ED" stroke-width="2" stroke-linecap="square"></path>
            <path d="M0,29 L143.19859,29" id="Line-Copy" stroke="#F4F0ED" stroke-width="2" stroke-linecap="square"></path>
            <path d="M0,35 L143.19859,35" id="Line-Copy-2" stroke="#F4F0ED" stroke-width="2" stroke-linecap="square"></path>
            <path d="M0,41 L143.19859,41" id="Line-Copy-3" stroke="#F4F0ED" stroke-width="2" stroke-linecap="square"></path>
            <path d="M0,47 L143.19859,47" id="Line-Copy-4" stroke="#F4F0ED" stroke-width="2" stroke-linecap="square"></path>
            <path d="M0,53 L143.19859,53" id="Line-Copy-5" stroke="#F4F0ED" stroke-width="2" stroke-linecap="square"></path>
            <path d="M0,59 L143.19859,59" id="Line-Copy-6" stroke="#F4F0ED" stroke-width="2" stroke-linecap="square"></path>
            <path d="M69.8692582,67.1538462 C55.5129196,67.1538462 43.8717949,55.5264117 43.8717949,41.1518526 C43.8717949,26.7942387 55.5129196,15.1538462 69.8692582,15.1538462 C84.2367581,15.1548429 95.8717949,26.7962323 95.8717949,41.1518526 C95.8717949,55.5274085 84.2337141,67.1538462 69.8692582,67.1538462 Z" id="red_lens" stroke="#E8F2F1" stroke-width="2" fill="#DC1A22" fill-rule="nonzero"></path>
        </g>
    </g>
</svg>