<?xml version="1.0" encoding="UTF-8"?>
<svg width="186px" height="186px" viewBox="0 0 186 186" version="1.1" xmlns="http://www.w3.org/2000/svg" xmlns:xlink="http://www.w3.org/1999/xlink">
    <!-- Generator: Sketch 43.2 (39069) - http://www.bohemiancoding.com/sketch -->
    <title>logo_forest</title>
    <desc>Created with Sketch.</desc>
    <defs></defs>
    <g id="Page-1" stroke="none" stroke-width="1" fill="none" fill-rule="evenodd">
        <g id="logo_forest" transform="translate(1.000000, 1.000000)">
            <rect id="Rectangle-2" stroke="#F4F0ED" stroke-width="2" fill="#2C993E" fill-rule="nonzero" x="0" y="0" width="184" height="184" rx="92"></rect>
            <g id="Group" transform="translate(21.000000, 51.000000)">
                <g id="logo">
                    <g id="camera">
                        <path d="M46.655744,13.8602683 L54.4109383,0.922175503 C54.7133972,0.414888389 55.5416258,0 56.262439,0 L87.1952206,0 C87.9169761,0 88.7414357,0.423041218 89.0278765,0.933045941 L96.2666063,13.8602683 L123.183777,13.8602683 C124.639537,13.8602683 125.83147,14.982641 125.83147,16.3532221 L125.83147,67.1236035 C125.83147,68.4914669 124.635768,69.6129338 123.183777,69.6129338 L18.7940013,69.6129338 C17.337299,69.6129338 16.1538462,68.4914669 16.1538462,67.1236035 L16.1547884,16.3532221 C16.1547884,14.9808293 17.3401257,13.8602683 18.7949436,13.8602683 L46.655744,13.8602683 Z" id="Combined-Shape" fill="#FFFFFF" fill-rule="nonzero"></path>
                        <path d="M0.880962684,21.5 L144.079553,21.5" id="Line" stroke="#2C993E" stroke-width="5" stroke-linecap="square"></path>
                        <path d="M1.17926977,28.5 L144.37786,28.5" id="Line-Copy" stroke="#2C993E" stroke-width="5" stroke-linecap="square"></path>
                        <path d="M1.17926977,35.5 L144.37786,35.5" id="Line-Copy-2" stroke="#2C993E" stroke-width="5" stroke-linecap="square"></path>
                        <path d="M1.17926977,42.5 L144.37786,42.5" id="Line-Copy-3" stroke="#2C993E" stroke-width="5" stroke-linecap="square"></path>
                        <path d="M1.17926977,49.5 L144.37786,49.5" id="Line-Copy-4" stroke="#2C993E" stroke-width="5" stroke-linecap="square"></path>
                        <path d="M1.17926977,56.5 L144.37786,56.5" id="Line-Copy-5" stroke="#2C993E" stroke-width="5" stroke-linecap="square"></path>
                        <path d="M1.17926977,63.5 L144.37786,63.5" id="Line-Copy-6" stroke="#2C993E" stroke-width="5" stroke-linecap="square"></path>
                        <path d="M70.8692582,67.1538462 C56.5129196,67.1538462 44.8717949,55.5264117 44.8717949,41.1518526 C44.8717949,26.7942387 56.5129196,15.1538462 70.8692582,15.1538462 C85.2367581,15.1548429 96.8717949,26.7962323 96.8717949,41.1518526 C96.8717949,55.5274085 85.2337141,67.1538462 70.8692582,67.1538462 Z" id="red_lens" stroke="#FFFFFF" stroke-width="2" fill="#2C993E" fill-rule="nonzero"></path>
                    </g>
                </g>
            </g>
        </g>
    </g>
</svg>