<?xml version="1.0" encoding="UTF-8"?>
<svg width="1102px" height="229px" viewBox="0 0 1102 229" version="1.1" xmlns="http://www.w3.org/2000/svg" xmlns:xlink="http://www.w3.org/1999/xlink">
    <!-- Generator: Sketch 42 (36781) - http://www.bohemiancoding.com/sketch -->
    <title>logo_wiki</title>
    <desc>Created with Sketch.</desc>
    <defs></defs>
    <g id="Page-1" stroke="none" stroke-width="1" fill="none" fill-rule="evenodd">
        <g id="logo_wiki">
            <g id="logo_rec2">
                <g id="Page-1">
                    <g id="logo_rec">
                        <g id="Page-1">
                            <g id="Group-2">
                                <rect id="Rectangle-1-Copy" fill="#EC1C24" fill-rule="nonzero" x="0" y="0" width="1102" height="229"></rect>
                                <g id="Group" transform="translate(374.000000, 26.000000)">
                                    <g id="logo">
                                        <g id="camera">
                                            <path d="M113.287558,34.1625173 L132.438392,2.27296009 C133.18529,1.02260876 135.230535,0 137.010525,0 L213.396566,0 C215.178883,0 217.214821,1.04270369 217.922164,2.29975333 L235.79763,34.1625173 L302.267438,34.1625173 C305.862322,34.1625173 308.805705,36.9289197 308.805705,40.3071009 L308.805705,165.444941 C308.805705,168.816424 305.853015,171.580594 302.267438,171.580594 L44.4852034,171.580594 C40.887993,171.580594 37.9655504,168.816424 37.9655504,165.444941 L37.9678773,40.3071009 C37.9678773,36.9244541 40.8949734,34.1625173 44.4875301,34.1625173 L113.287558,34.1625173 Z" id="Combined-Shape" fill="#FFFFFF" fill-rule="nonzero"></path>
                                            <path d="M0.250381421,52.3865094 L353.867892,52.3865094" id="Line" stroke="#EC1C24" stroke-width="14" stroke-linecap="square"></path>
                                            <path d="M0.987027011,69.5758328 L354.604539,69.5758328" id="Line-Copy" stroke="#EC1C24" stroke-width="14" stroke-linecap="square"></path>
                                            <path d="M0.987027011,86.7651562 L354.604539,86.7651562" id="Line-Copy-2" stroke="#EC1C24" stroke-width="14" stroke-linecap="square"></path>
                                            <path d="M0.987027011,103.954479 L354.604539,103.954479" id="Line-Copy-3" stroke="#EC1C24" stroke-width="14" stroke-linecap="square"></path>
                                            <path d="M0.987027011,121.143803 L354.604539,121.143803" id="Line-Copy-4" stroke="#EC1C24" stroke-width="14" stroke-linecap="square"></path>
                                            <path d="M0.987027011,138.333126 L354.604539,138.333126" id="Line-Copy-5" stroke="#EC1C24" stroke-width="14" stroke-linecap="square"></path>
                                            <path d="M0.987027011,155.52245 L354.604539,155.52245" id="Line-Copy-6" stroke="#EC1C24" stroke-width="14" stroke-linecap="square"></path>
                                            <path d="M172.852961,165.692778 C137.527,165.692778 108.882237,137.116372 108.882237,101.788437 C108.882237,66.5021485 137.527,37.8938954 172.852961,37.8938954 C208.206384,37.8963451 236.836166,66.5070481 236.836166,101.788437 C236.836166,137.118822 208.198894,165.692778 172.852961,165.692778 Z" id="red_lens" stroke="#FFFFFF" stroke-width="7" fill="#EC1C24" fill-rule="nonzero"></path>
                                        </g>
                                        <g id="camera">
                                            <path d="M113.287558,34.1625173 L132.438392,2.27296009 C133.18529,1.02260876 135.230535,0 137.010525,0 L213.396566,0 C215.178883,0 217.214821,1.04270369 217.922164,2.29975333 L235.79763,34.1625173 L302.267438,34.1625173 C305.862322,34.1625173 308.805705,36.9289197 308.805705,40.3071009 L308.805705,165.444941 C308.805705,168.816424 305.853015,171.580594 302.267438,171.580594 L44.4852034,171.580594 C40.887993,171.580594 37.9655504,168.816424 37.9655504,165.444941 L37.9678773,40.3071009 C37.9678773,36.9244541 40.8949734,34.1625173 44.4875301,34.1625173 L113.287558,34.1625173 Z" id="Combined-Shape" fill="#FFFFFF" fill-rule="nonzero"></path>
                                            <path d="M0.250381421,52.3865094 L353.867892,52.3865094" id="Line" stroke="#EC1C24" stroke-width="14" stroke-linecap="square"></path>
                                            <path d="M0.987027011,69.5758328 L354.604539,69.5758328" id="Line-Copy" stroke="#EC1C24" stroke-width="14" stroke-linecap="square"></path>
                                            <path d="M0.987027011,86.7651562 L354.604539,86.7651562" id="Line-Copy-2" stroke="#EC1C24" stroke-width="14" stroke-linecap="square"></path>
                                            <path d="M0.987027011,103.954479 L354.604539,103.954479" id="Line-Copy-3" stroke="#EC1C24" stroke-width="14" stroke-linecap="square"></path>
                                            <path d="M0.987027011,121.143803 L354.604539,121.143803" id="Line-Copy-4" stroke="#EC1C24" stroke-width="14" stroke-linecap="square"></path>
                                            <path d="M0.987027011,138.333126 L354.604539,138.333126" id="Line-Copy-5" stroke="#EC1C24" stroke-width="14" stroke-linecap="square"></path>
                                            <path d="M0.987027011,155.52245 L354.604539,155.52245" id="Line-Copy-6" stroke="#EC1C24" stroke-width="14" stroke-linecap="square"></path>
                                            <path d="M172.852961,165.692778 C137.527,165.692778 108.882237,137.116372 108.882237,101.788437 C108.882237,66.5021485 137.527,37.8938954 172.852961,37.8938954 C208.206384,37.8963451 236.836166,66.5070481 236.836166,101.788437 C236.836166,137.118822 208.198894,165.692778 172.852961,165.692778 Z" id="red_lens" stroke="#FFFFFF" stroke-width="7" fill="#EC1C24" fill-rule="nonzero"></path>
                                        </g>
                                    </g>
                                </g>
                            </g>
                        </g>
                    </g>
                </g>
            </g>
        </g>
    </g>
</svg>