<?xml version="1.0" encoding="UTF-8"?>
<svg width="1102px" height="321px" viewBox="0 0 1102 321" version="1.1" xmlns="http://www.w3.org/2000/svg" xmlns:xlink="http://www.w3.org/1999/xlink">
    <!-- Generator: Sketch 42 (36781) - http://www.bohemiancoding.com/sketch -->
    <title>Group 2</title>
    <desc>Created with Sketch.</desc>
    <defs></defs>
    <g id="Page-1" stroke="none" stroke-width="1" fill="none" fill-rule="evenodd">
        <g id="Group-2">
            <rect id="Rectangle-1-Copy" fill="#EC1C24" x="0" y="0" width="1102" height="321"></rect>
            <g id="Group" transform="translate(58.000000, 70.000000)">
                <g id="logo">
                    <g id="camera">
                        <path d="M117.755236,35.5528523 L137.661314,2.36546428 C138.437668,1.06422656 140.56357,0 142.413757,0 L221.812205,0 C223.664811,0 225.781039,1.08513931 226.516277,2.39334794 L245.096691,35.5528523 L314.187844,35.5528523 C317.924498,35.5528523 320.983958,38.4318408 320.983958,41.9475062 L320.983958,172.178165 C320.983958,175.68686 317.914824,178.563525 314.187844,178.563525 L46.2395494,178.563525 C42.5004772,178.563525 39.4627834,175.68686 39.4627834,172.178165 L39.465202,41.9475062 C39.465202,38.4271935 42.5077329,35.5528523 46.2419679,35.5528523 L117.755236,35.5528523 Z" id="Combined-Shape" fill="#FFFFFF"></path>
                        <path d="M0.260255618,54.5185185 L367.823246,54.5185185" id="Line" stroke="#EC1C24" stroke-width="14" stroke-linecap="square"></path>
                        <path d="M1.02595202,72.4074074 L368.588943,72.4074074" id="Line-Copy" stroke="#EC1C24" stroke-width="14" stroke-linecap="square"></path>
                        <path d="M1.02595202,90.2962963 L368.588943,90.2962963" id="Line-Copy-2" stroke="#EC1C24" stroke-width="14" stroke-linecap="square"></path>
                        <path d="M1.02595202,108.185185 L368.588943,108.185185" id="Line-Copy-3" stroke="#EC1C24" stroke-width="14" stroke-linecap="square"></path>
                        <path d="M1.02595202,126.074074 L368.588943,126.074074" id="Line-Copy-4" stroke="#EC1C24" stroke-width="14" stroke-linecap="square"></path>
                        <path d="M1.02595202,143.962963 L368.588943,143.962963" id="Line-Copy-5" stroke="#EC1C24" stroke-width="14" stroke-linecap="square"></path>
                        <path d="M1.02595202,161.851852 L368.588943,161.851852" id="Line-Copy-6" stroke="#EC1C24" stroke-width="14" stroke-linecap="square"></path>
                        <path d="M179.669697,172.436089 C142.9506,172.436089 113.176184,142.696689 113.176184,105.93099 C113.176184,69.2086313 142.9506,39.4360888 179.669697,39.4360888 C216.41734,39.4386382 246.176184,69.2137303 246.176184,105.93099 C246.176184,142.699239 216.409555,172.436089 179.669697,172.436089 Z" id="red_lens" stroke="#FFFFFF" stroke-width="7" fill="#EC1C24"></path>
                    </g>
                    <g id="camera">
                        <path d="M117.755236,35.5528523 L137.661314,2.36546428 C138.437668,1.06422656 140.56357,0 142.413757,0 L221.812205,0 C223.664811,0 225.781039,1.08513931 226.516277,2.39334794 L245.096691,35.5528523 L314.187844,35.5528523 C317.924498,35.5528523 320.983958,38.4318408 320.983958,41.9475062 L320.983958,172.178165 C320.983958,175.68686 317.914824,178.563525 314.187844,178.563525 L46.2395494,178.563525 C42.5004772,178.563525 39.4627834,175.68686 39.4627834,172.178165 L39.465202,41.9475062 C39.465202,38.4271935 42.5077329,35.5528523 46.2419679,35.5528523 L117.755236,35.5528523 Z" id="Combined-Shape" fill="#FFFFFF"></path>
                        <path d="M0.260255618,54.5185185 L367.823246,54.5185185" id="Line" stroke="#EC1C24" stroke-width="14" stroke-linecap="square"></path>
                        <path d="M1.02595202,72.4074074 L368.588943,72.4074074" id="Line-Copy" stroke="#EC1C24" stroke-width="14" stroke-linecap="square"></path>
                        <path d="M1.02595202,90.2962963 L368.588943,90.2962963" id="Line-Copy-2" stroke="#EC1C24" stroke-width="14" stroke-linecap="square"></path>
                        <path d="M1.02595202,108.185185 L368.588943,108.185185" id="Line-Copy-3" stroke="#EC1C24" stroke-width="14" stroke-linecap="square"></path>
                        <path d="M1.02595202,126.074074 L368.588943,126.074074" id="Line-Copy-4" stroke="#EC1C24" stroke-width="14" stroke-linecap="square"></path>
                        <path d="M1.02595202,143.962963 L368.588943,143.962963" id="Line-Copy-5" stroke="#EC1C24" stroke-width="14" stroke-linecap="square"></path>
                        <path d="M1.02595202,161.851852 L368.588943,161.851852" id="Line-Copy-6" stroke="#EC1C24" stroke-width="14" stroke-linecap="square"></path>
                        <path d="M179.669697,172.436089 C142.9506,172.436089 113.176184,142.696689 113.176184,105.93099 C113.176184,69.2086313 142.9506,39.4360888 179.669697,39.4360888 C216.41734,39.4386382 246.176184,69.2137303 246.176184,105.93099 C246.176184,142.699239 216.409555,172.436089 179.669697,172.436089 Z" id="red_lens" stroke="#FFFFFF" stroke-width="7" fill="#EC1C24"></path>
                    </g>
                </g>
            </g>
            <text id="Photography--|--Web-" fill="#FFFFFF" font-family="Heebo-Regular, Heebo" font-size="40" font-weight="normal" letter-spacing="-0.694444418">
                <tspan x="508.002387" y="191">Photography  |  Web Design</tspan>
            </text>
        </g>
    </g>
</svg>