<?xml version="1.0" encoding="UTF-8"?>
<svg width="200px" height="100px" viewBox="0 0 200 100" version="1.1" xmlns="http://www.w3.org/2000/svg" xmlns:xlink="http://www.w3.org/1999/xlink">
    <!-- Generator: Sketch 46.2 (44496) - http://www.bohemiancoding.com/sketch -->
    <title>php</title>
    <desc>Created with Sketch.</desc>
    <defs></defs>
    <g id="Page-1" stroke="none" stroke-width="1" fill="none" fill-rule="evenodd">
        <g id="php">
            <g id="Php_logo" transform="translate(-70.000000, -42.000000)">
                <rect id="rect4138" fill="#6082BB" x="0" y="0" width="344" height="189"></rect>
                <path d="M128.559802,103.444811 C132.314664,103.444811 135.117811,102.638382 136.891446,101.048731 C138.6461,99.4753879 139.857986,96.7494873 140.493185,92.9471484 C141.085435,89.3930831 140.859799,86.911466 139.822821,85.5722546 C138.762495,84.2044132 136.470055,83.5107076 133.009295,83.5107076 L127.008688,83.5107076 L123.682068,103.444811 L128.559802,103.444811 Z M108.933398,128 C108.65486,128 108.390323,127.85502 108.213243,127.604212 C108.03584,127.353772 107.963956,127.023951 108.01717,126.705368 L116.833381,73.879638 C116.91866,73.3689659 117.30301,73 117.749917,73 L136.751084,73 C142.722756,73 147.167585,74.8883065 149.961399,78.6130827 C152.770152,82.357434 153.637517,87.5913995 152.539223,94.1692882 C152.092316,96.8491604 151.323606,99.3380191 150.254568,101.566292 C149.184289,103.797101 147.769797,105.861183 146.049688,107.70237 C143.990664,109.946587 141.660252,111.573939 139.129426,112.531498 C136.638737,113.476376 133.440027,113.955519 129.622311,113.955519 L121.928352,113.955519 L119.731144,127.119998 C119.645866,127.631034 119.261823,128 118.814916,128 L108.933398,128 L108.933398,128 Z" id="path3486" fill="#FFFFFF" fill-rule="nonzero"></path>
                <path d="M176.833041,114 C176.557493,114 176.296401,113.855026 176.121418,113.604217 C175.945819,113.353772 175.874781,113.024315 175.927364,112.705368 L179.781013,89.3320934 C180.147595,87.1092595 180.057181,85.5138055 179.526688,84.8396697 C179.201936,84.4275796 178.226457,83.7364091 175.34214,83.7364091 L168.360613,83.7364091 L163.51549,113.119998 C163.431224,113.631034 163.051428,114 162.609813,114 L152.922638,114 C152.647095,114 152.386007,113.855026 152.210712,113.604217 C152.035426,113.353772 151.964382,113.023951 152.016966,112.705368 L160.728657,59.879638 C160.812918,59.3689659 161.192718,59 161.634334,59 L171.321499,59 C171.597047,59 171.858144,59.1449796 172.03343,59.3954245 C172.208726,59.6462277 172.27976,59.9756849 172.227176,60.2946323 L170.124905,73.0444811 L177.635385,73.0444811 C183.356967,73.0444811 187.236754,74.2332844 189.496482,76.6790135 C191.799869,79.1740335 192.518568,83.1633959 191.632886,88.5376289 L187.579648,113.119998 C187.495391,113.631034 187.115895,114 186.673976,114 L176.833041,114 Z" id="path3494" fill="#FFFFFF" fill-rule="nonzero"></path>
                <path d="M209.473473,103.444811 C213.395199,103.444811 216.322917,102.638382 218.17538,101.048731 C220.008011,99.4757516 221.273756,96.749851 221.937506,92.9471484 C222.556075,89.3930831 222.320418,86.911466 221.237028,85.5722546 C220.129578,84.2044132 217.735266,83.5107076 214.120709,83.5107076 L207.853419,83.5107076 L204.378964,103.444811 L209.473473,103.444811 L209.473473,103.444811 Z M188.975168,128 C188.684253,128 188.407958,127.85502 188.223008,127.604212 C188.037728,127.353772 187.962315,127.023951 188.017893,126.705368 L197.225912,73.879638 C197.315304,73.3689659 197.716413,73 198.183511,73 L218.028781,73 C224.266163,73 228.908203,74.8883065 231.826506,78.6130827 C234.760078,82.3570703 235.665666,87.5910412 234.518887,94.1692882 C234.051465,96.8491604 233.248918,99.3380191 232.132376,101.566292 C231.014524,103.797101 229.537173,105.861183 227.740622,107.70237 C225.590091,109.946587 223.156117,111.573939 220.512809,112.531498 C217.911439,113.476376 214.570576,113.955519 210.583185,113.955519 L202.546981,113.955519 L200.253099,127.119998 C200.163713,127.631034 199.762598,128 199.295505,128 L188.975168,128 L188.975168,128 Z" id="path3502" fill="#FFFFFF" fill-rule="nonzero"></path>
            </g>
        </g>
    </g>
</svg>