<?xml version="1.0" encoding="UTF-8"?>
<svg width="100px" height="100px" viewBox="0 0 100 100" version="1.1" xmlns="http://www.w3.org/2000/svg" xmlns:xlink="http://www.w3.org/1999/xlink">
    <!-- Generator: Sketch 46.2 (44496) - http://www.bohemiancoding.com/sketch -->
    <title>python</title>
    <desc>Created with Sketch.</desc>
    <defs>
        <linearGradient x1="12.959%" y1="12.2077494%" x2="79.639%" y2="78.0756371%" id="linearGradient-1">
            <stop stop-color="#387EB8" offset="0%"></stop>
            <stop stop-color="#366994" offset="100%"></stop>
        </linearGradient>
        <linearGradient x1="19.128%" y1="20.7098007%" x2="90.742%" y2="88.2581512%" id="linearGradient-2">
            <stop stop-color="#FFE052" offset="0%"></stop>
            <stop stop-color="#FFC331" offset="100%"></stop>
        </linearGradient>
    </defs>
    <g id="Page-1" stroke="none" stroke-width="1" fill="none" fill-rule="evenodd">
        <g id="python" fill-rule="nonzero">
            <g id="python-5" transform="translate(1.000000, 1.000000)">
                <path d="M48.5850312,0.0276705882 C23.7665312,0.0276705882 25.3161562,10.832651 25.3161562,10.832651 L25.3437188,22.0269412 L49.0275625,22.0269412 L49.0275625,25.3877647 L15.9368672,25.3877647 C15.9368672,25.3877647 0.0555078125,23.5795686 0.0555078125,48.719451 C0.0555078125,73.860102 13.9171484,72.9684941 13.9171484,72.9684941 L22.1897266,72.9684941 L22.1897266,61.3022667 C22.1897266,61.3022667 21.74375,47.3862667 35.8301016,47.3862667 L59.3202422,47.3862667 C59.3202422,47.3862667 72.5177031,47.6003294 72.5177031,34.5813176 L72.5177031,13.0551373 C72.5177031,13.0551373 74.5221094,0.0276705882 48.5850312,0.0276705882 Z M35.5257656,7.55560784 C36.6560858,7.55458692 37.7404033,8.00491366 38.5396607,8.80730538 C39.338918,9.60969711 39.7874857,10.6982668 39.7864687,11.8330196 C39.7874857,12.9677724 39.338918,14.0563421 38.5396607,14.8587338 C37.7404033,15.6611256 36.6560858,16.1114523 35.5257656,16.1104314 C34.3954455,16.1114523 33.311128,15.6611256 32.5118706,14.8587338 C31.7126132,14.0563421 31.2640456,12.9677724 31.2650625,11.8330196 C31.2640456,10.6982668 31.7126132,9.60969711 32.5118706,8.80730538 C33.311128,8.00491366 34.3954455,7.55458692 35.5257656,7.55560784 L35.5257656,7.55560784 Z" id="Shape" fill="url(#linearGradient-1)"></path>
                <path d="M49.2897891,97.6641098 C74.1082891,97.6641098 72.5586641,86.8591294 72.5586641,86.8591294 L72.5311016,75.6652235 L48.846875,75.6652235 L48.846875,72.3044 L81.9375703,72.3044 C81.9375703,72.3044 97.8189297,74.1125961 97.8189297,48.9719451 C97.8189297,23.8316784 83.9572891,24.7232863 83.9572891,24.7232863 L75.6847109,24.7232863 L75.6847109,36.3891294 C75.6847109,36.3891294 76.1306875,50.3051294 62.0443359,50.3051294 L38.5541953,50.3051294 C38.5541953,50.3051294 25.3567344,50.0910667 25.3567344,63.1104627 L25.3567344,84.6370275 C25.3567344,84.6370275 23.3527109,97.6641098 49.2894062,97.6641098 L49.2897891,97.6641098 Z M62.3490547,90.1369412 C61.2187345,90.1379621 60.134417,89.6876354 59.3351597,88.8852436 C58.5359023,88.0828519 58.0873346,86.9942822 58.0883516,85.8595294 C58.0872329,84.7247101 58.5357557,83.6360415 59.3350241,82.8335666 C60.1342925,82.0310917 61.2186681,81.5807123 62.3490547,81.5817333 C63.4793749,81.5807124 64.5636923,82.0310391 65.3629497,82.8334309 C66.1622071,83.6358226 66.6107747,84.7243923 66.6097578,85.8591451 C66.6107747,86.9938979 66.1622071,88.0824676 65.3629497,88.8848593 C64.5636923,89.687251 63.4793749,90.1375778 62.3490547,90.1365569 L62.3490547,90.1369412 Z" id="Shape" fill="url(#linearGradient-2)"></path>
            </g>
        </g>
    </g>
</svg>