<?xml version="1.0" encoding="UTF-8"?>
<svg width="506px" height="506px" viewBox="0 0 506 506" version="1.1" xmlns="http://www.w3.org/2000/svg" xmlns:xlink="http://www.w3.org/1999/xlink">
    <!-- Generator: Sketch 44.1 (41455) - http://www.bohemiancoding.com/sketch -->
    <title>House of Roy</title>
    <desc>Created with Sketch.</desc>
    <defs></defs>
    <g id="Page-1" stroke="none" stroke-width="1" fill="none" fill-rule="evenodd">
        <g id="House-of-Roy">
            <g id="background">
                <g id="path-1-link" fill="#9ECECC">
                    <rect id="path-1" x="0" y="0" width="506" height="506"></rect>
                </g>
                <rect id="Rectangle-path" stroke="#7F1C25" stroke-width="56" x="28" y="28" width="450" height="450"></rect>
            </g>
            <g id="crest" transform="translate(135.000000, 100.000000)">
                <g id="Group">
                    <path d="M117.5,306.680459 C117.5,306.680459 235,254.196517 235,120.813517 L235,3.90798505e-14 L0,3.90798505e-14 L0,120.813517 C0,254.196517 117.5,306.680459 117.5,306.680459 L117.5,306.680459 Z" id="Shape" fill="#7F1C25" fill-rule="nonzero"></path>
                    <path d="M117.499702,302.156862 C117.547635,302.134839 117.604389,302.108617 117.669845,302.078181 C117.93844,301.95329 118.255875,301.80264 118.620405,301.626021 C119.663252,301.12075 120.873551,300.509079 122.237345,299.78933 C126.13621,297.731681 130.481637,295.22153 135.161959,292.245465 C148.536631,283.740945 161.911984,273.211543 174.395127,260.550402 C190.443091,244.273609 203.81544,225.650599 213.621144,204.57389 C225.209409,179.665684 231.449324,152.086616 231.449324,121.725158 L231.449324,4.55187075 L3.55067568,4.55187075 L3.55067568,121.725158 C3.55067568,152.086616 9.79059083,179.665684 21.3788558,204.57389 C31.18456,225.650599 44.5569094,244.273609 60.6048733,260.550402 C73.0880162,273.211543 86.4633693,283.740945 99.8380409,292.245465 C104.518363,295.22153 108.86379,297.731681 112.762655,299.78933 C114.126449,300.509079 115.336748,301.12075 116.379595,301.626021 C116.88167,301.869282 117.257458,302.045938 117.499702,302.156862 Z" id="crest-border" stroke="#F4F0ED" stroke-width="0.75"></path>
                </g>
                <g id="tree" transform="translate(99.000000, 86.000000)" fill-rule="nonzero" fill="#F4F0ED">
                    <rect id="Rectangle" x="16.2655198" y="43.169934" width="3.90372476" height="142.068328"></rect>
                    <g id="path-2-link">
                        <polygon id="path-2" points="11.9075342 61.2011493 4.02198889 61.2011493 13.6032323 41.5998114 6.2274945 41.5998114 13.6283305 26.4646276 8.43927466 26.4646276 15.0542228 12.9303207 11.8934164 12.9303207 18.2165979 0 24.541348 12.9303207 21.3758356 12.9303207 27.9954897 26.4646276 22.8032966 26.4646276 30.2072699 41.6019013 22.8331007 41.6019013 32.4159128 61.2011493 24.5303675 61.2011493 36.4347644 85.5507802 24.2903658 85.5507802 18.2165979 73.1324893 12.1396927 85.55496 0 85.55496"></polygon>
                    </g>
                </g>
                <g id="tree-copy" transform="translate(28.000000, 34.000000)" fill-rule="nonzero" fill="#F4F0ED">
                    <rect id="Rectangle" x="16.2655198" y="43.169934" width="3.90372476" height="142.068328"></rect>
                    <g id="tree">
                        <polygon id="path-4" points="11.9075342 61.2011493 4.02198889 61.2011493 13.6032323 41.5998114 6.2274945 41.5998114 13.6283305 26.4646276 8.43927466 26.4646276 15.0542228 12.9303207 11.8934164 12.9303207 18.2165979 0 24.541348 12.9303207 21.3758356 12.9303207 27.9954897 26.4646276 22.8032966 26.4646276 30.2072699 41.6019013 22.8331007 41.6019013 32.4159128 61.2011493 24.5303675 61.2011493 36.4347644 85.5507802 24.2903658 85.5507802 18.2165979 73.1324893 12.1396927 85.55496 0 85.55496"></polygon>
                    </g>
                </g>
                <g id="tree-copy-2" transform="translate(170.000000, 34.000000)" fill-rule="nonzero" fill="#F4F0ED">
                    <rect id="Rectangle" x="16.2655198" y="43.169934" width="3.90372476" height="142.068328"></rect>
                    <g id="tree">
                        <polygon id="path-6" points="11.9075342 61.2011493 4.02198889 61.2011493 13.6032323 41.5998114 6.2274945 41.5998114 13.6283305 26.4646276 8.43927466 26.4646276 15.0542228 12.9303207 11.8934164 12.9303207 18.2165979 0 24.541348 12.9303207 21.3758356 12.9303207 27.9954897 26.4646276 22.8032966 26.4646276 30.2072699 41.6019013 22.8331007 41.6019013 32.4159128 61.2011493 24.5303675 61.2011493 36.4347644 85.5507802 24.2903658 85.5507802 18.2165979 73.1324893 12.1396927 85.55496 0 85.55496"></polygon>
                    </g>
                </g>
            </g>
            <g id="text" transform="translate(208.000000, 18.000000)" font-size="14" font-family="Heebo-Regular, Heebo" fill="#F4F0ED" font-weight="normal">
                <g id="Since-1970" transform="translate(6.000000, 449.000000)">
                    <text>
                        <tspan x="0.668457" y="15">Since 1970</tspan>
                    </text>
                </g>
                <g id="House-of-Roy">
                    <text>
                        <tspan x="0.552246" y="15">House of Roy</tspan>
                    </text>
                </g>
            </g>
        </g>
    </g>
</svg>