<?xml version="1.0" encoding="UTF-8"?>
<svg width="205px" height="67px" viewBox="0 0 205 67" version="1.1" xmlns="http://www.w3.org/2000/svg" xmlns:xlink="http://www.w3.org/1999/xlink">
    <!-- Generator: Sketch 46.2 (44496) - http://www.bohemiancoding.com/sketch -->
    <title>slack</title>
    <desc>Created with Sketch.</desc>
    <defs></defs>
    <g id="Page-1" stroke="none" stroke-width="1" fill="none" fill-rule="evenodd">
        <g id="slack" fill-rule="nonzero">
            <g transform="translate(1.000000, 4.000000)" id="Shape">
                <path d="M71.1274549,23.5948 C71.1274549,17.6676 75.4577154,13.5288 83.3270541,13.5288 C88.1286573,13.5288 92.0577154,15.0588 94.1863727,16.5576 C94.490982,16.7716 95.0344689,17.2908 94.7086172,18.2564 C94.290982,19.2964 93.5250501,20.8604 92.9755511,21.8764 C92.6557114,22.4684 91.8388778,22.3904 91.4204409,22.1788 C89.9042084,21.412 87.4172345,20.1148 85.1326653,19.8756 C84.5541608,19.8127423 83.972163,19.7876223 83.3903808,19.8004 C81.3783567,19.8452 79.6973948,20.5424 79.1054108,22.0744 C78.989403,22.3642688 78.9247146,22.672041 78.9142285,22.984 C78.8589178,25.0028 81.6741483,25.7328 85.0845691,26.3176 C91.4248497,27.4016 96.2216433,29.2568 96.2216433,35.7696 C96.2216433,41.3004 91.8172345,46.2988 83.1875752,46.1456 C77.4985972,46.0308 73.4625251,44.1124 71.2997996,42.2508 C71.2260521,42.1876 70.4028056,41.3508 70.8440882,40.3444 C71.3490982,39.0488 72.2016032,37.564 72.8705411,36.7756 C73.242485,36.2692 74.2240481,36.1888 74.7342685,36.5044 C76.5170341,37.61 79.4509018,39.3828 82.8328657,39.5004 C83.0997996,39.5096 83.3643287,39.5112 83.6240481,39.5044 C86.6661323,39.4308 88.5066132,38.2796 88.4681363,36.3404 C88.4352705,34.632 86.0232465,33.634 82.1823647,32.9116 C76.056513,31.76 71.1282565,29.7448 71.1282565,23.5948 L71.1274549,23.5948 Z M126.77996,32.0344 C122.46012,32.0908 118.499399,33.2692 118.38517,36.6384 C118.383968,39.312 120.557114,40.6252 123.607214,40.4532 C126.533066,40.172 128.764329,38.9056 129.747495,37.2252 C130.111022,36.6024 130.166333,34.272 130.144289,33.276 C130.138677,33.064 129.718637,32.6628 129.534669,32.5856 C128.616834,32.1996 127.937475,32.0804 126.779559,32.0336 L126.77996,32.0344 Z M112.406012,18.4584 C114.426052,16.6544 118.431263,13.8464 124.814429,13.9944 C133.238076,14.1692 137.688176,18.1104 138.102605,27.5384 C138.273347,31.4264 137.990381,42.2712 137.923046,44.9732 C137.913026,45.3608 137.781563,45.6288 137.258116,45.6388 C135.870942,45.6944 132.666132,45.6724 131.193587,45.6532 C130.450501,45.6172 130.364329,45.2492 130.354709,44.864 C130.348297,44.612 130.326653,43.8648 130.311022,43.2556 C130.302605,42.9324 129.998397,42.9416 129.920641,43.0244 C127.944689,45.13 124.708617,46.1468 121.267335,46.1468 C116.036874,46.1468 110.822445,43.076 110.838477,36.9948 C110.854509,30.7668 115.279359,27.6948 120.140281,26.9704 C123.252906,26.508 126.761523,26.9192 129.418437,27.9728 C129.588377,28.0408 129.935471,27.9424 129.938277,27.702 C129.949098,26.9084 129.910621,25.396 129.757916,24.6792 C129.367936,22.8528 127.841283,21.3832 124.634068,20.9872 C123.973547,20.906 123.308617,20.8792 122.642886,20.932 C120.093387,21.132 117.025251,23.116 115.754709,23.8588 C115.455711,24.0332 114.987575,23.9056 114.836072,23.7108 C114.094589,22.7548 112.230862,19.9588 112.084168,19.512 C111.937475,19.0664 112.144289,18.6912 112.40521,18.4568 L112.406012,18.4584 L112.406012,18.4584 Z M140.88016,30.052 C140.83006,21.366 146.894188,14.0384 156.741082,13.974 C162.885371,13.934 167.349098,16.714 168.136273,18.0252 C168.296192,18.3332 168.214028,18.5904 168.103407,18.9004 C167.583166,19.9964 166.269339,22.114 165.333066,23.314 C164.934269,23.8252 164.501403,23.3872 163.998397,23.0532 C162.602405,22.1252 159.9499,20.9904 157.339479,20.9904 C152.603607,20.9912 149.076954,24.232 149.116232,30.1944 C149.153106,35.916 152.531062,39.0604 157.355912,39.1744 C159.878156,39.2376 162.321844,37.7908 163.636473,36.6056 C164.049299,36.246 164.476553,36.426 164.948297,36.794 C165.874148,37.7384 167.202004,39.1964 167.938277,40.2 C168.420441,40.7576 168.059719,41.3032 167.886172,41.5224 C165.888577,44.0452 162.030461,46.1684 156.924649,46.1972 C146.233667,46.272 140.930261,38.77 140.880962,30.0532 L140.88016,30.052 Z M191.913026,45.8056 C192.41483,45.768 197.76994,45.0304 199.413627,44.6548 C199.821643,44.562 199.966733,44.2196 199.738677,43.8804 C198.820842,42.5068 196.407615,38.606 193.88016,35.114 C191.555511,31.9032 189.105411,29.0792 188.313026,27.9928 C188.11984,27.7288 188.130261,27.4688 188.340681,27.264 C189.848096,25.792 196.153507,19.622 198.524248,17.074 C199.442084,16.0828 198.890982,15.6564 198.111423,15.4248 C196.605611,14.9768 194.16994,14.4184 192.78477,14.1268 C192.200802,14.0036 191.497395,14.0468 190.986774,14.5708 C188.616433,16.7768 181.382365,24.0228 179.222846,26.1888 C178.834068,26.5796 178.607615,26.4928 178.605611,25.9344 C178.587976,21.7584 178.505411,3.8792 178.355912,0.9384 C178.345491,0.5496 177.876954,0.2544 177.612826,0.2404 C176.25491,0.1696 172.824449,0.1492 171.472545,0.2284 C171.093788,0.2712 170.731864,0.6564 170.698998,0.982 C170.387174,5.6844 170.831263,40.2036 171.016433,45.0324 C171.029659,45.3816 171.29018,45.6524 171.622445,45.672 C172.971142,45.75 176.307014,45.7448 177.864529,45.7156 C178.630862,45.7156 178.724649,45.178 178.724649,45.178 L178.84008,35.9152 C178.84008,35.9152 178.919038,35.5032 179.046894,35.3672 C179.595992,34.7772 181.11503,33.1524 181.762725,32.5244 C181.918236,32.3736 182.163527,32.3844 182.322244,32.5976 C183.091784,33.6336 185.286172,37.0016 187.32024,40.0096 C189.189178,42.7728 190.933868,45.2252 191.055711,45.3984 C191.337074,45.7984 191.665731,45.8144 191.913427,45.8068 L191.913427,45.8056 L191.913026,45.8056 Z M100.837675,45.7736 C101.308617,45.7892 104.881764,45.7852 106.46493,45.7832 C106.997996,45.7936 107.27495,45.3908 107.292585,45.0352 C107.628858,38.2648 107.48497,6.0304 107.272545,0.9404 C107.25491,0.5004 107.066132,0.3352 106.76513,0.2952 C105.406413,0.1136 101.54509,0.156 100.307415,0.4792 C100.065331,0.542 99.9226453,0.7256 99.9150301,0.9616 C99.612024,14.0816 99.8164329,44.3296 99.8805611,44.9024 C99.9442886,45.476 100.24489,45.7536 100.838477,45.7736 L100.837675,45.7736 L100.837675,45.7736 Z" fill="#443642"></path>
                <path d="M5.20921844,32.312 C3.00721443,32.3288 1.14188377,31.0192 0.454108216,28.9752 C0.428593459,28.8980055 0.404806652,28.8202529 0.382765531,28.742 C-0.366733467,26.1244 1.08657315,23.386 3.69138277,22.5092 L45.4709419,8.54 C45.9670179,8.39677443 46.4803942,8.32194744 46.9967936,8.3176 C49.2573146,8.3 51.1739479,9.6384 51.8785571,11.7256 L51.9410822,11.9272 C52.7226453,14.6536 50.7807615,17.0872 48.4541082,17.8672 C48.452505,17.8684 48.0292585,18.0112 6.90621242,32.0236 C6.35961015,32.2095613 5.78668581,32.3069284 5.20921844,32.312 Z" fill="#70CADB"></path>
                <path d="M12.1731463,52.818 C9.95390782,52.834 8.08216433,51.5428 7.40240481,49.528 C7.37660162,49.4513555 7.35254731,49.3741355 7.33026052,49.2964 C6.57034068,46.6476 8.02204409,43.8804 10.6356713,43.0024 L52.4168337,28.9052 C52.9567134,28.7252 53.5142285,28.6332 54.0749499,28.628 C56.3002004,28.6112 58.2553106,29.968 58.9450902,32.0056 L59.0092184,32.2176 C59.4128257,33.626 59.1743487,35.2088 58.3719439,36.458 C57.7739479,37.3868 55.8877756,38.2044 55.8877756,38.2044 L13.9478958,52.516 C13.3758996,52.7092535 12.7769857,52.8114376 12.1731463,52.8188 L12.1731463,52.818 Z" fill="#E01765"></path>
                <path d="M46.9531062,52.9072 C44.7314462,52.9284921 42.7486096,51.5199493 42.0412826,49.418 L28.0973948,8.082 L28.0276553,7.85 C27.2721443,5.214 28.7250501,2.4644 31.3290581,1.5884 C31.8501002,1.4136 32.3887776,1.3224 32.9310621,1.3176 C33.7366733,1.3116 34.5162325,1.4928 35.250501,1.8548 C36.4721229,2.45772196 37.4024143,3.52191179 37.8352705,4.8116 L51.7779559,46.144 L51.8184369,46.2768 C52.6016032,49.0136 51.1519038,51.7648 48.5478958,52.6408 C48.0335325,52.8122978 47.4953921,52.9021909 46.9531062,52.9072 L46.9531062,52.9072 Z" fill="#E8A723"></path>
                <path d="M26.2264529,59.8696 C24.0035115,59.8907327 22.0197377,58.4809685 21.3126253,56.3776 L7.37234469,15.0432 C6.93610126,13.7552982 7.03113628,12.3471061 7.63648861,11.1292178 C8.24184093,9.91132954 9.30777948,8.9837974 10.5991984,8.5512 C11.1143244,8.37934356 11.6532712,8.28918134 12.1963928,8.284 C14.4184264,8.26210703 16.4018128,9.67081044 17.109018,11.7732 L31.0496994,53.1092 C31.4861518,54.3977242 31.3908047,55.8066267 30.7847068,57.0248785 C30.1786089,58.2431303 29.1116021,59.1705498 27.8192385,59.6024 C27.3051134,59.7743475 26.7670543,59.8643846 26.2248497,59.8692 L26.2264529,59.8692 L26.2264529,59.8696 Z" fill="#3EB890"></path>
                <polygon fill="#CC2027" points="40.0789579 43.5984 49.8016032 40.2808 46.6232465 30.8608 36.8893788 34.1436 40.0789579 43.5984"></polygon>
                <polygon fill="#361238" points="19.3843687 50.66 29.1062124 47.3428 25.9038076 37.8508 16.1723447 41.1348 19.3843687 50.66"></polygon>
                <polygon fill="#65863A" points="33.1571142 23.08 42.8805611 19.7668 39.739479 10.4568 29.997996 13.714"></polygon>
                <polygon fill="#1A937D" points="12.4601202 30.132 22.1835671 26.8188 19.004008 17.39 9.26252505 20.6468 12.4601202 30.132"></polygon>
            </g>
        </g>
    </g>
</svg>