<?xml version="1.0" encoding="UTF-8"?>
<svg width="500px" height="500px" viewBox="0 0 500 500" version="1.1" xmlns="http://www.w3.org/2000/svg" xmlns:xlink="http://www.w3.org/1999/xlink">
    <!-- Generator: Sketch 43.2 (39069) - http://www.bohemiancoding.com/sketch -->
    <title>Artboard</title>
    <desc>Created with Sketch.</desc>
    <defs></defs>
    <g id="Page-1" stroke="none" stroke-width="1" fill="none" fill-rule="evenodd">
        <g id="Artboard">
            <rect id="Rectangle" fill="#F4F0ED" x="0" y="0" width="500" height="503"></rect>
            <g id="nuclear" transform="translate(73.000000, 245.000000)">
                <ellipse id="Oval" stroke="#4990E2" transform="translate(47.463168, 44.719643) rotate(-38.000000) translate(-47.463168, -44.719643) " cx="47.4631677" cy="44.7196432" rx="12.1786672" ry="47.1481882"></ellipse>
                <ellipse id="Oval-Copy-2" stroke="#4990E2" transform="translate(47.408881, 44.913677) rotate(-90.000000) translate(-47.408881, -44.913677) " cx="47.4088812" cy="44.913677" rx="12.1786672" ry="47.1481882"></ellipse>
                <ellipse id="Oval-Copy" stroke="#4990E2" transform="translate(47.463168, 44.719643) scale(-1, 1) rotate(-38.000000) translate(-47.463168, -44.719643) " cx="47.4631677" cy="44.7196432" rx="12.1786672" ry="47.1481882"></ellipse>
                <ellipse id="Oval-2" fill="#2B4C95" cx="47.4088812" cy="44.913677" rx="5.53575782" ry="5.58627823"></ellipse>
            </g>
            <path d="M245.353226,316 C233.552658,319.737025 225,330.776377 225,343.813309 C225,359.92305 238.059525,372.982575 254.169266,372.982575 C261.831985,372.982575 268.804592,370.027857 274.009911,365.195598 C271.228513,366.076416 268.266679,366.551556 265.193871,366.551556 C249.08413,366.551556 236.024605,353.49203 236.024605,337.382289 C236.024605,328.935267 239.615126,321.326856 245.353226,316 Z" id="Combined-Shape" fill="#FFFFFF"></path>
            <path d="M71.3093109,172.876573 C70.1151959,172.669654 68.8761755,172.560741 67.6057253,172.560741 C57.8823517,172.560741 50,178.940414 50,186.81014 C50,194.679865 57.8823517,201.059538 67.6057253,201.059538 C67.7228046,201.059538 67.839617,201.058613 67.9561519,201.056772 C67.952681,201.173202 67.9509356,201.289978 67.9509356,201.407085 C67.9509356,209.27681 75.8332873,215.656483 85.5566609,215.656483 C92.3939472,215.656483 98.3209167,212.501973 101.23702,207.893055 C101.980357,207.970521 102.738213,208.010465 103.507597,208.010465 C113.23097,208.010465 121.113322,201.630791 121.113322,193.761066 C121.113322,185.89134 113.23097,179.511667 103.507597,179.511667 C103.349081,179.511667 103.191056,179.513363 103.033545,179.516733 C101.977266,172.464193 94.5553817,167 85.5566609,167 C79.6992029,167 74.5098478,169.31517 71.3093109,172.876573 Z" id="clouds" stroke="#77ACE9" fill="#FFFFFF"></path>
            <polygon id="Star-Copy-2" stroke="#4990E2" fill="#FFD931" points="298.595027 291.596372 288.95677 296.663504 290.797513 285.931147 283 278.33045 293.775898 276.76462 298.595027 267 303.414155 276.76462 314.190053 278.33045 306.39254 285.931147 308.233283 296.663504"></polygon>
            <polyline id="Star-Copy-2" stroke="#F8E81C" fill="#4990E2" points="349.473654 258.186576 345.34741 268.263576 339.858876 258.858907 329 258.04858 336.248321 249.922471 333.663411 239.344662 343.631654 243.727119 352.892967 238 351.805359 248.834617 360.114076 255.872872"></polyline>
            <polyline id="Star-Copy" stroke="#F8E81C" fill="#BD0FE1" points="161.108964 232.360161 153 229.203873 160.437687 224.68743 160.933687 216 167.527452 221.678003 175.942961 219.465164 172.580445 227.490806 177.285515 234.810626 168.613601 234.092743 163.105985 240.829479"></polyline>
            <ellipse id="Oval-2" fill="#F6A623" cx="179.189894" cy="307.228132" rx="4.18989377" ry="4.22813156"></ellipse>
            <ellipse id="Oval-2" fill="#BD0FE1" cx="121.189894" cy="235.228132" rx="4.18989377" ry="4.22813156"></ellipse>
            <ellipse id="Oval-2-Copy" fill="#FFCC00" cx="200.708958" cy="336.742806" rx="3.70895774" ry="3.74280641"></ellipse>
            <ellipse id="Oval-2-Copy-3" fill="#FFD931" cx="292.189894" cy="152.228132" rx="4.18989377" ry="4.22813156"></ellipse>
            <g id="e-=-mc2" transform="translate(178.000000, 62.000000)">
                <text id="E-=-mc" font-family="HelveticaNeue-Medium, Helvetica Neue" font-size="36" font-weight="400" letter-spacing="-0.278925598" fill="#F95658">
                    <tspan x="41.91274" y="38.9808171">E = mc</tspan>
                </text>
                <g id="Group-3" transform="translate(73.608526, 0.000000)" font-size="18" font-family="HelveticaNeue-Medium, Helvetica Neue" letter-spacing="-0.139462799" fill="#F95658" font-weight="400">
                    <text id="2">
                        <tspan x="93.9576946" y="18.4856128">2</tspan>
                    </text>
                </g>
                <ellipse id="Oval-2-Copy-3" fill="#FFD931" cx="46.6083665" cy="61.8558406" rx="4.18989377" ry="4.22813156"></ellipse>
            </g>
            <g id="f-=-ma" transform="translate(213.000000, 386.000000)" font-weight="bold" letter-spacing="-0.278925598" font-size="36" font-family="Times-BoldItalic, Times" fill="#F95658" font-style="italic">
                <text>
                    <tspan x="51.4767869" y="34">f = ma</tspan>
                </text>
            </g>
            <ellipse id="Oval-2-Copy-5" fill="#417505" cx="337.189894" cy="375.228132" rx="4.18989377" ry="4.22813156"></ellipse>
            <ellipse id="Oval-2-Copy-6" fill="#9012FE" cx="315.189894" cy="211.228132" rx="4.18989377" ry="4.22813156"></ellipse>
            <ellipse id="Oval-2-Copy-7" fill="#FFCC00" cx="417.189894" cy="381.228132" rx="4.18989377" ry="4.22813156"></ellipse>
            <ellipse id="Oval-2-Copy-9" fill="#BD0FE1" cx="208.189894" cy="390.228132" rx="4.18989377" ry="4.22813156"></ellipse>
            <g id="rocket" transform="translate(203.000000, 150.000000)">
                <ellipse id="Oval-2-Copy-4" fill="#D0011B" cx="20.4087216" cy="4.22813156" rx="4.18989377" ry="4.22813156"></ellipse>
                <path d="M2.77008682,85.2420506 C1.90259859,85.5028111 1.2347866,83.6022042 1.10214998,81.5827019 C0.774855145,76.5993671 1.76432944,72.0867927 1.85022392,71.2363764 C1.9361184,70.3859601 2.03743608,66.3845182 4.0956641,63.2128569 C7.11556666,58.5592871 11.4819805,56.0214784 12.0064851,55.5859142 C12.5309897,55.15035 15.7359096,53.0182825 19.344067,53.2125461 C22.7000638,53.3932333 25.9347933,56.3358157 25.9347933,56.3358157 C25.9347933,56.3358157 29.5546691,47.2903748 33.9680596,38.9071549 C37.3585789,32.4668754 37.087459,31.9397812 41.5426128,26.688817 C46.8922229,20.3836227 47.0988393,20.1154832 53.5775874,15.794838 C58.6559116,12.4081286 64.6567573,11.2741078 64.6567573,11.2741078 L70.6602334,9.9808171 C70.6602334,9.9808171 70.6602334,9.9808171 74.8635805,12.5442496 C74.8635805,12.5442496 78.3174746,15.9782273 79.2746581,20.5117244 C81.0664026,28.9979425 80.6208349,29.6307874 80.3614366,38.58368 C80.2202986,43.4549257 80.5991209,44.0986499 78.4735855,48.1600011 C71.5798956,61.3320682 62.3229859,73.0505166 62.3229859,73.0505166 C62.3229859,73.0505166 65.4040821,75.3013979 67.3328883,78.5867511 C69.1779567,81.729473 69.8707352,85.9066667 69.8707352,85.9066667 L69.8817005,95.4915164 L65.7873968,101.759986 L57.7267173,107.639189 C57.7267173,107.639189 53.8881255,109.674032 51.3906285,108.889228 C50.2038005,108.516284 50.3580672,105.323693 50.3580672,105.323693 L53.4393033,101.99513 C53.4393033,101.99513 55.5203006,100.030659 56.3450954,97.5383636 C56.9229392,95.7922841 56.2445806,93.51838 56.2445806,93.51838 L52.5364975,89.4259038 L51.1110146,89.0811075 L38.4680777,107.352265 L16.0910419,96.7774969 L17.1485796,89.2248742 L18.6416816,80.9936241 L19.7138397,75.5871451 L19.7138397,72.6673419 L16.0953061,70.7563419 L12.7466397,71.0761618 L8.69497862,74.8274968 L5.21411992,80.3466742 C5.21411992,80.3466742 3.63757505,84.98129 2.77008682,85.2420506 Z" id="Path-2" stroke="#979797" fill="#C13B4A"></path>
                <polygon id="Path-4" stroke="#979797" fill="#92C7D2" points="20.4776103 72.4133135 28.5766681 78.5331432 51.0505636 88.4116179 44.5554787 97.1698093 29.547093 91.1888729 17.6698963 83.6173655"></polygon>
                <path d="M41.1294463,28.2440554 L51.4002334,39.5967475 L70.0314169,46.0053288 L78.6598527,47.3503999 L63.4815056,72.1489291 L50.2939612,87.9413304 L21.3846804,73.8132109 L26.1947714,55.2502556 L41.1294463,28.2440554 Z" id="Oval-5-Copy" stroke="#979797" fill="#EAE7C6"></path>
                <path d="M41.1708705,27.5532445 L51.0006108,39.4517625 L66.472583,46.289207 L78.1761632,47.0665217 L80.1620924,37.8715477 C80.1620924,37.8715477 70.4614985,36.642221 67.4960067,36.0683727 C64.5305149,35.4945245 52.5808256,28.8873503 52.5808256,28.8873503 L47.9547072,23.8518624 L45.5764656,21.2092363 L41.1708705,27.5532445 Z" id="Path-3" stroke="#979797" fill="#92C7D2"></path>
                <circle id="Oval-5" stroke="#979797" fill="#93C5D0" cx="44.913677" cy="59.8849026" r="11.2284192"></circle>
                <circle id="Oval-5" stroke="#979797" fill="#FFD931" cx="45.537478" cy="60.5087037" r="6.86181176"></circle>
            </g>
            <g id="sun" transform="translate(125.000000, 120.000000)" fill="#FFD931">
                <circle id="Oval-7" cx="44.9256731" cy="43.2462087" r="18.0542425"></circle>
                <path d="M41.5667443,2.29525196 C41.5667443,1.0276193 42.5868409,0 43.8649588,0 C45.1342276,0 46.1631732,1.02376881 46.1631732,2.29525196 L46.1631732,19.5377855 C46.1631732,20.8054181 45.1430767,21.8330374 43.8649588,21.8330374 C42.59569,21.8330374 41.5667443,20.8092686 41.5667443,19.5377855 L41.5667443,2.29525196 Z M71.4934651,12.7874024 C72.3898168,11.8910508 73.8377705,11.8857314 74.7415364,12.7894972 C75.639045,13.6870058 75.6427055,15.1384941 74.7436312,16.0375685 L62.5513188,28.2298808 C61.6549672,29.1262325 60.2070134,29.1315519 59.3032476,28.227786 C58.405739,27.3302774 58.4020784,25.8787891 59.3011528,24.9797148 L71.4934651,12.7874024 Z M85.2357816,41.3678604 C86.5034143,41.3678604 87.5310336,42.3879569 87.5310336,43.6660748 C87.5310336,44.9353436 86.5072648,45.9642893 85.2357816,45.9642893 L67.9932481,45.9642893 C66.7256155,45.9642893 65.6979962,44.9441927 65.6979962,43.6660748 C65.6979962,42.396806 66.721765,41.3678604 67.9932481,41.3678604 L85.2357816,41.3678604 Z M74.7436312,71.2945812 C75.6399828,72.1909328 75.6453022,73.6388866 74.7415364,74.5426524 C73.8440278,75.440161 72.3925395,75.4438216 71.4934651,74.5447472 L59.3011528,62.3524349 C58.4048011,61.4560832 58.3994817,60.0081295 59.3032476,59.1043636 C60.2007561,58.2068551 61.6522445,58.2031945 62.5513188,59.1022688 L74.7436312,71.2945812 Z M46.1631732,85.0368977 C46.1631732,86.3045303 45.1430767,87.3321496 43.8649588,87.3321496 C42.59569,87.3321496 41.5667443,86.3083808 41.5667443,85.0368977 L41.5667443,67.7943642 C41.5667443,66.5267315 42.5868409,65.4991122 43.8649588,65.4991122 C45.1342276,65.4991122 46.1631732,66.522881 46.1631732,67.7943642 L46.1631732,85.0368977 Z M16.2364524,74.5447472 C15.3401008,75.4410989 13.892147,75.4464183 12.9883812,74.5426524 C12.0908726,73.6451439 12.087212,72.1936555 12.9862863,71.2945812 L25.1785987,59.1022688 C26.0749503,58.2059172 27.5229041,58.2005978 28.42667,59.1043636 C29.3241785,60.0018722 29.3278391,61.4533605 28.4287648,62.3524349 L16.2364524,74.5447472 Z M2.4941359,45.9642893 C1.22650325,45.9642893 0.198883944,44.9441927 0.198883944,43.6660748 C0.198883944,42.396806 1.22265276,41.3678604 2.4941359,41.3678604 L19.7366694,41.3678604 C21.0043021,41.3678604 22.0319214,42.3879569 22.0319214,43.6660748 C22.0319214,44.9353436 21.0081525,45.9642893 19.7366694,45.9642893 L2.4941359,45.9642893 Z M12.9862863,16.0375685 C12.0899347,15.1412168 12.0846153,13.693263 12.9883812,12.7894972 C13.8858897,11.8919886 15.3373781,11.888328 16.2364524,12.7874024 L28.4287648,24.9797148 C29.3251164,25.8760664 29.3304358,27.3240202 28.42667,28.227786 C27.5291614,29.1252946 26.0776731,29.1289552 25.1785987,28.2298808 L12.9862863,16.0375685 Z" id="Rectangle-2"></path>
            </g>
            <g id="rain" transform="translate(372.536590, 168.000000) scale(-1, 1) translate(-372.536590, -168.000000) translate(317.036590, 129.000000)">
                <path d="M29.9424513,51.1516876 L46.0193625,77.9081611" id="Line" stroke="#92C4FF" stroke-linecap="square"></path>
                <path d="M39.9232684,51.1516876 L56.0001796,77.9081611" id="Line-Copy" stroke="#92C4FF" stroke-linecap="square"></path>
                <path d="M49.9040855,51.1516876 L65.9809967,77.9081611" id="Line-Copy-2" stroke="#92C4FF" stroke-linecap="square"></path>
                <path d="M61.1325047,51.1516876 L77.2094159,77.9081611" id="Line-Copy-3" stroke="#92C4FF" stroke-linecap="square"></path>
                <path d="M73.6085261,51.1516876 L89.6854373,77.9081611" id="Line-Copy-4" stroke="#92C4FF" stroke-linecap="square"></path>
                <path d="M84.8369454,51.1516876 L100.913857,77.9081611" id="Line-Copy-5" stroke="#92C4FF" stroke-linecap="square"></path>
                <path d="M28.4124145,7.8354309 C26.8202612,7.55953862 25.168234,7.41432128 23.4743004,7.41432128 C10.5098023,7.41432128 0,15.9205521 0,26.4135195 C0,34.8927069 6.86287915,42.0745592 16.3381475,44.5188932 C16.2592413,45.1527345 16.2188278,45.7957701 16.2188278,46.4464453 C16.2188278,56.9394128 26.7286301,65.4456436 39.6931282,65.4456436 C45.6790568,65.4456436 51.1416871,63.6322636 55.2881549,60.6472176 C59.4346228,63.6322636 64.8972531,65.4456436 70.8831817,65.4456436 C83.8476798,65.4456436 94.3574821,56.9394128 94.3574821,46.4464453 C94.3574821,46.2334973 94.3531535,46.0213677 94.3445637,45.8101107 C103.764765,43.3396138 110.57631,36.179829 110.57631,27.7324132 C110.57631,17.2394458 100.066508,8.73321496 87.1020094,8.73321496 C80.4787707,8.73321496 74.4961913,10.9532844 70.2282985,14.5241467 C67.7423659,6.19061828 58.4688561,0 47.4088812,0 C39.5989372,0 32.6797971,3.08689307 28.4124145,7.8354309 Z" id="clouds-copy-3" stroke="#92C5FF" fill="#FFFFFF" transform="translate(55.288155, 32.722822) scale(-1, 1) translate(-55.288155, -32.722822) "></path>
            </g>
            <g id="ballon" transform="translate(142.813855, 392.399290) scale(-1, 1) translate(-142.813855, -392.399290) translate(111.000000, 340.000000)" stroke="#979797">
                <path d="M7.19076935,61.4590256 C-0.332027809,38.2667776 1.46525049,49.3895187 0.4995282,28.326904" id="Path-5"></path>
                <path d="M8.10121758,63.7886206 C2.65566007,60.2920554 3.00602994,49.4265757 3.00602994,49.4265757 L0.359748844,34.6356675 C0.359748844,34.6356675 -1.11332793,25.417049 1.90219446,18.3364279 C5.28550647,10.3922154 13.1574176,4.58600039 13.1574176,4.58600039 C13.1574176,4.58600039 19.356506,2.4997378 25.6724266,1.9933272 C32.6220256,1.43610825 33.1303065,0.433556885 39.6884569,2.45874128 C47.0379026,4.72828104 48.2434773,4.67177429 53.4876188,10.5827755 C59.9324372,17.8471352 60.0990409,19.4123854 62.3810483,28.9130237 C63.6377717,34.1451168 60.5650805,40.0482383 60.5650805,40.0482383 L41.7206838,64.3295731 C41.7206838,64.3295731 35.4339386,70.2483731 35.4339386,70.2483731 C22.4753071,70.0398628 8.10121758,64.3295731 8.10121758,63.7886206 Z" id="Path-6" fill="#C23B4A"></path>
                <path d="M7.34184617,67.64221 L7.10243815,84.4702186" id="Path-8"></path>
                <path d="M14.1756356,69.4356381 L13.3069439,85.5509052" id="Path-9"></path>
                <path d="M18.3040534,87.2200604 C19.7557311,81.7500235 21.2074088,76.2799867 22.6590865,70.8099498" id="Path-10"></path>
                <path d="M31.974069,73.5853773 C29.5507481,78.4663363 27.1274271,83.3472954 24.7041062,88.2282545" id="Path-11"></path>
                <polyline id="Path-12" fill="#FBAD31" points="5.03731547 83.9956668 3.54238595 97.9593075 20.4051178 104.066954 25.9200309 89.62206 6.07048599 84.0492747"></polyline>
                <path d="M28.5495285,9.49952147 C22.592601,11.8151491 20.7836925,20.4212712 20.7836925,20.4212712 C20.7836925,20.4212712 17.7419048,25.2407013 16.5291743,31.7369075 C14.9366275,40.2676674 15.173138,50.4752035 15.173138,50.4752035 C15.173138,50.4752035 14.3261898,59.8427044 16.1015294,64.3058506 C17.7272458,68.3928487 21.97525,67.5754921 21.97525,67.5754921 C21.97525,67.5754921 28.5120737,62.2064059 31.1556037,56.3452616 C34.3559445,49.2495753 34.5346602,49.4816025 37.3107658,41.6592814 C40.4887926,32.704454 42.2486388,32.3690286 43.0638686,22.7909645 C43.5595957,16.9667097 39.9326796,10.8546435 39.9326796,10.8546435 C39.9326796,10.8546435 34.506456,7.18389389 28.5495285,9.49952147 Z" id="Path-13" fill="#4C90B8"></path>
                <polygon id="Path-7" fill="#CECFA2" points="5.64284111 61.8428095 5.01477578 64.160133 6.25994119 67.0915107 11.6249959 68.3098721 16.684851 69.8815584 21.346302 71.1285514 26.9568565 72.3560505 31.6792256 73.5951241 33.4050346 73.3904394 34.0769609 71.7937767 34.168338 69.3211121 28.0978521 68.4170879 20.8327626 67.0878556 15.0254427 65.727555 8.65828573 63.3084983"></polygon>
                <ellipse id="Oval-6" fill="#FBAE31" transform="translate(34.310834, 5.816776) rotate(10.000000) translate(-34.310834, -5.816776) " cx="34.310834" cy="5.81677577" rx="8.73321496" ry="4.36660748"></ellipse>
            </g>
            <polygon id="Path-14" stroke="#979797" fill="#CECFA2" points="381.232958 266 369 276.615583 386.575473 279.825357"></polygon>
            <polygon id="Path-15" stroke="#979797" fill="#FFD931" points="382 266.198844 419.937339 254 424.492793 267.604224 386.383665 279.879216"></polygon>
            <path d="M383,269.183005 C407.860263,263.468785 395.31911,267.3937 420.493246,257" id="Path-16" stroke="#979797"></path>
            <path d="M385,273.862576 C397.176508,269.908384 409.353015,265.954192 421.529523,262" id="Path-17" stroke="#979797"></path>
            <path d="M418,254.684385 L422.227714,253.350279 L428.565631,253 C428.565631,253 431.082156,253.897323 431.648694,254.290854 C432.215232,254.684385 433.587717,258.330331 433.587717,258.330331 L433.953834,261.959221 L432.201221,264.871105 L426.822765,267.085477 L422.740644,268.435421 L418,254.684385 Z" id="Path-18" stroke="#979797" fill="#BBA8AA"></path>
            <polygon id="Path-19" stroke="#979797" fill="#F2F2F2" points="320 335.774234 321.578996 341.671104 322.010296 347.102559 323.540558 350.721093 325.189001 353.265031 332.50648 352.035705 345.979121 352.808146 359.641827 354.147125 363.964573 356.766602 367.176174 356.765384 373.835738 356.630146 383.3219 358.228636 391.801696 359.133879 400.238849 359.817379 406.599914 362.564784 411.234561 364.229066 414.697145 355.325281 421.887914 343.856844 427.018434 334.101424 426.39707 326.138213 427.966319 322.9059 425.496701 318.553913 424.506173 314.980459 425.444311 312.314684 419.268437 310.05706 408.383596 307.310874 392.943301 306.560363 383.146456 306.91978 378.061016 302.578758 367.467363 297.354424 358.710999 293.382565 347.849306 293 341.456564 293.698121 330.950633 309.438133 323.362678 324.074309"></polygon>
            <path d="M382.792282,308 C371.418982,319.680028 366.584049,333.841122 363,349.476679" id="Path-20" stroke="#979797"></path>
            <path d="M327,347.434955 C333.777745,347.28997 340.55549,347.144985 347.333234,347" id="Path-28" stroke="#979797"></path>
            <path d="M344,345 L349.790872,345.523895" id="Path-29" stroke="#979797"></path>
            <polygon id="Path-30" stroke="#979797" fill="#D0011B" points="321.7026 349.211637 318 354.354341 321.942618 357.751132 327.690847 359.190017 338.100527 357.091999 347.472164 357.837636 355.787481 359.609134 364.942249 361.675475 373.842379 361.454951 386.604716 363.785677 398.353375 367.113022 407.463064 369.542435 412.636227 372.408021 414.742774 364.078084 417.636382 355.011038 423.455276 343.286745 426.21852 337 414.706223 355.309536 411.374004 363.6943 400.994783 359.726096 383.249348 357.798649 373.420826 356.022278 363.478997 356.336615 359.663089 354.19108 342.871631 352.922766 332.660543 351.297472 325.087209 353.107957"></polygon>
            <path d="M322,337 C337.568928,338.103062 351.187559,340.940383 364.858301,348.768153" id="Path-31" stroke="#979797"></path>
            <path d="M365,349.093707 C366.521426,349.070802 400.118681,345.319853 406.642376,351.843549" id="Path-32" stroke="#979797"></path>
            <path d="M424.490797,316 C423.860643,328.259356 415.152363,343.028496 407,351.986743" id="Path-33" stroke="#979797"></path>
            <path d="M370,340.509813 C382.46374,338.855136 394.333394,335.950926 406.429008,340.227154" id="Path-21" stroke="#979797"></path>
            <path d="M374,332.570193 C387.598132,332.380129 401.196265,332.190064 414.794397,332" id="Path-22" stroke="#979797"></path>
            <path d="M380,320.114147 C411.277633,318.689027 399.784103,315.762776 415.570063,320.979184" id="Path-23" stroke="#979797"></path>
            <path d="M363.349659,338.571722 C343.443292,327.153827 353.947249,330.513132 332,328" id="Path-24" stroke="#979797"></path>
            <path d="M332,318 C360.290066,320.447343 349.954605,315.62387 365.364829,325.587955" id="Path-25" stroke="#979797"></path>
            <path d="M338,308 C350.799017,309.858718 358.193202,309.528301 367.531863,317.6811" id="Path-26" stroke="#979797"></path>
            <path d="M342,300 C356.489851,302.3731 364.903108,300.877813 373.953966,311.066377" id="Path-27" stroke="#979797"></path>
            <path d="M382,313.198732 C409.993985,312.630711 399.699906,310.302861 413.644502,314.251396" id="Path-34" stroke="#979797"></path>
            <path d="M219.675511,260 C212.809425,268.121723 186.043275,286.91415 186,263.02641" id="Path-37" stroke="#000000"></path>
            <path d="M233.798992,267 C231.918271,273.757845 228.443807,305.04751 242.500529,289.310635" id="Path-36" stroke="#000000"></path>
            <path d="M223.277309,266 C222.5741,269.65715 209.431226,294.463574 207,298.676454" id="Path-35" stroke="#000000"></path>
        </g>
    </g>
</svg>