<?xml version="1.0" encoding="UTF-8"?>
<svg width="500px" height="500px" viewBox="0 0 500 500" version="1.1" xmlns="http://www.w3.org/2000/svg" xmlns:xlink="http://www.w3.org/1999/xlink">
    <!-- Generator: Sketch 43.2 (39069) - http://www.bohemiancoding.com/sketch -->
    <title>Artboard</title>
    <desc>Created with Sketch.</desc>
    <defs></defs>
    <g id="Page-1" stroke="none" stroke-width="1" fill="none" fill-rule="evenodd">
        <g id="Artboard">
            <rect id="Rectangle" fill="#B8E0DB" x="0" y="0" width="500" height="503"></rect>
            <g id="nuclear" transform="translate(109.000000, 221.000000)">
                <ellipse id="Oval" stroke="#4990E2" transform="translate(38.043513, 35.844475) rotate(-38.000000) translate(-38.043513, -35.844475) " cx="38.0435126" cy="35.8444747" rx="9.76165945" ry="37.7910448"></ellipse>
                <ellipse id="Oval-Copy-2" stroke="#4990E2" transform="translate(38.000000, 36.000000) rotate(-90.000000) translate(-38.000000, -36.000000) " cx="38" cy="36" rx="9.76165945" ry="37.7910448"></ellipse>
                <ellipse id="Oval-Copy" stroke="#4990E2" transform="translate(38.043513, 35.844475) scale(-1, 1) rotate(-38.000000) translate(-38.043513, -35.844475) " cx="38.0435126" cy="35.8444747" rx="9.76165945" ry="37.7910448"></ellipse>
                <ellipse id="Oval-2" fill="#2B4C95" cx="38" cy="36" rx="4.43711793" ry="4.47761194"></ellipse>
            </g>
            <path d="M246.672233,277.707184 C237.213634,280.70255 230.358357,289.551005 230.358357,300.000596 C230.358357,312.913159 240.826058,323.380859 253.73862,323.380859 C259.880577,323.380859 265.469384,321.012542 269.641643,317.139305 C267.412248,317.845313 265.038227,318.226156 262.575255,318.226156 C249.662693,318.226156 239.194992,307.758455 239.194992,294.845893 C239.194992,288.075287 242.07293,281.976859 246.672233,277.707184 Z" id="Combined-Shape" fill="#FFFFFF"></path>
            <path d="M107.080213,163.710294 C106.123085,163.544441 105.129964,163.457143 104.11165,163.457143 C96.3180011,163.457143 90,168.570691 90,174.878571 C90,181.186452 96.3180011,186.3 104.11165,186.3 C104.205494,186.3 104.299123,186.299259 104.392531,186.297783 C104.389749,186.391106 104.38835,186.484706 104.38835,186.578571 C104.38835,192.886452 110.706351,198 118.5,198 C123.980342,198 128.731031,195.471541 131.068397,191.777321 C131.664209,191.839412 132.27166,191.871429 132.88835,191.871429 C140.681999,191.871429 147,186.757881 147,180.45 C147,174.142119 140.681999,169.028571 132.88835,169.028571 C132.761294,169.028571 132.63463,169.02993 132.50838,169.032632 C131.661732,163.379756 125.712813,159 118.5,159 C113.805027,159 109.645564,160.855696 107.080213,163.710294 Z" id="clouds" stroke="#77ACE9" fill="#F2F2F2"></path>
            <polygon id="Star-Copy-2" stroke="#4990E2" fill="#FFD931" points="289.5 258.714917 281.774575 262.776413 283.25 254.174026 277 248.081782 285.637288 246.82671 289.5 239 293.362712 246.82671 302 248.081782 295.75 254.174026 297.225425 262.776413"></polygon>
            <polygon id="Star-Copy-2" stroke="#F8E81C" fill="#4990E2" transform="translate(325.217147, 225.141740) rotate(-40.000000) translate(-325.217147, -225.141740) " points="325.217147 232.96845 317.491722 237.029946 318.967147 228.427559 312.717147 222.335315 321.354435 221.080243 325.217147 213.253533 329.07986 221.080243 337.717147 222.335315 331.467147 228.427559 332.942572 237.029946"></polygon>
            <polygon id="Star-Copy" stroke="#F8E81C" fill="#BD0FE1" transform="translate(182.723043, 206.771273) rotate(49.000000) translate(-182.723043, -206.771273) " points="182.723043 213.025685 176.549569 216.271273 177.728598 209.397008 172.734152 204.528627 179.636306 203.525685 182.723043 197.271273 185.80978 203.525685 192.711934 204.528627 187.717489 209.397008 188.896517 216.271273"></polygon>
            <ellipse id="Oval-2" fill="#F6A623" cx="193.358357" cy="271.389006" rx="3.35835732" ry="3.38900635"></ellipse>
            <ellipse id="Oval-2" fill="#BD0FE1" cx="147.358357" cy="213.389006" rx="3.35835732" ry="3.38900635"></ellipse>
            <ellipse id="Oval-2-Copy" fill="#FFCC00" cx="210.972869" cy="295" rx="2.97286902" ry="3"></ellipse>
            <ellipse id="Oval-2-Copy-3" fill="#FFD931" cx="284.358357" cy="146.389006" rx="3.35835732" ry="3.38900635"></ellipse>
            <g id="e-=-mc2" transform="translate(193.000000, 70.000000)">
                <text id="E-=-mc" font-family="HelveticaNeue-Light, Helvetica Neue" font-size="36" font-weight="300" letter-spacing="-0.278925598" fill="#F95658">
                    <tspan x="24.2844018" y="43">E = mc</tspan>
                </text>
                <g id="Group-3" transform="translate(59.000000, 0.000000)" font-size="18" font-family="HelveticaNeue-Light, Helvetica Neue" letter-spacing="-0.139462799" fill="#F95658" font-weight="300">
                    <text id="2">
                        <tspan x="74.3313564" y="23">2</tspan>
                    </text>
                </g>
                <ellipse id="Oval-2-Copy-3" fill="#FFD931" cx="37.3583573" cy="54.3890063" rx="3.35835732" ry="3.38900635"></ellipse>
            </g>
            <g id="f-=-ma" transform="translate(220.716715, 334.000000)" font-weight="normal" letter-spacing="-0.278925598" font-size="36" font-family="Times-Italic, Times" fill="#F95658" font-style="italic">
                <text>
                    <tspan x="31.9559174" y="34">f = ma</tspan>
                </text>
            </g>
            <ellipse id="Oval-2-Copy-5" fill="#417505" cx="320.358357" cy="325.389006" rx="3.35835732" ry="3.38900635"></ellipse>
            <ellipse id="Oval-2-Copy-6" fill="#9012FE" cx="302.358357" cy="194.389006" rx="3.35835732" ry="3.38900635"></ellipse>
            <ellipse id="Oval-2-Copy-7" fill="#FFCC00" cx="384.358357" cy="330.389006" rx="3.35835732" ry="3.38900635"></ellipse>
            <ellipse id="Oval-2-Copy-9" fill="#BD0FE1" cx="217.358357" cy="337.389006" rx="3.35835732" ry="3.38900635"></ellipse>
            <g id="rocket" transform="translate(213.000000, 145.000000)">
                <ellipse id="Oval-2-Copy-4" fill="#D0011B" cx="16.3583573" cy="3.38900635" rx="3.35835732" ry="3.38900635"></ellipse>
                <path d="M2.22032869,68.324707 C1.52500427,68.5337164 0.989727862,67.0103085 0.88341463,65.3916016 C0.621075519,61.3972714 1.41417635,57.7802734 1.48302401,57.0986328 C1.55187166,56.4169922 1.63308159,53.2096861 3.28282869,50.6674805 C5.70339409,46.9374693 9.20323885,44.9033203 9.62364901,44.5541992 C10.0440592,44.2050781 12.6129229,42.4961459 15.5049967,42.6518555 C18.1949542,42.796683 20.7877115,45.1552734 20.7877115,45.1552734 C20.7877115,45.1552734 23.689178,37.9050126 27.2266763,31.1855469 C29.944305,26.0234208 29.7269922,25.6009349 33.2979654,21.3920898 C37.5858789,16.3382396 37.7514898,16.1233157 42.9444498,12.6601563 C47.0149175,9.94558137 51.8248209,9.03662109 51.8248209,9.03662109 L56.6368326,8 C56.6368326,8 56.6368326,8 60.0059732,10.0546875 C60.0059732,10.0546875 62.7743992,12.8071497 63.5416178,16.440918 C64.9777683,23.2429407 64.620629,23.7501897 64.4127115,30.9262695 C64.2995841,34.8307561 64.6032245,35.3467252 62.8995279,38.6020508 C57.3739764,49.1599576 49.9542154,58.5527344 49.9542154,58.5527344 C49.9542154,58.5527344 52.4238298,60.3569004 53.9698404,62.9902344 C55.4487321,65.5092441 56.0040201,68.8574219 56.0040201,68.8574219 L56.0128092,76.5400391 L52.7310709,81.5644531 L46.2701334,86.2768555 C46.2701334,86.2768555 43.1933578,87.9078583 41.1915201,87.2788086 C40.2402328,86.9798798 40.3638834,84.4208984 40.3638834,84.4208984 L42.8336099,81.7529297 C42.8336099,81.7529297 44.5016074,80.1783325 45.1627115,78.1806641 C45.625875,76.7811157 45.0821451,74.9584961 45.0821451,74.9584961 L42.1099771,71.6782227 L40.967399,71.4018555 L30.8336099,86.046875 L12.8975748,77.5708008 L13.745231,71.5170898 L14.9420084,64.9194336 L15.8013834,60.5859375 L15.8013834,58.2456055 L12.9009928,56.7138672 L10.2169107,56.9702148 L6.96935213,59.9770508 L4.17931307,64.4008789 C4.17931307,64.4008789 2.91565311,68.1156977 2.22032869,68.324707 Z" id="Path-2" stroke="#979797" fill="#BBA8AA"></path>
                <polygon id="Path-4" stroke="#979797" fill="#92C7D2" points="16.4135742 58.0419922 22.9052734 62.9472656 40.9189453 70.8652344 35.7128906 77.8852539 23.6831055 73.0913086 14.1630859 67.0224609"></polygon>
                <path d="M32.9667969,22.6386719 L41.1992188,31.7382812 L56.1328125,36.875 L63.0488281,37.953125 L50.8828125,57.8300781 L40.3125,70.4882812 L17.140625,59.1640625 L20.9960938,44.2851562 L32.9667969,22.6386719 Z" id="Oval-5-Copy" stroke="#979797" fill="#C9D9AE"></path>
                <path d="M33,22.0849609 L40.8789062,31.6220703 L53.2802734,37.1025391 L62.6611328,37.7255859 L64.2529297,30.3554688 C64.2529297,30.3554688 56.4775391,29.3701172 54.1005859,28.9101562 C51.7236328,28.4501953 42.1455078,23.1542969 42.1455078,23.1542969 L38.4375,19.1181641 L36.53125,17 L33,22.0849609 Z" id="Path-3" stroke="#979797" fill="#92C7D2"></path>
                <circle id="Oval-5" stroke="#979797" fill="#93C5D0" cx="36" cy="48" r="9"></circle>
            </g>
            <g id="sun" transform="translate(150.000000, 121.000000)" fill="#FFD931">
                <circle id="Oval-7" cx="36.0096154" cy="34.6634615" r="14.4711538"></circle>
                <path d="M33.3173077,1.8397307 C33.3173077,0.823675492 34.1349534,0 35.159413,0 C36.1767796,0 37.0015182,0.820589177 37.0015182,1.8397307 L37.0015182,15.6602693 C37.0015182,16.6763245 36.1838725,17.5 35.159413,17.5 C34.1420463,17.5 33.3173077,16.6794108 33.3173077,15.6602693 L33.3173077,1.8397307 Z M57.3046991,10.2495836 C58.0231586,9.53112406 59.183748,9.52686037 59.9081503,10.2512627 C60.6275372,10.9706495 60.6304712,12.134072 59.9098294,12.8547138 L50.1372328,22.6273104 C49.4187733,23.3457699 48.2581839,23.3500336 47.5337816,22.6256313 C46.8143948,21.9062445 46.8114607,20.742822 47.5321026,20.0221802 L57.3046991,10.2495836 Z M68.3196823,33.1578947 C69.3357375,33.1578947 70.159413,33.9755405 70.159413,35 C70.159413,36.0173666 69.3388238,36.8421053 68.3196823,36.8421053 L54.4991437,36.8421053 C53.4830884,36.8421053 52.659413,36.0244595 52.659413,35 C52.659413,33.9826334 53.4800021,33.1578947 54.4991437,33.1578947 L68.3196823,33.1578947 Z M59.9098294,57.1452862 C60.6282889,57.8637457 60.6325526,59.0243351 59.9081503,59.7487373 C59.1887634,60.4681242 58.025341,60.4710583 57.3046991,59.7504164 L47.5321026,49.9778198 C46.813643,49.2593603 46.8093793,48.098771 47.5337816,47.3743687 C48.2531685,46.6549818 49.4165909,46.6520477 50.1372328,47.3726896 L59.9098294,57.1452862 Z M37.0015182,68.1602693 C37.0015182,69.1763245 36.1838725,70 35.159413,70 C34.1420463,70 33.3173077,69.1794108 33.3173077,68.1602693 L33.3173077,54.3397307 C33.3173077,53.3236755 34.1349534,52.5 35.159413,52.5 C36.1767796,52.5 37.0015182,53.3205892 37.0015182,54.3397307 L37.0015182,68.1602693 Z M13.0141268,59.7504164 C12.2956673,60.4688759 11.1350779,60.4731396 10.4106756,59.7487373 C9.69128876,59.0293505 9.68835466,57.865928 10.4089965,57.1452862 L20.1815931,47.3726896 C20.9000526,46.6542301 22.060642,46.6499664 22.7850443,47.3743687 C23.5044311,48.0937555 23.5073652,49.257178 22.7867234,49.9778198 L13.0141268,59.7504164 Z M1.99914366,36.8421053 C0.983088447,36.8421053 0.159412955,36.0244595 0.159412955,35 C0.159412955,33.9826334 0.980002133,33.1578947 1.99914366,33.1578947 L15.8196823,33.1578947 C16.8357375,33.1578947 17.659413,33.9755405 17.659413,35 C17.659413,36.0173666 16.8388238,36.8421053 15.8196823,36.8421053 L1.99914366,36.8421053 Z M10.4089965,12.8547138 C9.69053702,12.1362543 9.68627333,10.9756649 10.4106756,10.2512627 C11.1300625,9.53187581 12.2934849,9.52894171 13.0141268,10.2495836 L22.7867234,20.0221802 C23.5051829,20.7406397 23.5094466,21.901229 22.7850443,22.6256313 C22.0656574,23.3450182 20.902235,23.3479523 20.1815931,22.6273104 L10.4089965,12.8547138 Z" id="Rectangle-2"></path>
            </g>
            <g id="rain" transform="translate(348.500000, 159.500000) scale(-1, 1) translate(-348.500000, -159.500000) translate(304.000000, 128.000000)">
                <path d="M24,41 L36.8862485,62.446319" id="Line" stroke="#92C4FF" stroke-linecap="square"></path>
                <path d="M32,41 L44.8862485,62.446319" id="Line-Copy" stroke="#92C4FF" stroke-linecap="square"></path>
                <path d="M40,41 L52.8862485,62.446319" id="Line-Copy-2" stroke="#92C4FF" stroke-linecap="square"></path>
                <path d="M49,41 L61.8862485,62.446319" id="Line-Copy-3" stroke="#92C4FF" stroke-linecap="square"></path>
                <path d="M59,41 L71.8862485,62.446319" id="Line-Copy-4" stroke="#92C4FF" stroke-linecap="square"></path>
                <path d="M68,41 L80.8862485,62.446319" id="Line-Copy-5" stroke="#92C4FF" stroke-linecap="square"></path>
                <path d="M22.773618,6.28039234 C21.4974473,6.0592543 20.1732854,5.94285714 18.815534,5.94285714 C8.4240015,5.94285714 0,12.7609208 0,21.1714286 C0,27.9678159 5.50085556,33.7243404 13.0956393,35.683566 C13.0323929,36.1916136 13,36.7070308 13,37.2285714 C13,45.6390792 21.4240015,52.4571429 31.815534,52.4571429 C36.6134807,52.4571429 40.9919841,51.0036507 44.315534,48.6110241 C47.6390838,51.0036507 52.0175873,52.4571429 56.815534,52.4571429 C67.2070665,52.4571429 75.631068,45.6390792 75.631068,37.2285714 C75.631068,37.0578856 75.6275984,36.8878557 75.6207134,36.7185253 C83.1713586,34.7383293 88.631068,28.9994926 88.631068,22.2285714 C88.631068,13.8180637 80.2070665,7 69.815534,7 C64.5067593,7 59.711497,8.77946908 56.2906205,11.6416494 C54.2980521,4.9620132 46.8649855,0 38,0 C31.7400364,0 26.1940855,2.47426081 22.773618,6.28039234 Z" id="clouds-copy-3" stroke="#92C5FF" fill="#F4F0ED" transform="translate(44.315534, 26.228571) scale(-1, 1) translate(-44.315534, -26.228571) "></path>
            </g>
            <g id="ballon" transform="translate(164.500000, 339.005855) scale(-1, 1) translate(-164.500000, -339.005855) translate(139.000000, 297.005855)" stroke="#979797">
                <path d="M5.76367188,49.2617188 C-0.266132767,30.6722603 1.17445334,39.5875553 0.400390625,22.7050781" id="Path-5"></path>
                <path d="M6.49343034,51.1289767 C2.12861135,48.3263483 2.40944597,39.6172579 2.40944597,39.6172579 L0.288352218,27.7617892 C0.288352218,27.7617892 -0.892374175,20.37272 1.52468034,14.697336 C4.23653208,8.3297512 10.5461647,3.67585166 10.5461647,3.67585166 C10.5461647,3.67585166 15.514967,2.00363379 20.5774147,1.59772666 C26.1477795,1.15109473 26.5551858,0.347512137 31.8117897,1.97077354 C37.7026467,3.78989495 38.6689601,3.74460267 42.8723366,8.48249229 C48.0381008,14.3051495 48.1716399,15.5597564 50.0007546,23.1748751 C51.0080657,27.3685943 48.5451882,32.1001681 48.5451882,32.1001681 L33.440696,51.5625704 C33.440696,51.5625704 28.4016335,56.306711 28.4016335,56.306711 C18.0148033,56.1395822 6.49343034,51.5625704 6.49343034,51.1289767 Z" id="Path-6" fill="#BBA8AA"></path>
                <path d="M5.88476563,54.2177734 L5.69287109,67.7060547" id="Path-8"></path>
                <path d="M11.3623047,55.6552734 L10.6660156,68.5722656" id="Path-9"></path>
                <path d="M14.6713867,69.9101562 C15.8349609,65.5257161 16.9985352,61.141276 18.1621094,56.7568359" id="Path-10"></path>
                <path d="M25.628418,58.9814453 L19.8012695,70.7182617" id="Path-11"></path>
                <polyline id="Path-12" fill="#CECFA2" points="4.03759766 67.3256836 2.83935547 78.5180664 16.3554688 83.4135742 20.7758789 71.8354492 4.86572266 67.3686523"></polyline>
                <path d="M22.88352,7.61422347 C19.4116392,8.96384254 16.6589106,16.3684163 16.6589106,16.3684163 C16.6589106,16.3684163 14.2208034,20.2313706 13.2487544,25.4383241 C11.9722683,32.2760488 12.1618403,40.4577726 12.1618403,40.4577726 C12.1618403,40.4577726 11.4829795,47.9661766 12.905981,51.543556 C14.2090537,54.8194385 17.6139888,54.1642965 17.6139888,54.1642965 C17.6139888,54.1642965 22.8534986,49.8607721 24.9723872,45.1628447 C27.5375806,39.4753855 27.680828,39.661364 29.905981,33.3914797 C32.4532889,26.213849 33.8638718,25.9449929 34.5173091,18.2678146 C34.914653,13.5994554 32.0075435,8.70040473 32.0075435,8.70040473 C32.0075435,8.70040473 27.6582213,5.75816093 22.88352,7.61422347 Z" id="Path-13" fill="#92C7D2"></path>
                <polygon id="Path-7" fill="#CECFA2" points="4.52294922 49.5693359 4.01953125 51.4267578 5.01757812 53.7763672 9.31787109 54.7529297 13.3735352 56.0126953 17.1098633 57.012207 21.6069336 57.9960938 25.3920898 58.9892578 26.7753906 58.8251953 27.3139648 57.5454102 27.387207 55.5634766 22.5214844 54.8388672 16.6982422 53.7734375 12.043457 52.6831055 6.93994141 50.7441406"></polygon>
                <ellipse id="Oval-6" fill="#CECFA2" transform="translate(27.501423, 4.662364) rotate(10.000000) translate(-27.501423, -4.662364) " cx="27.5014229" cy="4.66236438" rx="7" ry="3.5"></ellipse>
            </g>
            <polygon id="Path-14" stroke="#979797" fill="#CECFA2" points="355.805176 238 346 246.508789 360.087402 249.081543"></polygon>
            <polygon id="Path-15" stroke="#979797" fill="#FFD931" points="356 237.777832 386.408203 228 390.05957 238.904297 359.513672 248.743164"></polygon>
            <path d="M357,240.765137 C376.926435,236.184974 366.87423,239.330941 387.052246,231" id="Path-16" stroke="#979797"></path>
            <path d="M359,244.508301 C368.759928,241.338867 378.519857,238.169434 388.279785,235" id="Path-17" stroke="#979797"></path>
            <path d="M386.686035,196.728027 L390.074707,195.658691 L395.154785,195.37793 C395.154785,195.37793 397.171875,196.097168 397.625977,196.412598 C398.080078,196.728027 399.180176,199.650391 399.180176,199.650391 L399.473633,202.559082 L398.068848,204.893066 L393.757812,206.667969 L390.48584,207.75 L386.686035,196.728027 Z" id="Path-18" stroke="#979797" fill="#BBA8AA"></path>
            <polygon id="Path-19" stroke="#979797" fill="#F2F2F2" points="307 294.285156 308.265625 299.011719 308.611328 303.365234 309.837891 306.265625 311.15918 308.304688 317.024414 307.319336 327.823242 307.938477 338.774414 309.011719 342.239258 311.111328 344.813477 311.110352 350.151367 311.001953 357.754883 312.283203 364.551758 313.008789 371.314453 313.556641 376.413086 315.758789 380.12793 317.092773 382.90332 309.956055 388.666992 300.763672 392.779297 292.944336 392.28125 286.561523 393.539062 283.970703 391.55957 280.482422 390.765625 277.618164 391.517578 275.481445 386.567383 273.671875 377.842773 271.470703 365.466797 270.869141 357.614258 271.157227 353.538086 267.677734 345.046875 263.490234 338.02832 260.306641 329.322266 260 324.198242 260.55957 315.777344 273.175781 309.695312 284.907227"></polygon>
            <path d="M356.864258,272 C347.74813,281.361981 343.87275,292.71263 341,305.245117" id="Path-20" stroke="#979797"></path>
            <path d="M312,303.348633 L328.297852,303" id="Path-28" stroke="#979797"></path>
            <path d="M326,301 C327.547201,301.139974 329.094401,301.279948 330.641602,301.419922" id="Path-29" stroke="#979797"></path>
            <polygon id="Path-30" stroke="#979797" fill="#BBABA7" points="307.967773 304.788086 305 308.910156 308.160156 311.632812 312.767578 312.786133 321.111328 311.104492 328.623047 311.702148 335.288086 313.12207 342.625977 314.77832 349.759766 314.601562 359.989258 316.469727 369.40625 319.136719 376.708008 321.083984 380.854492 323.380859 382.542969 316.704102 384.862305 309.436523 389.526367 300.039062 391.741211 295 382.513672 309.675781 379.842773 316.396484 371.523438 313.21582 357.299805 311.670898 349.421875 310.24707 341.453125 310.499023 338.394531 308.779297 324.935547 307.762695 316.750977 306.459961 310.680664 307.911133"></polygon>
            <path d="M308,295 C320.479081,295.884145 331.394925,298.158365 342.352539,304.432617" id="Path-31" stroke="#979797"></path>
            <path d="M343,304.876647 C344.21948,304.858288 371.148943,301.851762 376.37793,307.080749" id="Path-32" stroke="#979797"></path>
            <path d="M390.019531,278 C389.514439,287.826335 382.534425,299.664355 376,306.844727" id="Path-33" stroke="#979797"></path>
            <path d="M347,298.01171 C356.990156,296.685423 366.50413,294.357591 376.199219,297.785147" id="Path-21" stroke="#979797"></path>
            <path d="M350,291.457031 C360.899414,291.304688 371.798828,291.152344 382.698242,291" id="Path-22" stroke="#979797"></path>
            <path d="M355,281.694568 C380.070198,280.552281 370.857702,278.206781 383.510742,282.387928" id="Path-23" stroke="#979797"></path>
            <path d="M341.12793,296.473633 C325.172229,287.321761 333.591545,290.01437 316,288" id="Path-24" stroke="#979797"></path>
            <path d="M316,280 C338.675551,281.961637 330.391291,278.095443 342.743164,286.082031" id="Path-25" stroke="#979797"></path>
            <path d="M321,272 C331.258893,273.489832 337.18561,273.22499 344.670898,279.759766" id="Path-26" stroke="#979797"></path>
            <path d="M324,265 C335.61416,266.902129 342.357702,265.7036 349.612305,273.870117" id="Path-27" stroke="#979797"></path>
            <path d="M356,275.960828 C378.438231,275.505539 370.18714,273.639679 381.364258,276.804578" id="Path-34" stroke="#979797"></path>
            <path d="M225.992188,233 C220.488762,239.509866 199.034686,254.572703 199,235.425781" id="Path-37" stroke="#000000"></path>
            <path d="M237.44196,239 C235.934491,244.416667 233.149578,269.496509 244.416569,256.882812" id="Path-36" stroke="#000000"></path>
            <path d="M229.046875,238 C228.483226,240.931343 217.948719,260.814624 216,264.191406" id="Path-35" stroke="#000000"></path>
        </g>
    </g>
</svg>